<svg width="86" height="90" viewBox="0 0 86 90" fill="none" xmlns="http://www.w3.org/2000/svg">
<rect x="1" y="1" width="117" height="88" rx="11" fill="#09AFF4"/>
<rect x="1" y="1" width="117" height="88" rx="11" stroke="black" stroke-width="2"/>
<path d="M77.7063 60.12C74.6641 59.956 69.3985 59.8424 68.3583 59.746C67.8233 57.2934 66.9614 53.4095 66.6199 51.587C66.6256 51.5834 66.6314 51.5797 66.6367 51.5756C68.7478 50.2123 70.6408 46.4809 67.6105 41.2227C63.5724 41.2567 59.868 42.1628 56.4552 44.2608C56.5409 45.032 56.611 45.6863 56.6499 46.1148C46.9514 50.5018 45.0818 51.7937 44.7234 53.9671C44.3073 56.5054 46.5192 60.1294 52.9886 70.8091C55.4486 71.3831 59.1956 69.9768 60.062 67.7398C59.0722 65.7402 55.6381 58.8207 54.5544 56.8883C57.4749 55.8223 60.8684 54.5001 63.6679 53.1528C62.5232 54.2541 60.2481 56.5714 59.4232 57.5505C60.6228 61.2118 62.025 65.4635 63.5441 66.1662C65.3182 66.9862 66.1357 67.2257 77.6985 67.2257C79.0257 66.0354 78.7284 61.844 77.7063 60.12Z" fill="#09AFF4"/>
<path d="M41.1714 15.4053C40.852 15.9895 40.5638 16.5582 40.2989 17.0957C38.2034 21.4192 37.7906 24.2781 37.7979 26.4125C37.8057 27.4642 37.907 28.3367 37.9619 29.1313V29.139C38.11 29.2247 38.2489 29.3104 38.4216 29.4117C38.7332 28.9197 38.9902 29.0144 39.7536 29.3883C40.8053 29.9025 40.9066 29.9492 40.9836 30.6893C40.9914 30.7827 40.9992 30.8684 41.0148 30.9541C41.7471 30.5412 42.5806 30.1284 43.531 29.5191C45.3305 28.3584 47.4961 26.4576 49.9655 22.3367C50.2771 21.8148 50.5965 21.2707 50.9159 20.6775L41.1714 15.4053ZM44.3186 23.9353L43.82 26.3035L42.7389 24.1379L40.3395 24.4105L42.0615 22.7045L41.0644 20.4999L43.2145 21.6069L44.9984 19.9866L44.6089 22.3781L46.7122 23.57L44.3186 23.9353Z" fill="#09AFF4"/>
<path d="M81.4463 12.1961C81.4385 12.5856 81.4385 12.9595 81.4463 13.2867C81.9682 13.1309 82.2097 12.944 82.2486 12.757C82.32 12.4208 81.666 12.1522 81.4463 12.1961Z" fill="#09AFF4"/>
<path d="M78.7741 60.7583C78.5273 60.7522 78.2809 60.7649 78.0361 60.7973C78.7217 62.4955 78.7606 65.1285 78.2001 66.4996C79.1021 67.707 81.7671 69.5299 83.8401 70.083C83.6896 66.8267 80.2075 62.0826 78.7741 60.7583Z" fill="#E9E9E9"/>
<path d="M76.866 12.3673C76.7327 12.3636 76.21 12.4673 76.21 12.8269C76.21 13.0216 76.4514 13.2398 77.0435 13.3878C77.1074 13.0373 77.0443 12.6756 76.866 12.3673Z" fill="#E9E9E9"/>
<path d="M67.9766 34.0934C68.0856 35.706 68.257 37.6301 68.257 38.9622C68.849 36.8823 69.5735 34.3661 69.9942 32.9717L67.9766 34.0934Z" fill="#E9E9E9"/>
<path d="M64.8841 18.5132C64.8841 17.9834 64.1986 17.8043 63.8325 18.3807C63.8013 17.8822 62.9911 17.7657 62.5938 18.4431C62.5082 17.9055 61.5967 18.0224 61.2773 18.63C61.1839 18.1548 60.4049 18.4197 60.2724 19.1286C60.1322 19.8764 60.0076 20.5541 59.9219 21.1618C60.9284 20.8658 61.9731 20.7188 63.0223 20.7255C62.8042 21.5513 62.8993 22.6652 63.256 21.9096C63.6065 21.154 64.5024 21.7226 63.871 22.712C63.7693 22.9168 63.7275 23.1463 63.7509 23.3738C63.7746 23.6013 63.862 23.8175 64.0034 23.9973C64.0969 22.3692 65.3589 20.2581 65.7484 19.4012C66.2785 18.2405 65.4761 17.9289 64.8841 18.5132Z" fill="#E9E9E9"/>
<path d="M58.6836 55.3137C58.9173 56.007 59.1666 56.7626 59.4216 57.5494C60.3408 56.4588 62.9972 53.8803 63.9554 53.0156C62.2826 53.8336 60.4511 54.6204 58.6836 55.3137Z" fill="#E9E9E9"/>
<path d="M61.5993 25.4781C61.5932 25.8333 61.5591 26.1875 61.498 26.5375C62.0372 26.1576 62.4562 25.6312 62.7055 25.0205C62.3492 25.2016 61.9794 25.3545 61.5993 25.4781Z" fill="#E9E9E9"/>
<path d="M59.696 68.4326C60.067 68.7204 60.4065 69.0468 60.7087 69.4064C58.9014 73.6909 55.0298 77.2976 53.5029 78.2558C53.6554 75.74 54.175 73.26 55.0454 70.8943C56.7981 70.6606 58.7698 69.7725 59.696 68.4326Z" fill="#E9E9E9"/>
<path d="M55.576 36.7588C54.7737 37.7247 52.5457 40.1163 50.458 41.4951C52.3088 40.8972 54.1176 40.176 55.8721 39.3365C55.763 38.4172 55.6617 37.5292 55.576 36.7588Z" fill="#E9E9E9"/>
<path d="M42.0752 31.803C41.9038 31.7017 41.6078 31.8263 41.3896 32.1457C41.5691 32.4679 41.859 32.7141 42.206 32.839C42.3322 32.2314 42.247 31.9042 42.0752 31.803Z" fill="#E9E9E9"/>
<path d="M40.1822 36.7816C39.8239 37.1866 39.5508 37.3043 39.3721 37.249C39.1224 37.1719 39.0916 36.7037 39.2396 36.2129C39.559 36.3999 39.8784 36.5868 40.1822 36.7816Z" fill="#E9E9E9"/>
<path d="M34.2852 65.7443C35.5802 65.7443 36.63 64.6943 36.63 63.3995C36.63 62.1043 35.5802 61.0547 34.2852 61.0547C32.9902 61.0547 31.9404 62.1043 31.9404 63.3995C31.9404 64.6943 32.9902 65.7443 34.2852 65.7443Z" fill="#E9E9E9"/>
<path d="M37.9622 35.4722C37.9778 34.7633 38.3128 34.0077 38.8642 32.9794C38.7496 32.5993 38.7205 32.1984 38.7791 31.8057C38.8377 31.413 38.9826 31.0381 39.2033 30.708C39.0635 30.9241 38.9008 31.1244 38.7179 31.3054C38.9516 31.7806 38.5698 32.505 37.8921 32.1623L37.9856 32.3103C38.8113 32.7777 38.266 33.8371 37.3858 33.4173L37.5498 33.5653C38.3599 33.9937 37.8536 35.0298 36.9811 34.6481C36.5994 34.4767 36.2878 34.3521 36.0307 34.243C35.3608 34.7805 34.5272 34.9052 33.1406 34.7104L39.1545 37.9666C38.2972 36.9913 37.9389 36.259 37.9622 35.4722Z" fill="#E9E9E9"/>
<path d="M32.9391 34.6045L31.4746 36.5208L38.5557 40.3613L39.3659 38.0866L32.9391 34.6045Z" fill="#E9E9E9"/>
<path d="M40.182 36.7813C39.444 36.2984 38.5929 35.8699 37.9541 35.457" stroke="black" stroke-width="0.564931" stroke-linecap="round" stroke-linejoin="round"/>
<path d="M59.8908 21.4107L58.4263 6.04883L47.0996 34.4512" stroke="black" stroke-width="0.564931" stroke-linecap="round" stroke-linejoin="round"/>
<path d="M60.5841 28.7491L60.2725 25.4072" stroke="black" stroke-width="0.564931" stroke-linecap="round" stroke-linejoin="round"/>
<path d="M76.967 60.0801L87.6159 33.376L68.9121 36.6789" stroke="black" stroke-width="0.564931" stroke-linecap="round" stroke-linejoin="round"/>
<path d="M65.8262 66.873L67.4543 83.9487L74.1303 67.208" stroke="black" stroke-width="0.564931" stroke-linecap="round" stroke-linejoin="round"/>
<path d="M44.7313 40.3877L38.2578 56.6221L44.7391 55.4769" stroke="black" stroke-width="0.564931" stroke-linecap="round" stroke-linejoin="round"/>
<path d="M40.3061 17.1109L36.2553 14.9219C33.0163 20.9046 35.9748 25.4384 37.8055 26.4277" stroke="black" stroke-width="0.564931" stroke-linecap="round" stroke-linejoin="round"/>
<path d="M42.745 24.1452L40.3457 24.4101L42.0595 22.7119L41.0624 20.5073L43.2124 21.6135L44.9963 19.9854L44.6068 22.3691L46.7101 23.5688L44.3186 23.9349L43.8356 26.303L42.745 24.1452Z" stroke="black" stroke-width="0.564931" stroke-linecap="round" stroke-linejoin="round"/>
<path d="M49.9928 22.3467L54.0166 24.5348C50.7743 30.5175 45.3623 30.5175 43.5391 29.5282" stroke="black" stroke-width="0.564931" stroke-linecap="round" stroke-linejoin="round"/>
<path d="M37.5049 72.3193C40.043 72.3193 42.1006 70.2619 42.1006 67.7236C42.1006 65.1853 40.043 63.1279 37.5049 63.1279C34.9667 63.1279 32.9092 65.1853 32.9092 67.7236C32.9092 70.2619 34.9667 72.3193 37.5049 72.3193Z" stroke="black" stroke-width="0.564931" stroke-linecap="round" stroke-linejoin="round"/>
<path d="M87.6307 22.0885C88.4138 22.0885 89.0485 21.4537 89.0485 20.6707C89.0485 19.8877 88.4138 19.2529 87.6307 19.2529C86.8476 19.2529 86.2129 19.8877 86.2129 20.6707C86.2129 21.4537 86.8476 22.0885 87.6307 22.0885Z" stroke="black" stroke-width="0.564931" stroke-linecap="round" stroke-linejoin="round"/>
<path d="M32.5712 45.6999C32.9713 45.6999 33.2956 45.3756 33.2956 44.9754C33.2956 44.5753 32.9713 44.251 32.5712 44.251C32.171 44.251 31.8467 44.5753 31.8467 44.9754C31.8467 45.3756 32.171 45.6999 32.5712 45.6999Z" stroke="black" stroke-width="0.564931" stroke-linecap="round" stroke-linejoin="round"/>
<path d="M69.621 10.1152L68.8965 13.0131L71.0933 12.6236L70.3688 15.5215" stroke="black" stroke-width="0.564931" stroke-linecap="round" stroke-linejoin="round"/>
<path d="M37.3784 33.4078C38.2599 33.826 38.8032 32.7702 37.9783 32.3008C37.3633 31.951 36.9188 31.7317 36.4203 31.475C36.2717 31.3892 36.0958 31.3641 35.9292 31.4047C35.7626 31.4454 35.618 31.5487 35.5257 31.6933C35.4334 31.8378 35.4003 32.0124 35.4334 32.1807C35.4666 32.349 35.5633 32.498 35.7036 32.5968C36.1005 32.8473 36.5695 33.024 37.3784 33.4078Z" stroke="black" stroke-width="0.564931" stroke-linecap="round" stroke-linejoin="round"/>
<path d="M38.4295 29.4179C38.1179 29.2309 37.8928 29.1046 37.5881 28.9259C37.4444 28.832 37.2698 28.7978 37.1012 28.8304C36.9327 28.8631 36.7835 28.9601 36.6853 29.1009C36.587 29.2417 36.5474 29.4151 36.5749 29.5846C36.6024 29.7541 36.6948 29.9062 36.8325 30.0087C37.1657 30.231 37.5145 30.4289 37.8764 30.6007" stroke="black" stroke-width="0.564931" stroke-linecap="round" stroke-linejoin="round"/>
<path d="M36.9885 34.6465C37.8532 35.0283 38.3591 33.9934 37.5493 33.5637C36.9491 33.2452 36.5043 33.0443 36.0225 32.8159C35.8772 32.7342 35.7058 32.7122 35.5444 32.7543C35.3831 32.7965 35.2444 32.8996 35.1577 33.0419C35.0708 33.1842 35.0426 33.3547 35.079 33.5175C35.1153 33.6802 35.2134 33.8224 35.3526 33.9143C35.7421 34.1398 36.1939 34.296 36.9885 34.6465Z" stroke="black" stroke-width="0.564931" stroke-linecap="round" stroke-linejoin="round"/>
<path d="M37.8595 30.6342C37.5401 30.4629 37.2581 30.3337 36.9481 30.1668C36.7993 30.0745 36.6205 30.0436 36.4494 30.0808C36.2783 30.1179 36.1283 30.2201 36.0312 30.3658C35.9341 30.5114 35.8975 30.6892 35.929 30.8614C35.9605 31.0336 36.0578 31.1868 36.2003 31.2886C36.6049 31.5543 37.0666 31.7449 37.8813 32.1533C38.5602 32.4932 38.9407 31.7716 38.707 31.2964" stroke="black" stroke-width="0.564931" stroke-linecap="round" stroke-linejoin="round"/>
<path d="M41.3816 32.1455C41.6075 31.8261 41.9019 31.7044 42.0749 31.8028C42.3837 31.9791 42.4095 32.8778 41.4517 34.7708C40.4308 36.7884 39.7142 37.3587 39.364 37.248C39.1221 37.1713 39.0836 36.6949 39.2316 36.2119" stroke="black" stroke-width="0.564931" stroke-linecap="round" stroke-linejoin="round"/>
<path d="M42.2056 32.8392C41.6759 32.6211 41.1396 32.232 40.9904 30.6892C40.9178 29.9512 40.8116 29.9016 39.7604 29.3883C38.5304 28.7876 38.5997 28.8962 37.6726 31.0787C37.4447 31.6154 38.2803 32.1693 39.2462 30.6113C38.4906 31.8031 38.6312 32.9893 39.3241 33.7428" stroke="black" stroke-width="0.564931" stroke-linecap="round" stroke-linejoin="round"/>
<path d="M79.9251 9.21983C79.848 10.1936 78.6668 10.2247 78.6709 9.28215C78.6738 8.58105 78.7037 8.08247 78.7332 7.52159C78.7824 6.58679 80.0292 6.59458 80.0575 7.36579C80.0756 7.83319 79.9969 8.32398 79.9251 9.21983Z" stroke="black" stroke-width="0.564931" stroke-linecap="round" stroke-linejoin="round"/>
<path d="M75.961 8.50349C75.9532 8.16073 75.9586 7.91061 75.9532 7.58343C75.9389 6.69537 77.2042 6.65519 77.262 7.39647C77.2886 7.77512 77.2886 8.15515 77.262 8.53383" stroke="black" stroke-width="0.564931" stroke-linecap="round" stroke-linejoin="round"/>
<path d="M81.2668 9.44497C81.1693 10.3958 80.0241 10.3954 80.0594 9.47613C80.0856 8.7984 80.1283 8.31542 80.1684 7.77791C80.2361 6.87591 81.446 6.91322 81.446 7.65491C81.446 8.10509 81.3558 8.58069 81.2668 9.44497Z" stroke="black" stroke-width="0.564931" stroke-linecap="round" stroke-linejoin="round"/>
<path d="M77.293 8.52643C77.3008 8.1603 77.3315 7.84868 77.3397 7.49813C77.3619 6.54775 78.6308 6.53217 78.6796 7.31117C78.7095 7.78636 78.6406 8.28494 78.5939 9.19719C78.5968 9.33323 78.5562 9.46664 78.4775 9.57763C78.3983 9.68862 78.286 9.77123 78.1564 9.81322C78.0273 9.8552 77.8875 9.8543 77.7587 9.81072C77.6296 9.76709 77.5185 9.68304 77.441 9.57111" stroke="black" stroke-width="0.564931" stroke-linecap="round" stroke-linejoin="round"/>
<path d="M76.8575 12.3666C76.468 12.429 76.2188 12.6159 76.2188 12.8107C76.2188 13.1612 76.9744 13.5807 79.0855 13.5429C81.329 13.5019 82.1789 13.1067 82.256 12.7484C82.3114 12.4913 81.9834 12.2564 81.4926 12.1797" stroke="black" stroke-width="0.564931" stroke-linecap="round" stroke-linejoin="round"/>
<path d="M77.052 13.3792C77.1221 12.8106 77.0491 12.1681 75.7978 11.3616C75.1967 10.9742 75.2053 10.8553 75.2837 9.69458C75.3763 8.32354 75.4321 8.43916 77.7765 8.55724C78.3529 8.58635 78.4152 9.57773 76.5924 9.76469C77.9946 9.60889 78.9527 10.2477 79.2574 11.1903" stroke="black" stroke-width="0.564931" stroke-linecap="round" stroke-linejoin="round"/>
<path d="M81.4537 13.2782C81.4069 11.6735 81.5767 9.08722 81.4537 7.84082" stroke="black" stroke-width="0.564931" stroke-linecap="round" stroke-linejoin="round"/>
<path d="M76.2182 12.8184C76.2338 14.7659 76.2182 19.7515 76.0858 22.0807C75.4708 22.4858 70.6176 24.9097 68.5373 25.8744C66.6541 26.7481 65.0621 26.5673 64.3204 25.3799C63.2954 23.7399 65.0457 20.9819 65.7554 19.4009C66.2773 18.2402 65.4828 17.9286 64.8907 18.5129C64.8907 17.9909 64.2052 17.804 63.8391 18.3804C63.8001 17.8819 62.99 17.7654 62.6005 18.4427C62.507 17.913 61.6033 18.0299 61.2839 18.6297C61.1905 18.1623 60.4168 18.4247 60.279 19.1283C59.0421 25.4263 59.787 26.4673 62.7173 25.0175C62.468 25.6281 62.049 26.1546 61.5099 26.5345" stroke="black" stroke-width="0.564931" stroke-linecap="round" stroke-linejoin="round"/>
<path d="M82.2556 12.7559C82.2556 23.732 82.3749 24.2707 81.796 25.3523C81.0281 26.7873 79.5136 27.6815 67.9766 34.0927C68.0934 35.7052 68.257 37.6293 68.257 38.9614" stroke="black" stroke-width="0.564931" stroke-linecap="round" stroke-linejoin="round"/>
<path d="M42.0752 31.803C44.6459 33.3454 48.1358 34.9346 48.5721 35.1371C50.5196 34.3425 56.9611 31.4356 59.6011 29.6997C61.1431 28.6862 61.5875 26.5915 61.5953 25.4697" stroke="black" stroke-width="0.564931" stroke-linecap="round" stroke-linejoin="round"/>
<path d="M59.6025 29.7061C60.623 30.7811 64.5726 30.0341 65.593 26.333" stroke="black" stroke-width="0.564931" stroke-linecap="round" stroke-linejoin="round"/>
<path d="M59.9219 21.161C60.9288 20.8666 61.9731 20.7196 63.0223 20.7247C62.8042 21.5583 62.8993 22.68 63.256 21.9088C63.6127 21.1376 64.5061 21.7321 63.871 22.7112C63.7677 22.9156 63.725 23.1454 63.7488 23.3733C63.7722 23.6011 63.8607 23.8175 64.0034 23.9965" stroke="black" stroke-width="0.564931" stroke-linecap="round" stroke-linejoin="round"/>
<path d="M53.3623 57.3144C56.8834 56.0524 62.6496 53.9204 66.4729 51.6822C68.6393 50.4141 70.7262 46.6187 67.618 41.2203C68.2023 39.1703 69.4019 34.9416 69.996 32.9707" stroke="black" stroke-width="0.564931" stroke-linecap="round" stroke-linejoin="round"/>
<path d="M60.4752 44.3916C47.4191 50.203 45.1317 51.5277 44.7238 53.9656C44.3757 56.0459 45.2613 58.1332 52.989 70.8166C55.139 71.4008 59.1742 70.0999 60.0623 67.7416C57.7409 63.0266 55.326 58.2706 54.5548 56.8901" stroke="black" stroke-width="0.564931" stroke-linecap="round" stroke-linejoin="round"/>
<path d="M58.6914 55.3124C60.0313 59.223 61.7061 65.307 63.5524 66.1639C65.3986 67.0208 66.1153 67.1922 77.6974 67.2233C78.8581 66.3353 78.897 62.0274 77.6974 60.1111C74.6224 59.9397 69.4633 59.8384 68.3649 59.7371C67.8274 57.2443 66.9709 53.3411 66.6429 51.5654" stroke="black" stroke-width="0.564931" stroke-linecap="round" stroke-linejoin="round"/>
<path d="M59.6953 68.4316C60.2468 68.8888 60.7482 69.4033 61.191 69.9663C60.2562 72.5759 56.558 77.5148 53.5179 79.3922C53.3387 77.3746 54.0865 73.2926 55.0369 70.8933" stroke="black" stroke-width="0.564931" stroke-linecap="round" stroke-linejoin="round"/>
<path d="M75.2837 60.0107C76.312 61.1637 76.8184 65.0976 75.1279 67.2165" stroke="black" stroke-width="0.564931" stroke-linecap="round" stroke-linejoin="round"/>
<path d="M51.5869 68.5095C53.9551 69.0314 57.6959 68.0811 58.8939 65.3779" stroke="black" stroke-width="0.564931" stroke-linecap="round" stroke-linejoin="round"/>
<path d="M53.4873 78.2544C54.9986 77.3041 58.8936 73.6895 60.7008 69.3984" stroke="black" stroke-width="0.564931" stroke-linecap="round" stroke-linejoin="round"/>
<path d="M78.0332 60.7889C78.5014 60.7344 78.975 60.7344 79.4432 60.7889C80.7597 61.8549 84.4366 66.2653 84.4833 70.2149C82.3644 69.9279 79.2095 67.8389 78.1968 66.4912" stroke="black" stroke-width="0.564931" stroke-linecap="round" stroke-linejoin="round"/>
<path d="M78.7734 60.7588C80.2084 62.0831 83.6811 66.8268 83.8369 70.0834" stroke="black" stroke-width="0.564931" stroke-linecap="round" stroke-linejoin="round"/>
<path d="M55.4121 35.1367C55.6146 37.5594 56.4781 44.1264 56.6421 46.105" stroke="black" stroke-width="0.564931" stroke-linecap="round" stroke-linejoin="round"/>
<path d="M67.6181 41.2207C63.209 41.2519 59.5789 42.3425 56.4551 44.2588" stroke="black" stroke-width="0.564931" stroke-linecap="round" stroke-linejoin="round"/>
<path d="M56.2913 67.8932C54.5931 64.598 51.072 57.0807 50.3164 55.5071C53.8375 53.731 62.7882 50.0073 64.3306 49.0492C65.873 48.091 66.4807 46.8602 64.8448 41.3916" stroke="black" stroke-width="0.564931" stroke-linecap="round" stroke-linejoin="round"/>
<path d="M39.3721 37.25C46.7492 41.7116 47.9337 42.1954 49.7795 41.6883C51.8693 41.067 53.9064 40.2803 55.8713 39.3357" stroke="black" stroke-width="0.564931" stroke-linecap="round" stroke-linejoin="round"/>
<path d="M50.457 41.4933C52.5378 40.1145 54.7727 37.7152 55.5751 36.7578" stroke="black" stroke-width="0.564931" stroke-linecap="round" stroke-linejoin="round"/>
<path d="M59.4307 57.5484C60.3499 56.4578 63.0063 53.8871 63.9644 53.0146" stroke="black" stroke-width="0.564931" stroke-linecap="round" stroke-linejoin="round"/>
<path d="M29.7979 23.3271L30.068 24.8544" stroke="black" stroke-width="0.564931" stroke-linecap="round" stroke-linejoin="round"/>
<path d="M33.2948 25.7734L31.7676 26.0436" stroke="black" stroke-width="0.564931" stroke-linecap="round" stroke-linejoin="round"/>
<path d="M30.8493 29.2704L30.5791 27.7432" stroke="black" stroke-width="0.564931" stroke-linecap="round" stroke-linejoin="round"/>
<path d="M27.3516 26.8239L28.8796 26.5537" stroke="black" stroke-width="0.564931" stroke-linecap="round" stroke-linejoin="round"/>
<path d="M31.7681 26.0439C31.5785 26.0775 31.3841 26.0733 31.196 26.0317C31.0081 25.9901 30.8301 25.9118 30.6724 25.8013C30.5146 25.6909 30.3802 25.5503 30.2769 25.3879C30.1735 25.2254 30.1031 25.0442 30.0699 24.8545C30.1037 25.0442 30.0998 25.2387 30.0583 25.427C30.0168 25.6152 29.9387 25.7933 29.8282 25.9512C29.7178 26.1092 29.5772 26.2437 29.4146 26.3472C29.2521 26.4507 29.0707 26.5211 28.8809 26.5544C29.0705 26.5206 29.265 26.5245 29.4531 26.566C29.6412 26.6075 29.8193 26.6858 29.9772 26.7962C30.135 26.9067 30.2695 27.0472 30.3729 27.2097C30.4763 27.3723 30.5467 27.5536 30.5799 27.7434C30.5462 27.5537 30.5501 27.3593 30.5916 27.1712C30.633 26.9832 30.7112 26.8051 30.8216 26.6473C30.9319 26.4894 31.0723 26.3548 31.2348 26.2513C31.3972 26.1478 31.5784 26.0773 31.7681 26.0439Z" stroke="black" stroke-width="0.564931" stroke-linecap="round" stroke-linejoin="round"/>
<path d="M84.1152 51.4622L86.3067 51.0752" stroke="black" stroke-width="0.564931" stroke-linecap="round" stroke-linejoin="round"/>
<path d="M41.1714 15.4043C40.852 15.9885 40.5638 16.5572 40.2989 17.0947C38.2034 21.4182 37.7906 24.2771 37.7979 26.4116C37.8057 27.4632 37.907 28.3357 37.9619 29.1303V29.1381C38.11 29.2238 38.2489 29.3094 38.4216 29.4107C38.7332 28.9187 38.9902 29.0134 39.7536 29.3873C40.8053 29.9015 40.9066 29.9482 40.9836 30.6883C40.9914 30.7818 40.9992 30.8674 41.0148 30.9531C41.7471 30.5403 42.5806 30.1274 43.531 29.5181C45.3305 28.3574 47.4961 26.4567 49.9655 22.3358C50.2771 21.8138 50.5965 21.2698 50.9159 20.6765L41.1714 15.4043ZM44.3186 23.9343L43.82 26.3025L42.7389 24.1369L40.3395 24.4095L42.0615 22.7035L41.0644 20.499L43.2145 21.606L44.9984 19.9856L44.6089 22.3772L46.7122 23.569L44.3186 23.9343Z" stroke="black" stroke-width="0.564931" stroke-linejoin="round"/>
<path d="M37.9622 35.4712C37.9778 34.7623 38.3128 34.0067 38.8642 32.9784C38.7496 32.5983 38.7205 32.1975 38.7791 31.8047C38.8377 31.412 38.9826 31.0371 39.2033 30.707C39.0635 30.9231 38.9008 31.1234 38.7179 31.3044C38.9516 31.7796 38.5698 32.5041 37.8921 32.1613L37.9856 32.3093C38.8113 32.7767 38.266 33.8362 37.3858 33.4163L37.5498 33.5643C38.3599 33.9928 37.8536 35.0288 36.9811 34.6471C36.5994 34.4758 36.2878 34.3511 36.0307 34.2421C35.3608 34.7796 34.5272 34.9042 33.1406 34.7095L39.1545 37.9657C38.2972 36.9903 37.9389 36.258 37.9622 35.4712Z" stroke="black" stroke-width="0.564931" stroke-linejoin="round"/>
<path d="M32.945 34.6035L31.4805 36.5199L38.5616 40.3603L39.3717 38.0856L32.945 34.6035Z" stroke="black" stroke-width="0.564931" stroke-linejoin="round"/>
</svg>
