<svg width="180" height="136" viewBox="0 0 180 136" fill="none" xmlns="http://www.w3.org/2000/svg">
<rect x="1" y="1" width="178" height="134" rx="27" fill="#FFC4D2"/>
<rect x="1" y="1" width="178" height="134" rx="27" stroke="black" stroke-width="2"/>
<path d="M97.9724 68.9336L93.2684 67.8118L72.8727 46.7432C69.7192 48.3167 67.1203 50.8143 65.4226 53.9028L74.005 63.224L64.1367 60.872C62.185 63.8998 61.346 67.0832 61.7847 70.4576L86.8114 77.1248C88.9066 79.3966 89.9127 80.6825 91.9095 81.8288C93.9615 83.0052 97.3004 84.3118 100.994 83.3451C101.457 83.2822 99.4681 73.2315 97.9724 68.9336Z" fill="#09AFF4"/>
<path d="M109.856 35.0872L107.275 29.6791C107.091 29.2909 106.831 28.9429 106.513 28.6549C106.193 28.3669 105.821 28.1446 105.416 28.0006C105.011 27.8566 104.582 27.7938 104.153 27.8158C103.724 27.8378 103.303 27.9441 102.915 28.1287L100.252 29.3959L105.642 40.7148L108.305 39.4471C108.694 39.2634 109.043 39.0048 109.332 38.686C109.62 38.3672 109.843 37.9945 109.987 37.5894C110.131 37.1842 110.193 36.7546 110.171 36.3252C110.149 35.8958 110.042 35.4751 109.856 35.0872ZM106.6 35.7712C106.6 35.7954 106.59 35.8186 106.573 35.8357C106.556 35.8528 106.533 35.8624 106.509 35.8624C106.485 35.8624 106.461 35.8528 106.444 35.8357C106.427 35.8186 106.418 35.7954 106.418 35.7712V33.7274L105.059 34.3293C105.045 34.3343 105.03 34.336 105.015 34.3344C105.001 34.3327 104.987 34.3277 104.974 34.3198C104.962 34.3119 104.952 34.3012 104.944 34.2886C104.936 34.276 104.932 34.2619 104.931 34.2472V32.0685C104.931 32.0443 104.94 32.0211 104.957 32.004C104.974 31.9869 104.998 31.9773 105.022 31.9773C105.046 31.9773 105.069 31.9869 105.086 32.004C105.103 32.0211 105.113 32.0443 105.113 32.0685V34.1114L106.472 33.5095C106.486 33.504 106.5 33.5019 106.515 33.5035C106.529 33.5051 106.542 33.5103 106.554 33.5186C106.567 33.5262 106.578 33.5368 106.586 33.5495C106.594 33.5622 106.599 33.5766 106.6 33.5916V35.7712Z" fill="#09AFF4"/>
<path d="M117.228 59.6777C117.281 59.8989 117.287 60.1288 117.246 60.3526C117.876 60.072 118.451 59.6796 118.942 59.1943C118.385 59.4044 117.812 59.5661 117.228 59.6777Z" fill="#E9E9E9"/>
<path d="M99.2511 67.6036C98.2205 65.1047 96.1042 60.8908 94.2529 61.3742C93.0399 61.6934 92.5109 64.0007 92.6933 67.2302L93.2588 67.8138L97.9652 68.9356C97.7885 68.3582 97.5437 67.8042 97.2356 67.2849C97.8725 67.403 98.5925 67.5033 99.2511 67.6036Z" fill="#E9E9E9"/>
<path d="M64.7206 38.2168C63.9362 39.6126 63.6262 44.6286 62.8236 47.3282C62.5123 48.3221 62.3105 49.347 62.2217 50.3848C62.6525 51.0958 63.2016 51.728 63.845 52.2544C64.6806 50.1759 65.8857 48.2659 67.4018 46.6168C66.4697 44.2173 66.6852 41.4914 64.7206 38.2168Z" fill="#E9E9E9"/>
<path d="M59.887 63.2889C57.7659 61.7154 56.611 59.3927 53.1377 57.6162C53.2198 59.2122 55.6366 63.6263 56.3935 66.3349C56.6573 67.3409 57.0336 68.314 57.5153 69.2356C58.2596 69.6061 59.0617 69.8466 59.887 69.9469C59.4886 67.7455 59.4886 65.4903 59.887 63.2889Z" fill="#E9E9E9"/>
<path d="M109.812 59.6592C109.529 62.3222 110.943 62.8603 112.365 60.6259C111.472 60.4303 110.611 60.1046 109.812 59.6592Z" fill="#E9E9E9"/>
<path d="M111.664 55.2084C112.12 55.4273 112.868 55.6097 113.05 55.482L113.324 54.8162C112.886 54.2873 112.22 54.6089 111.664 55.2084Z" fill="#E9E9E9"/>
<path d="M120.768 53.6129C120.367 52.1288 119.263 50.3571 116.728 48.1592C116.156 50.3382 115.715 52.5491 115.405 54.7803C116.604 54.4826 117.836 54.3415 119.072 54.3608C119.181 54.1237 119.411 54.3752 119.701 55.2089C119.71 55.2363 119.737 55.3093 119.765 55.4009C119.823 55.3814 119.886 55.3752 119.947 55.3827C119.92 55.0088 119.875 54.5984 119.819 54.1515C119.551 51.9987 120.179 51.6997 120.75 53.8597C120.786 53.9965 120.859 54.3704 120.942 54.8264C120.933 54.4164 120.875 54.0089 120.768 53.6129Z" fill="#E9E9E9"/>
<path d="M119.544 69.1172L119.088 72.2453C119.088 72.2453 120.447 70.5125 120.921 69.7013L119.544 69.1172Z" fill="#E9E9E9"/>
<path d="M71.7531 92.0637L81.1654 93.8969L72.3459 86.0445L62.9336 84.2109L71.7531 92.0637Z" fill="#E9E9E9"/>
<path d="M81.1471 93.8977L89.921 88.143L79.6332 86.8936L75.9756 89.2921L81.1471 93.8977Z" fill="#E9E9E9"/>
<path d="M71.7521 92.0628L81.1645 93.8959L72.3449 86.0436L62.9326 84.21L71.7521 92.0628Z" stroke="black" stroke-width="0.564931" stroke-linejoin="round"/>
<path d="M81.1461 93.8967L89.9201 88.142L79.6322 86.8926L75.9746 89.2911L81.1461 93.8967Z" stroke="black" stroke-width="0.564931" stroke-linejoin="round"/>
<path d="M79.6592 53.7484C83.0742 52.3779 86.7725 51.8634 90.4318 52.2497C94.0913 52.636 97.6006 53.9113 100.654 55.9645" stroke="black" stroke-width="0.564931" stroke-linecap="round" stroke-linejoin="round"/>
<path d="M69.3721 62.1201C69.8742 61.3719 70.4191 60.6532 71.0041 59.9678" stroke="black" stroke-width="0.564931" stroke-linecap="round" stroke-linejoin="round"/>
<path d="M65.7957 71.5254C65.6566 72.5502 65.5865 73.5832 65.586 74.6171C65.5785 78.3299 66.495 81.986 68.2518 85.2553" stroke="black" stroke-width="0.564931" stroke-linecap="round" stroke-linejoin="round"/>
<path d="M110.031 79.5498C109.203 83.2333 107.462 86.649 104.968 89.4829C102.474 92.3168 99.3061 94.4773 95.7579 95.7656C92.2093 97.054 88.3934 97.4284 84.662 96.8548C81.0264 96.2956 77.5847 94.8536 74.6377 92.6572" stroke="black" stroke-width="0.564931" stroke-linecap="round" stroke-linejoin="round"/>
<path d="M110.322 31.7771C111.718 30.9016 113.579 30.4629 115.165 31.0293C117.793 31.9672 119.118 35.116 118.467 37.7325C117.859 40.1776 115.923 42.3026 114.609 44.3906C112.393 47.9119 111.489 50.5288 112.794 54.5507" stroke="black" stroke-width="0.564931" stroke-linecap="round" stroke-linejoin="round"/>
<path d="M108.134 31.4667L109.256 33.8105L110.049 33.4265C110.264 33.322 110.429 33.1373 110.509 32.9122C110.589 32.6871 110.578 32.4395 110.478 32.2227L110.142 31.5113C110.037 31.2964 109.853 31.131 109.628 31.0509C109.402 30.9707 109.155 30.9821 108.938 31.0827L108.134 31.4667Z" stroke="black" stroke-width="0.564931" stroke-linecap="round" stroke-linejoin="round"/>
<path d="M105.652 40.7154L100.262 29.3965L94.917 31.9414L100.307 43.2598L105.652 40.7154Z" stroke="black" stroke-width="0.564931" stroke-linecap="round" stroke-linejoin="round"/>
<path d="M109.867 35.0876L107.286 29.6703C107.101 29.2822 106.842 28.9341 106.523 28.6462C106.204 28.3582 105.832 28.1358 105.427 27.9918C105.022 27.8478 104.593 27.785 104.164 27.807C103.735 27.829 103.314 27.9353 102.926 28.1199L100.263 29.3962L105.653 40.7151L108.316 39.4474C108.704 39.263 109.052 39.0039 109.34 38.685C109.628 38.366 109.85 37.9935 109.994 37.5887C110.138 37.1838 110.201 36.7545 110.179 36.3254C110.157 35.8962 110.051 35.4756 109.867 35.0876Z" stroke="black" stroke-width="0.564931" stroke-linecap="round" stroke-linejoin="round"/>
<path d="M105.015 32.0742V34.2043L106.5 33.6043V35.7792" stroke="black" stroke-width="0.564931" stroke-linecap="round" stroke-linejoin="round"/>
<path d="M100.309 43.2588L94.9185 31.9404L89.5742 34.4849L94.9641 45.8033L100.309 43.2588Z" stroke="black" stroke-width="0.564931" stroke-linecap="round" stroke-linejoin="round"/>
<path d="M85.523 40.0409C85.3385 39.6528 85.2322 39.2322 85.2103 38.803C85.1884 38.3738 85.2512 37.9446 85.3953 37.5397C85.5393 37.1349 85.7617 36.7623 86.0497 36.4434C86.3377 36.1245 86.6857 35.8655 87.0739 35.681L89.5727 34.4863L94.9627 45.8047L92.4638 46.9994C92.0759 47.184 91.655 47.2903 91.2259 47.3123C90.7967 47.3342 90.3676 47.2715 89.9628 47.1275C89.558 46.9835 89.1855 46.7612 88.8667 46.4732C88.5477 46.1852 88.2887 45.8372 88.1044 45.449L85.523 40.0409Z" stroke="black" stroke-width="0.564931" stroke-linecap="round" stroke-linejoin="round"/>
<path d="M86.8099 77.1249L61.7755 70.4577C61.3378 67.0833 62.1768 63.8999 64.1275 60.8721L74.005 63.2241" stroke="black" stroke-width="0.564931" stroke-linecap="round" stroke-linejoin="round"/>
<path d="M97.9649 68.9333L93.2676 67.8115" stroke="black" stroke-width="0.564931" stroke-linecap="round" stroke-linejoin="round"/>
<path d="M100.545 80.0063C98.9655 80.3058 97.334 80.1637 95.8296 79.5959C93.8775 78.8951 92.1336 77.7133 90.7589 76.16L67.7568 50.624" stroke="black" stroke-width="0.564931" stroke-linecap="round" stroke-linejoin="round"/>
<path d="M61.8018 66.8447L82.1586 72.0796" stroke="black" stroke-width="0.564931" stroke-linecap="round" stroke-linejoin="round"/>
<path d="M115.403 54.8057C114.8 59.6124 115.941 60.3876 118.932 59.1929" stroke="black" stroke-width="0.564931" stroke-linecap="round" stroke-linejoin="round"/>
<path d="M96.9598 71.6336L72.8677 46.7471C69.7168 48.3206 67.1202 50.8169 65.4238 53.9034L88.964 79.4682C89.8152 80.4023 90.8057 81.1991 91.9006 81.8303C93.9569 83.0101 97.2973 84.3133 100.994 83.3466" stroke="black" stroke-width="0.564931" stroke-linecap="round" stroke-linejoin="round"/>
<path d="M114.371 60.6515C117.545 62.2835 117.272 59.8398 117.272 59.8398L117.253 59.6699" stroke="black" stroke-width="0.564931" stroke-linecap="round" stroke-linejoin="round"/>
<path d="M117.107 60.7158C116.651 62.8134 107.923 68.2403 95.0898 61.4637" stroke="black" stroke-width="0.564931" stroke-linecap="round" stroke-linejoin="round"/>
<path d="M92.6924 67.2285C92.51 63.9995 93.0385 61.6912 94.2519 61.3725C96.1028 60.8872 98.2196 65.1026 99.2501 67.6019C98.6391 67.4742 97.8913 67.3648 97.2341 67.2827" stroke="black" stroke-width="0.564931" stroke-linecap="round" stroke-linejoin="round"/>
<path d="M64.7195 38.2166C64.4732 37.7971 64.2635 37.559 64.1084 37.5782C63.1408 37.6992 62.8964 43.188 62.0747 45.9417C61.7746 46.873 61.5933 47.8384 61.5352 48.815C61.655 49.3792 61.8882 49.9132 62.2205 50.3846C62.303 49.3463 62.505 48.321 62.8225 47.3289C63.6246 44.6285 63.9352 39.6125 64.7195 38.2166Z" stroke="black" stroke-width="0.564931" stroke-linecap="round" stroke-linejoin="round"/>
<path d="M67.4009 46.6158C66.7807 45.0198 66.6924 43.551 66.2882 42.0376C65.9287 40.7026 65.4016 39.4185 64.7196 38.2158C63.9353 39.6117 63.6204 44.6262 62.8226 47.3272C62.5106 48.3209 62.3088 49.346 62.2207 50.3838C62.6516 51.0948 63.2006 51.727 63.8441 52.2534C64.6795 50.1749 65.8845 48.2649 67.4009 46.6158Z" stroke="black" stroke-width="0.564931" stroke-linecap="round" stroke-linejoin="round"/>
<path d="M63.8447 52.2529L65.4225 53.9037" stroke="black" stroke-width="0.564931" stroke-linecap="round" stroke-linejoin="round"/>
<path d="M67.4014 46.6152L69.4903 48.9596" stroke="black" stroke-width="0.564931" stroke-linecap="round" stroke-linejoin="round"/>
<path d="M53.1356 57.6157C52.707 57.3964 52.3969 57.3056 52.2783 57.406C51.5315 58.0362 54.2396 62.7983 55.0235 65.5592C55.2702 66.5057 55.6316 67.4186 56.0996 68.2775C56.5001 68.6927 56.9811 69.0215 57.5132 69.2442C57.0313 68.3226 56.6551 67.3495 56.3915 66.3436C55.6407 63.6244 53.2191 59.2117 53.1356 57.6157Z" stroke="black" stroke-width="0.564931" stroke-linecap="round" stroke-linejoin="round"/>
<path d="M59.886 63.2874C58.5089 62.2659 57.6415 61.0722 56.502 60.0133C55.4854 59.0753 54.3547 58.269 53.1367 57.6133C53.2188 59.2093 55.6327 63.6243 56.3926 66.332C56.6559 67.3381 57.0322 68.311 57.5143 69.2326C58.2587 69.6032 59.0607 69.8437 59.886 69.944C59.4877 67.743 59.4877 65.4884 59.886 63.2874Z" stroke="black" stroke-width="0.564931" stroke-linecap="round" stroke-linejoin="round"/>
<path d="M59.8955 69.9463L61.7742 70.457" stroke="black" stroke-width="0.564931" stroke-linecap="round" stroke-linejoin="round"/>
<path d="M59.8867 63.2881L62.5224 64.045" stroke="black" stroke-width="0.564931" stroke-linecap="round" stroke-linejoin="round"/>
<path d="M123.711 80.7906C123.98 81.3714 124.07 82.019 123.971 82.6511C123.872 83.2833 123.587 83.8718 123.154 84.3426C122.72 84.813 122.157 85.1442 121.534 85.2945C120.912 85.4447 120.26 85.4073 119.659 85.1865C119.059 84.9662 118.536 84.5721 118.16 84.0551C117.783 83.5377 117.568 82.9204 117.542 82.281C117.515 81.6417 117.68 81.009 118.013 80.4628C118.347 79.9166 118.835 79.4817 119.416 79.2129C119.801 79.0338 120.218 78.9326 120.643 78.9148C121.068 78.8975 121.492 78.9638 121.891 79.1102C122.29 79.257 122.656 79.4807 122.969 79.7692C123.281 80.0577 123.533 80.4047 123.711 80.7906Z" stroke="black" stroke-width="0.564931" stroke-linecap="round" stroke-linejoin="round"/>
<path d="M119.854 80.1523L120.775 82.1496L122.735 81.2467" stroke="black" stroke-width="0.564931" stroke-linecap="round" stroke-linejoin="round"/>
<path d="M113.323 54.8157C113.239 54.7126 113.128 54.6339 113.004 54.5877C112.188 54.2906 110.943 55.7277 110.24 57.7711C109.538 59.8145 109.639 61.6985 110.468 61.9845C111.016 62.1737 111.736 61.6106 112.374 60.6257" stroke="black" stroke-width="0.564931" stroke-linecap="round" stroke-linejoin="round"/>
<path d="M113.004 54.5866C110.671 54.0423 108.366 53.3787 106.101 52.5985C103.492 51.6951 99.1319 53.0636 101.239 58.0618C102.27 60.506 105.252 63.3058 107.642 64.7559" stroke="black" stroke-width="0.564931" stroke-linecap="round" stroke-linejoin="round"/>
<path d="M110.468 61.984L103.992 58.71" stroke="black" stroke-width="0.564931" stroke-linecap="round" stroke-linejoin="round"/>
<path d="M115.949 59.3848C115.748 59.6401 115.549 59.8878 115.356 60.1048C114.469 61.1046 112.146 60.9347 109.802 59.667" stroke="black" stroke-width="0.564931" stroke-linecap="round" stroke-linejoin="round"/>
<path d="M113.031 55.4624C112.849 55.5992 112.119 55.4168 111.663 55.207" stroke="black" stroke-width="0.564931" stroke-linecap="round" stroke-linejoin="round"/>
<path d="M114.599 54.268C114.608 54.1677 114.627 53.5 114.636 53.4108C114.681 51.8056 114.312 52.0807 113.742 53.73C113.258 55.0387 112.704 56.3206 112.082 57.57" stroke="black" stroke-width="0.564931" stroke-linecap="round" stroke-linejoin="round"/>
<path d="M116.05 51.0485C115.895 50.483 115.44 50.9577 115.065 52.3982C114.756 53.5843 114.517 54.6062 114.28 55.3805" stroke="black" stroke-width="0.564931" stroke-linecap="round" stroke-linejoin="round"/>
<path d="M115.366 55.1436C114.844 55.1558 114.335 55.3137 113.897 55.5996" stroke="black" stroke-width="0.564931" stroke-linecap="round" stroke-linejoin="round"/>
<path d="M128.563 70.4959L122.131 67.1306C122.642 64.3303 124.256 61.5487 126.547 60.1533C126.547 60.1533 131.818 63.5834 134.546 66.328C137.239 69.0381 135.074 74.7804 128.59 73.1407C126.451 72.5964 123.615 70.9236 120.92 69.6967C115.404 78.5287 105.125 81.8959 101.912 83.0637C101.603 83.1756 101.296 83.2692 100.991 83.3488C101.529 83.2759 98.6835 69.365 97.2334 67.2856C100.827 67.997 111.835 69.3285 119.15 61.8136" stroke="black" stroke-width="0.564931" stroke-linecap="round" stroke-linejoin="round"/>
<path d="M122.809 57.7699C122.809 57.7699 123.374 56.3554 124.105 56.0899C124.889 55.8067 123.51 58.3795 123.585 59.8114C123.612 60.3221 125.254 61.152 125.254 61.152" stroke="black" stroke-width="0.564931" stroke-linecap="round" stroke-linejoin="round"/>
<path d="M121.841 54.1039C121.777 53.2923 121.91 50.6734 122.525 53.2102C122.642 53.8921 122.718 54.5803 122.753 55.2713C122.883 56.4211 122.862 57.5831 122.689 58.7273" stroke="black" stroke-width="0.564931" stroke-linecap="round" stroke-linejoin="round"/>
<path d="M120 56.0823C119.963 55.982 119.744 55.3623 119.717 55.2706C119.17 53.7658 118.921 54.158 119.006 55.8999C119.077 57.3687 118.926 59.5119 118.896 60.0865C118.786 62.2302 119.744 62.8498 122.681 65.0842" stroke="black" stroke-width="0.564931" stroke-linecap="round" stroke-linejoin="round"/>
<path d="M121.203 56.6117C121.085 55.5811 120.837 54.2117 120.756 53.9122C120.185 51.7546 119.554 52.0608 119.826 54.204C119.982 55.4261 119.999 56.3472 120.072 57.1594" stroke="black" stroke-width="0.564931" stroke-linecap="round" stroke-linejoin="round"/>
<path d="M120.774 53.9758C120.765 49.7998 121.59 51.5585 121.814 53.8846C121.916 54.9334 122.033 55.7086 122.051 56.3287" stroke="black" stroke-width="0.564931" stroke-linecap="round" stroke-linejoin="round"/>
<path d="M120.776 53.6503C120.392 52.1556 119.283 50.3743 116.726 48.1572C116.155 50.3362 115.713 52.5471 115.403 54.7783C116.602 54.4806 117.835 54.3396 119.07 54.3588" stroke="black" stroke-width="0.564931" stroke-linecap="round" stroke-linejoin="round"/>
<path d="M115.138 62.7676C115.694 63.2783 116.232 63.7276 117.865 63.0138" stroke="black" stroke-width="0.564931" stroke-linecap="round" stroke-linejoin="round"/>
<path d="M118.941 59.1934C118.568 59.7406 117.245 60.3516 117.245 60.3516" stroke="black" stroke-width="0.564931" stroke-linecap="round" stroke-linejoin="round"/>
<path d="M132.438 46.4425C132.356 46.9076 129.867 46.8265 126.875 46.2601C123.884 45.6937 121.53 44.8647 121.612 44.3996C121.695 43.9345 124.184 44.0156 127.176 44.582C130.168 45.1484 132.52 45.9773 132.438 46.4425Z" stroke="black" stroke-width="0.564931" stroke-linecap="round" stroke-linejoin="round"/>
<path d="M129.822 50.3009C129.43 50.538 127.858 48.5517 126.311 45.8498C124.764 43.1479 123.83 40.77 124.222 40.5329C124.614 40.2957 126.184 42.2839 127.734 44.9834C129.284 47.6829 130.215 50.0637 129.822 50.3009Z" stroke="black" stroke-width="0.564931" stroke-linecap="round" stroke-linejoin="round"/>
<path d="M44.3994 78.8752L49.1332 82.961L50.3826 74.415" stroke="black" stroke-width="0.564931" stroke-linecap="round" stroke-linejoin="round"/>
<path d="M76.2297 33.8739C76.2234 34.0715 76.1586 34.2628 76.0436 34.4236C75.9286 34.5844 75.7685 34.7074 75.5835 34.7772C75.3986 34.847 75.197 34.8603 75.0045 34.8155C74.8119 34.7707 74.637 34.6699 74.5018 34.5257C74.3666 34.3815 74.2771 34.2004 74.2449 34.0053C74.2126 33.8103 74.2389 33.6101 74.3204 33.43C74.4019 33.2499 74.535 33.098 74.7029 32.9936C74.8708 32.8891 75.0658 32.8369 75.2634 32.8433C75.3945 32.8475 75.5235 32.8775 75.6431 32.9316C75.7626 32.9857 75.8702 33.0628 75.96 33.1585C76.0497 33.2542 76.1197 33.3666 76.166 33.4893C76.2122 33.6121 76.2339 33.7428 76.2297 33.8739Z" stroke="black" stroke-width="0.564931" stroke-linecap="round" stroke-linejoin="round"/>
<path d="M93.0117 104.021L96.9156 108.197" stroke="black" stroke-width="0.564931" stroke-linecap="round" stroke-linejoin="round"/>
<path d="M97.0524 104.156L92.875 108.06" stroke="black" stroke-width="0.564931" stroke-linecap="round" stroke-linejoin="round"/>
<path d="M120.921 69.6935C120.455 69.4818 119.995 69.2836 119.543 69.1064L119.087 72.2437" stroke="black" stroke-width="0.564931" stroke-linecap="round" stroke-linejoin="round"/>
</svg>
