<svg width="119" height="90" viewBox="0 0 119 90" fill="none" xmlns="http://www.w3.org/2000/svg">
<rect x="1" y="1" width="117" height="88" rx="11" fill="#FEC4FF"/>
<rect x="1" y="1" width="117" height="88" rx="11" stroke="black" stroke-width="2"/>
<path d="M38.4426 53.5825C38.3168 53.3114 38.1387 53.0679 37.9185 52.8658C37.6983 52.6636 37.4404 52.507 37.1596 52.4054C36.8787 52.3033 36.5804 52.2573 36.2819 52.2709C35.9834 52.2844 35.6905 52.357 35.4201 52.4841L31.9453 54.1044L34.0642 58.6554C34.6154 58.8997 35.183 59.1052 35.7628 59.2704C34.1343 56.6607 34.7263 56.2089 36.4406 58.0785C38.09 59.8784 40.1252 60.0305 41.4963 60.1589L38.4426 53.5825Z" fill="#09AFF4"/>
<path d="M38.0063 64.5818C37.5619 64.4514 37.0908 64.3087 36.6201 64.1611L38.3183 67.8069C38.0332 66.7573 37.9277 65.6667 38.0063 64.5818Z" fill="#09AFF4"/>
<path d="M39.2072 68.672C38.9747 68.7708 38.732 68.5867 38.584 68.36L39.2617 69.8093L42.6348 68.2354C41.6688 68.3686 39.7759 68.6015 39.2072 68.672Z" fill="#09AFF4"/>
<path d="M33.5898 63.0798C32.9199 62.8149 32.2344 62.5423 31.5878 62.2229C30.7153 61.7944 30.7678 61.3504 31.6189 61.553C31.9305 61.6231 32.2967 61.6698 32.8965 61.7473C32.2103 61.4927 31.5415 61.1934 30.8945 60.8514C30.0142 60.3533 30.1856 59.7764 31.0269 60.0806C31.2528 60.1663 31.7747 60.3295 32.3824 60.4853L32.2889 60.2906C31.8083 60.0175 31.3429 59.7186 30.8949 59.3951C30.0847 58.7715 30.3184 58.2262 31.113 58.6469C31.2299 58.7092 31.409 58.7871 31.6271 58.8806L29.851 55.0635L26.3841 56.6838C26.113 56.8097 25.8694 56.9876 25.6674 57.2078C25.4654 57.4279 25.3088 57.6858 25.2067 57.9667C25.1047 58.2475 25.0591 58.546 25.0726 58.8445C25.0862 59.143 25.1586 59.4357 25.2857 59.7063L30.6764 71.2987C30.8022 71.5697 30.9803 71.8132 31.2005 72.0153C31.4206 72.2171 31.6786 72.3737 31.9594 72.4758C32.2403 72.5779 32.5385 72.6234 32.837 72.6098C33.1355 72.5963 33.4284 72.5241 33.6989 72.397L37.1736 70.7763L33.5898 63.0798Z" fill="#09AFF4"/>
<path d="M57.7944 9.66006L52.4111 11.9196L57.1945 8.56946L55.9559 6.31815C55.9153 6.24502 55.8578 6.18269 55.7881 6.13638C55.7184 6.09007 55.6387 6.06113 55.5555 6.05197C55.4724 6.04282 55.3882 6.05372 55.3102 6.08377C55.2321 6.11381 55.1624 6.16213 55.1068 6.22467L48.6329 13.4308C48.5616 13.5118 48.5169 13.6127 48.5051 13.72C48.4933 13.8273 48.5148 13.9355 48.5667 14.0301C48.6187 14.1247 48.6986 14.2009 48.7955 14.2484C48.8924 14.2959 49.0016 14.3123 49.1081 14.2955L58.6669 12.683C58.749 12.6696 58.8268 12.6367 58.8936 12.5871C58.9605 12.5375 59.0144 12.4726 59.051 12.3979C59.0876 12.3231 59.1058 12.2407 59.104 12.1575C59.1023 12.0743 59.0805 11.9927 59.0408 11.9196L57.7944 9.66006Z" fill="#09AFF4"/>
<path d="M60.7552 49.6249C60.1476 49.9058 60.0074 51.0116 60.2632 52.5466C61.4949 52.4474 62.7138 52.2256 63.9016 51.8845C62.695 50.2641 61.4641 49.2978 60.7552 49.6249Z" fill="#09AFF4"/>
<path d="M66.964 57.9844C65.85 58.8675 64.5413 59.4719 63.1465 59.7474C64.6114 62.0922 66.1694 63.5099 67.0341 63.1049C67.8988 62.7055 67.8209 60.61 66.964 57.9844Z" fill="#E9E9E9"/>
<path d="M96.0601 16.8359C94.1359 18.4952 90.6456 24.0343 89.999 26.0363C90.1159 27.0023 90.2094 27.6878 90.2717 28.2721C91.7063 28.4638 93.1618 28.4349 94.5877 28.1864L94.5722 27.5476C96.2392 22.1024 96.3015 19.765 96.0601 16.8359Z" fill="#E9E9E9"/>
<path d="M72.9383 10.1748C71.5517 12.6598 70.1028 18.3625 69.9863 20.9492C70.3992 21.6109 70.7965 22.2653 71.1782 22.9123C72.2782 21.9335 73.5275 21.1365 74.8789 20.5515C74.903 19.1021 75.0962 16.513 72.9383 10.1748Z" fill="#E9E9E9"/>
<path d="M38.0067 64.583C37.8976 66.8343 38.342 68.642 39.0353 68.6961C39.6913 68.7511 40.3519 67.255 40.6167 65.2296C39.7296 65.0906 38.8562 64.8741 38.0067 64.583Z" fill="#E9E9E9"/>
<path d="M57.1253 72.6377C56.6307 72.8616 56.1849 73.1809 55.8137 73.5774C55.4424 73.9735 55.1529 74.4392 54.9615 74.9472C54.7702 75.4556 54.6808 75.9964 54.6985 76.5393C54.7162 77.0817 54.8406 77.6159 55.0646 78.1104C55.2886 78.6048 55.6079 79.0505 56.0042 79.422C56.4005 79.7934 56.866 80.0829 57.3742 80.2739C57.8824 80.4654 58.4233 80.5548 58.966 80.5372C59.5087 80.5195 60.0428 80.3949 60.5373 80.171L57.1253 72.6377Z" fill="#E9E9E9"/>
<path d="M94.6748 31.3643L94.6982 32.5016C96.0614 32.1658 96.0303 31.6759 94.6748 31.3643Z" fill="#E9E9E9"/>
<path d="M71.1697 27.7884C71.344 28.0906 72.3538 27.8508 73.6469 27.2587C73.421 26.8147 73.1718 26.3567 72.9147 25.8799C71.7228 26.713 70.9934 27.483 71.1697 27.7884Z" fill="#E9E9E9"/>
<path d="M78.1037 23.7842C77.9868 23.5817 77.496 23.6202 76.8027 23.8465L77.4026 24.8748C77.9479 24.384 78.2205 23.9868 78.1037 23.7842Z" fill="#E9E9E9"/>
<path d="M58.1061 56.9238C57.9015 57.5757 57.63 58.2051 57.2959 58.8012L58.1294 59.1989L58.1061 56.9238Z" fill="#E9E9E9"/>
<path d="M53.5099 50.4199L53.136 51.604L52.8867 50.7471L53.5099 50.4199Z" fill="#E9E9E9"/>
<path d="M87.6631 31.9332C87.6631 32.3071 88.7848 32.6187 90.3428 32.7356C90.3662 32.1046 90.374 31.5827 90.3818 31.1309C88.8004 31.2399 87.6631 31.5593 87.6631 31.9332Z" fill="#E9E9E9"/>
<path d="M60.747 42.2868C60.8856 42.1965 61.0036 42.0775 61.0922 41.9377C61.1808 41.7979 61.2386 41.6406 61.2611 41.4766C61.2845 41.3022 61.2685 41.1247 61.2136 40.9574C61.1586 40.7901 61.0668 40.6374 60.9442 40.5107C60.822 40.3841 60.6728 40.2867 60.5075 40.226C60.3423 40.1653 60.1652 40.1428 59.9901 40.1601C60.0959 40.0153 60.1627 39.846 60.1849 39.6681C60.2259 39.3636 60.1447 39.0553 59.9596 38.8102C59.7743 38.5651 59.4997 38.4031 59.1955 38.3594C58.9663 38.3274 58.7328 38.3654 58.5256 38.4685C58.5405 38.4202 58.5509 38.3706 58.5568 38.3205C58.5912 38.0688 58.5422 37.8129 58.4174 37.5917C58.2926 37.3705 58.0988 37.1963 57.8657 37.0956C57.6325 36.9949 57.3728 36.9734 57.1262 37.0342C56.8796 37.095 56.6598 37.2349 56.5002 37.4324C56.5019 37.152 56.4017 36.8806 56.2183 36.6685C56.0349 36.4565 55.7808 36.3182 55.5031 36.2795L55.4252 36.2639C55.1549 36.2264 54.88 36.2856 54.649 36.4309C54.4181 36.5763 54.2459 36.7985 54.1628 37.0585C54.0718 36.8171 53.903 36.6129 53.683 36.4781C53.463 36.3434 53.2044 36.2858 52.948 36.3143C52.6917 36.3429 52.4521 36.4561 52.2672 36.636C52.0823 36.8159 51.9626 37.0523 51.9271 37.3078C51.9206 37.3411 51.918 37.3751 51.9193 37.409C51.7421 37.238 51.5161 37.1264 51.2727 37.0896C51.1217 37.0682 50.968 37.0767 50.8204 37.1149C50.6727 37.1531 50.5341 37.22 50.4125 37.312C50.2908 37.404 50.1886 37.519 50.1116 37.6507C50.0346 37.7823 49.9845 37.9279 49.964 38.079C49.9438 38.2412 49.9574 38.4058 50.0042 38.5624C49.9059 38.515 49.8007 38.4834 49.6926 38.4689C49.4631 38.4371 49.2293 38.4747 49.0214 38.5771C48.8136 38.6794 48.6411 38.8417 48.5264 39.043C48.4117 39.2442 48.3598 39.4753 48.3777 39.7063C48.3956 39.9373 48.4822 40.1576 48.6266 40.3389C48.3536 40.3058 48.0777 40.3708 47.8482 40.5222C47.6187 40.6737 47.4505 40.9019 47.3736 41.1659C47.2968 41.4299 47.3163 41.7126 47.4286 41.9636C47.541 42.2146 47.7389 42.4175 47.987 42.5361C47.7141 42.5725 47.4632 42.7047 47.2788 42.9089C47.0943 43.1132 46.9885 43.3764 46.98 43.6515C46.9716 43.9266 47.0612 44.1957 47.2328 44.4109C47.4043 44.6261 47.6468 44.7733 47.9168 44.8263C47.7207 44.9563 47.5688 45.1429 47.4815 45.3614C47.3941 45.5799 47.3754 45.8198 47.4279 46.049C47.4804 46.2786 47.6015 46.4864 47.7751 46.6451C47.9488 46.8038 48.1667 46.9059 48.3998 46.9374C48.4954 46.9452 48.5913 46.9452 48.6868 46.9374C48.5893 47.0859 48.5255 47.254 48.4999 47.4294C48.4589 47.7341 48.5399 48.0424 48.7252 48.2876C48.9105 48.5323 49.1851 48.6947 49.4892 48.7382C49.721 48.7742 49.9581 48.7361 50.1669 48.6291C50.1096 48.8435 50.1151 49.0698 50.1828 49.2814C50.2505 49.4926 50.3775 49.6799 50.5486 49.8214C50.402 49.0785 50.3967 48.3146 50.5331 47.5697C51.0706 43.6747 53.1038 45.6923 53.501 47.1023C53.5945 47.3515 53.7581 47.3593 54.0463 46.9309C54.6466 46.0428 55.745 47.2269 54.4596 48.4577C54.3272 48.5901 54.2645 49.4938 54.7876 50.4753C54.9569 50.6287 55.1689 50.7262 55.3952 50.7558C55.5544 50.7775 55.7164 50.7656 55.8708 50.7217C56.0253 50.6775 56.169 50.6016 56.2927 50.4991C56.4164 50.3966 56.5175 50.2695 56.5896 50.126C56.6618 49.9825 56.7033 49.8255 56.7118 49.6652C56.8639 49.8177 57.0558 49.9247 57.2656 49.9739C57.4754 50.0231 57.6948 50.0128 57.899 49.944C58.1032 49.8751 58.2841 49.7504 58.4212 49.5844C58.5583 49.4179 58.6461 49.2166 58.6748 49.003C58.6961 48.8439 58.6855 48.6824 58.6437 48.5278C58.808 48.6024 58.9874 48.6377 59.1677 48.6307C59.348 48.6238 59.5242 48.575 59.6823 48.4881C59.8404 48.4011 59.976 48.2785 60.0783 48.1297C60.1808 47.9813 60.2468 47.8107 60.2718 47.632C60.2943 47.4782 60.2849 47.3216 60.2447 47.1715C60.2045 47.0215 60.1344 46.8813 60.0381 46.7595C60.3116 46.7939 60.5879 46.7304 60.8187 46.5795C61.0491 46.4286 61.2185 46.2007 61.2964 45.9362C61.3739 45.6722 61.355 45.3885 61.2431 45.1371C61.1311 44.8853 60.9331 44.6817 60.6847 44.5627C60.9372 44.5304 61.1721 44.4161 61.3538 44.2374C61.5354 44.0587 61.6531 43.8255 61.6896 43.5734C61.7297 43.2786 61.6539 42.9797 61.478 42.7397C61.3025 42.4997 61.0401 42.3373 60.747 42.2868Z" fill="#E9E9E9"/>
<path d="M96.0139 38.7334C97.182 41.3572 97.8179 44.1867 97.8851 47.058C97.9524 49.9293 97.4497 52.7857 96.4054 55.4614C95.3616 58.1366 93.797 60.579 91.8032 62.6458C89.8089 64.7126 87.4244 66.3637 84.7881 67.5031" stroke="black" stroke-width="0.564931" stroke-linecap="round" stroke-linejoin="round"/>
<path d="M79.4824 26.1289C83.5238 26.7444 87.3077 28.492 90.3966 31.1694" stroke="black" stroke-width="0.564931" stroke-linecap="round" stroke-linejoin="round"/>
<path d="M66.5107 28.1541C68.3959 27.2113 70.4086 26.55 72.4857 26.1914" stroke="black" stroke-width="0.564931" stroke-linecap="round" stroke-linejoin="round"/>
<path d="M53.5947 64.832L62.2576 83.9495" stroke="black" stroke-width="0.564931" stroke-linecap="round" stroke-linejoin="round"/>
<path d="M48.952 54.5795L36.7291 27.6248C36.067 26.1898 37.0018 24.9217 38.5676 25.1238L59.7883 27.8971C61.022 28.0586 62.1946 28.5288 63.1979 29.2642C64.2016 29.9996 65.0031 30.9764 65.5283 32.1041L89.5379 83.933" stroke="black" stroke-width="0.564931" stroke-linecap="round" stroke-linejoin="round"/>
<path d="M53.2577 52.0957C50.555 53.9194 47.6146 55.3634 44.519 56.3868C43.0008 56.6049 41.4715 56.7373 39.9385 56.7841" stroke="black" stroke-width="0.564931" stroke-linecap="round" stroke-linejoin="round"/>
<path d="M41.4883 60.1492L38.433 53.5741C38.1775 53.0279 37.7157 52.6052 37.149 52.3994C36.5823 52.1936 35.957 52.2211 35.4105 52.4757L26.3831 56.6901C25.8368 56.9455 25.4142 57.4072 25.2082 57.9738C25.0022 58.5408 25.0295 59.1661 25.2843 59.7126L30.6754 71.3049C30.9308 71.851 31.3926 72.2738 31.9594 72.4796C32.5261 72.6854 33.1514 72.6579 33.6979 72.4033L42.6334 68.2353" stroke="black" stroke-width="0.564931" stroke-linecap="round" stroke-linejoin="round"/>
<path d="M30.8553 54.5951C30.8553 54.5951 24.7848 54.0367 22.2936 52.2659C19.8025 50.4951 21.8713 46.1979 25.0747 48.4795C28.3293 50.7961 30.8553 54.5951 30.8553 54.5951Z" stroke="black" stroke-width="0.564931" stroke-linecap="round" stroke-linejoin="round"/>
<path d="M30.8482 54.595C30.8482 54.595 34.6227 49.8123 35.0548 46.7812C35.487 43.7501 30.947 42.3028 30.3972 46.1879C29.8331 50.1477 30.8482 54.595 30.8482 54.595Z" stroke="black" stroke-width="0.564931" stroke-linecap="round" stroke-linejoin="round"/>
<path d="M53.1229 51.6432L53.5091 50.4132C53.5091 50.4132 49.872 52.8826 50.5412 47.5694C51.0213 43.7564 53.0171 45.6014 53.4792 47.004C53.5875 47.332 53.7195 47.4358 54.0532 46.9385C54.6526 46.05 55.758 47.2414 54.4661 48.4653C54.218 48.7006 54.3127 50.4493 55.7986 51.7219C56.7416 52.5304 59.6624 53.093 63.8924 51.8859" stroke="black" stroke-width="0.564931" stroke-linecap="round" stroke-linejoin="round"/>
<path d="M52.8867 50.7471C53.13 51.7967 53.4771 52.8196 53.9228 53.8008" stroke="black" stroke-width="0.564931" stroke-linecap="round" stroke-linejoin="round"/>
<path d="M55.1917 51.082C54.2487 54.0968 51.4755 57.4465 49.302 60.1734C46.1328 60.4452 42.9434 60.3718 39.79 59.9548" stroke="black" stroke-width="0.564931" stroke-linecap="round" stroke-linejoin="round"/>
<path d="M66.964 57.9834C65.6126 59.056 63.9751 59.7062 62.256 59.8522C60.5368 59.9981 58.8129 59.6332 57.3003 58.8034C56.2059 60.855 54.9896 62.839 53.6578 64.7451C53.2178 65.4085 52.5633 65.9005 51.8038 66.1391C47.6942 67.4011 43.4693 68.2518 39.1914 68.6787" stroke="black" stroke-width="0.564931" stroke-linecap="round" stroke-linejoin="round"/>
<path d="M63.1468 59.7435C64.6117 62.0883 66.1681 63.5028 67.0344 63.101C69.7146 61.8575 63.4781 48.3673 60.7552 49.6235C60.1476 49.9043 60.0074 51.0101 60.2632 52.5452" stroke="black" stroke-width="0.564931" stroke-linecap="round" stroke-linejoin="round"/>
<path d="M87.6627 31.9336C87.7406 34.3329 88.0367 43.0036 88.0367 43.8994C86.6656 44.1098 75.8449 46.7116 75.2295 46.8207" stroke="black" stroke-width="0.564931" stroke-linecap="round" stroke-linejoin="round"/>
<path d="M79.6387 56.3005C96.0686 50.5195 95.7086 50.7926 96.0387 46.2822C96.2482 43.4077 95.9062 35.1654 95.7037 31.9248" stroke="black" stroke-width="0.564931" stroke-linecap="round" stroke-linejoin="round"/>
<path d="M71.1699 27.7881C72.354 29.8758 77.0739 37.6818 77.4958 38.4686C77.0448 38.8036 74.9796 41.0397 73.2728 42.6444" stroke="black" stroke-width="0.564931" stroke-linecap="round" stroke-linejoin="round"/>
<path d="M83.5879 44.8725C86.8052 39.8942 86.1808 38.6565 85.1869 36.5835C83.8995 33.9046 79.6556 26.3159 78.082 23.7607" stroke="black" stroke-width="0.564931" stroke-linecap="round" stroke-linejoin="round"/>
<path d="M72.9383 10.1748C71.5517 12.6598 70.1028 18.3625 69.9863 20.9492C70.3992 21.6109 70.7965 22.2653 71.1782 22.9123C72.2823 21.9388 73.5308 21.1424 74.8789 20.5515C74.8854 19.8315 75.0962 16.513 72.9383 10.1748Z" stroke="black" stroke-width="0.564931" stroke-linecap="round" stroke-linejoin="round"/>
<path d="M36.6797 25.9771C37.1022 24.9891 37.8348 24.1655 38.7668 23.6308C39.6988 23.0961 40.7795 22.8793 41.8457 23.0132L62.6536 25.6929C63.5552 25.8086 64.4125 26.1508 65.1456 26.6877C65.8791 27.2246 66.4641 27.9386 66.8467 28.763L92.4065 83.9343" stroke="black" stroke-width="0.564931" stroke-linecap="round" stroke-linejoin="round"/>
<path d="M40.9757 28.4185C41.2627 29.0417 41.1626 29.7039 40.7498 29.8986C40.3369 30.0934 39.7604 29.7428 39.4722 29.1196C39.184 28.4964 39.2836 27.831 39.6981 27.6395C40.1126 27.4481 40.6887 27.7953 40.9757 28.4185Z" stroke="black" stroke-width="0.564931" stroke-linecap="round" stroke-linejoin="round"/>
<path d="M27.9961 31.7383L30.076 36.2409" stroke="black" stroke-width="0.564931" stroke-linecap="round" stroke-linejoin="round"/>
<path d="M31.2839 32.9463L26.7891 35.034" stroke="black" stroke-width="0.564931" stroke-linecap="round" stroke-linejoin="round"/>
<path d="M87.7705 35.0566C90.4015 35.9205 93.0944 35.8356 95.8651 35.0566" stroke="black" stroke-width="0.564931" stroke-linecap="round" stroke-linejoin="round"/>
<path d="M72.7646 30.5062C75.4678 29.9907 77.9015 28.5356 79.635 26.3984" stroke="black" stroke-width="0.564931" stroke-linecap="round" stroke-linejoin="round"/>
<path d="M57.7944 9.66006L52.4111 11.9196L57.1945 8.56946L55.9559 6.31815C55.9153 6.24502 55.8578 6.18269 55.7881 6.13638C55.7184 6.09007 55.6387 6.06113 55.5555 6.05197C55.4724 6.04282 55.3882 6.05372 55.3102 6.08377C55.2321 6.11381 55.1624 6.16213 55.1068 6.22467L48.6329 13.4308C48.5616 13.5118 48.5169 13.6127 48.5051 13.72C48.4933 13.8273 48.5148 13.9355 48.5667 14.0301C48.6187 14.1247 48.6986 14.2009 48.7955 14.2484C48.8924 14.2959 49.0016 14.3123 49.1081 14.2955L58.6669 12.683C58.749 12.6696 58.8268 12.6367 58.8936 12.5871C58.9605 12.5375 59.0144 12.4726 59.051 12.3979C59.0876 12.3231 59.1058 12.2407 59.104 12.1575C59.1023 12.0743 59.0805 11.9927 59.0408 11.9196L57.7944 9.66006Z" stroke="black" stroke-width="0.564931" stroke-linecap="round" stroke-linejoin="round"/>
<path d="M90.5127 69.9185C94.2679 71.9361 95.0547 66.1789 98.8095 68.1965" stroke="black" stroke-width="0.564931" stroke-linecap="round" stroke-linejoin="round"/>
<path d="M36.5501 59.4723C35.0552 59.1222 33.6231 58.5445 32.3041 57.7585C31.5095 57.3223 31.2114 57.761 31.9847 58.444C32.7008 59.0512 33.4789 59.5818 34.3061 60.0258" stroke="black" stroke-width="0.564931" stroke-linecap="round" stroke-linejoin="round"/>
<path d="M33.5955 59.6193C32.7527 59.3499 31.9279 59.0272 31.126 58.6533C30.3249 58.2306 30.0908 58.7763 30.9079 59.4011C31.8995 60.0768 32.9411 60.6762 34.0239 61.1932" stroke="black" stroke-width="0.564931" stroke-linecap="round" stroke-linejoin="round"/>
<path d="M32.8418 60.6016C32.2306 60.4598 31.6273 60.2855 31.0346 60.0797C30.1969 59.7656 30.0227 60.3503 30.9021 60.8509C31.8324 61.3343 32.8018 61.7382 33.8 62.0584" stroke="black" stroke-width="0.564931" stroke-linecap="round" stroke-linejoin="round"/>
<path d="M40.6165 65.2288C40.3984 65.2989 36.5731 64.2477 34.3218 63.3748C33.4198 63.0242 32.4768 62.6721 31.5953 62.2375C30.708 61.7996 30.7605 61.3617 31.6187 61.5597C31.9298 61.6315 32.2964 61.6766 32.8962 61.7545" stroke="black" stroke-width="0.564931" stroke-linecap="round" stroke-linejoin="round"/>
<path d="M38.0063 64.5815C37.8973 66.8328 38.3417 68.6385 39.035 68.6947C40.7697 68.8353 41.454 60.2384 39.7283 59.9387C38.4714 59.6583 37.3252 59.0129 36.4332 58.0843C34.7247 56.2167 34.1892 56.6197 35.81 59.2294" stroke="black" stroke-width="0.564931" stroke-linecap="round" stroke-linejoin="round"/>
<path d="M57.1241 72.6444C56.391 72.9753 55.7704 73.5128 55.3383 74.1909C54.9062 74.8691 54.6815 75.6591 54.6917 76.4632C54.702 77.2672 54.9467 78.0511 55.3959 78.7182C55.8451 79.3852 56.4793 79.9067 57.2206 80.2188C57.9619 80.5308 58.7781 80.6193 59.5691 80.4742C60.3603 80.329 61.0917 79.9559 61.6739 79.4012C62.2557 78.8461 62.6632 78.1335 62.8461 77.35C63.0294 76.5669 62.9794 75.7473 62.7034 74.9921C62.5074 74.4591 62.204 73.972 61.8121 73.5616C61.4201 73.1508 60.9478 72.8252 60.4242 72.6051C59.9009 72.3849 59.3379 72.2746 58.7701 72.2816C58.2024 72.2881 57.6421 72.4119 57.1241 72.6444Z" stroke="black" stroke-width="0.564931" stroke-linecap="round" stroke-linejoin="round"/>
<path d="M76.8023 23.8461C77.4956 23.6202 77.9847 23.582 78.1032 23.7837C78.4312 24.343 76.0504 25.9157 75.4919 26.2581C74.7539 26.7091 71.5682 28.4787 71.1697 27.7878C70.9934 27.4824 71.7228 26.7128 72.9147 25.8793" stroke="black" stroke-width="0.564931" stroke-linecap="round" stroke-linejoin="round"/>
<path d="M74.8784 20.5508C73.5312 21.1352 72.2848 21.9294 71.1855 22.9038C72.0502 24.3683 72.9539 25.8968 73.6476 27.2498C75.0006 26.6298 76.2634 25.8299 77.4024 24.8718L74.8784 20.5508Z" stroke="black" stroke-width="0.564931" stroke-linecap="round" stroke-linejoin="round"/>
<path d="M96.0601 16.835C94.1359 18.4942 90.6456 24.0333 89.999 26.0354C90.1159 27.0013 90.2094 27.6868 90.2717 28.2711C91.7063 28.4628 93.1618 28.4339 94.5877 28.1854L94.5722 27.5466C96.2392 22.1014 96.3015 19.764 96.0601 16.835Z" stroke="black" stroke-width="0.564931" stroke-linecap="round" stroke-linejoin="round"/>
<path d="M94.5876 28.1855C93.1616 28.434 91.7061 28.463 90.2715 28.2712C90.4158 29.7549 90.4392 31.2478 90.3416 32.7353C91.7975 32.857 93.2633 32.7758 94.6966 32.4938C94.5888 28.1433 94.6089 28.9219 94.5876 28.1855Z" stroke="black" stroke-width="0.564931" stroke-linecap="round" stroke-linejoin="round"/>
<path d="M86.4853 23.7915C86.3582 23.8894 86.2048 23.9473 86.0449 23.958C85.885 23.9688 85.7251 23.9318 85.5861 23.8518C85.4472 23.7718 85.3348 23.6524 85.2639 23.5086C85.1925 23.3649 85.1659 23.2033 85.1864 23.0442C85.2073 22.8851 85.2745 22.7358 85.3799 22.6151C85.4857 22.4943 85.6247 22.4076 85.7797 22.3658C85.9342 22.3241 86.0982 22.3292 86.2503 22.3805C86.402 22.4318 86.5353 22.5271 86.6333 22.6542C86.7633 22.825 86.8211 23.0403 86.7932 23.2533C86.7653 23.4663 86.6546 23.6597 86.4853 23.7915Z" stroke="black" stroke-width="0.564931" stroke-linecap="round" stroke-linejoin="round"/>
<path d="M61.6886 43.5711C61.6525 43.8232 61.5348 44.0567 61.3532 44.2354C61.1716 44.4141 60.9362 44.5283 60.6837 44.5604C60.9321 44.6794 61.1302 44.883 61.2421 45.1348C61.354 45.3861 61.3729 45.6698 61.2954 45.9339C61.2175 46.1983 61.0482 46.4263 60.8177 46.5772C60.5869 46.7276 60.3106 46.7916 60.0371 46.7572C60.133 46.8793 60.2032 47.0196 60.2433 47.1696C60.2835 47.3193 60.2929 47.4759 60.2708 47.6296C60.2499 47.7805 60.1995 47.9257 60.1224 48.0573C60.0453 48.1885 59.9429 48.3037 59.8214 48.3955C59.6998 48.4874 59.5614 48.5542 59.414 48.5927C59.2665 48.6309 59.113 48.6399 58.9621 48.619C58.8516 48.6034 58.744 48.5722 58.6427 48.5255C58.6841 48.6805 58.6947 48.8416 58.6739 49.0007C58.6452 49.2143 58.5573 49.4156 58.4202 49.5821C58.2831 49.7481 58.1022 49.8728 57.898 49.9416C57.6938 50.0105 57.4744 50.0208 57.2646 49.9716C57.0548 49.9224 56.863 49.8154 56.7108 49.6628C56.712 49.6969 56.7094 49.7309 56.703 49.7641C56.6593 50.0683 56.4973 50.343 56.2522 50.5279C56.0071 50.7133 55.6988 50.7944 55.3943 50.7534C55.168 50.7235 54.9561 50.6259 54.7866 50.473C54.2647 49.4915 54.3254 48.587 54.4586 48.4554C55.7296 47.2106 54.6448 46.0401 54.0454 46.9285C53.7969 47.2975 53.6058 47.4259 53.4759 47.0196C53.0269 45.6161 51.0643 43.7465 50.5321 47.5673C50.3964 48.3123 50.4017 49.0761 50.5477 49.819C50.3947 49.6936 50.2765 49.5308 50.2042 49.3467C50.132 49.1626 50.1081 48.963 50.1348 48.767C50.1411 48.7194 50.1515 48.6727 50.1659 48.6268C49.9567 48.7321 49.7199 48.7703 49.4882 48.7358C49.1848 48.6907 48.9112 48.5284 48.7261 48.2836C48.5412 48.0388 48.4596 47.7313 48.4989 47.4271C48.5247 47.2516 48.5885 47.0835 48.6858 46.9351C48.5903 46.9429 48.4943 46.9429 48.3988 46.9351C48.1657 46.9035 47.9478 46.8014 47.7741 46.6428C47.6005 46.4841 47.4793 46.2758 47.4269 46.0466C47.3744 45.8174 47.3931 45.5776 47.4804 45.3591C47.5678 45.1405 47.7197 44.9539 47.9159 44.824C47.6458 44.771 47.4034 44.6237 47.2318 44.4086C47.0602 44.1934 46.9707 43.9242 46.9791 43.6491C46.9875 43.374 47.0933 43.1109 47.2777 42.9066C47.4622 42.7023 47.7132 42.5702 47.986 42.5338C47.7383 42.415 47.5409 42.2121 47.4288 41.9614C47.3167 41.7107 47.2973 41.4283 47.374 41.1645C47.4507 40.9008 47.6185 40.6728 47.8476 40.5213C48.0766 40.3697 48.352 40.3044 48.6248 40.337C48.4804 40.1557 48.3938 39.9354 48.3759 39.7043C48.3581 39.4733 48.4098 39.2423 48.5246 39.041C48.6393 38.8397 48.8118 38.6775 49.0196 38.5752C49.2275 38.4728 49.4612 38.4351 49.6908 38.467C49.7989 38.4815 49.9041 38.513 50.0024 38.5604C49.9561 38.4039 49.9428 38.2394 49.9634 38.0775C49.9835 37.9262 50.0335 37.7804 50.1103 37.6486C50.1872 37.5168 50.2894 37.4015 50.4112 37.3095C50.5329 37.2175 50.6717 37.1505 50.8194 37.1125C50.9673 37.0745 51.1211 37.0662 51.2721 37.0881C51.5159 37.1239 51.7422 37.2356 51.9187 37.4075C51.9323 37.1414 52.037 36.8881 52.2154 36.6902C52.3937 36.4923 52.6348 36.3618 52.898 36.3207C53.1612 36.2795 53.4306 36.3302 53.6608 36.4644C53.8911 36.5985 54.0681 36.8077 54.1622 37.057C54.5767 35.7761 56.5173 36.1271 56.4992 37.4309C56.6588 37.2334 56.8787 37.0935 57.1252 37.0327C57.3718 36.9718 57.6315 36.9934 57.8647 37.0941C58.0978 37.1948 58.2916 37.369 58.4164 37.5902C58.5412 37.8114 58.5901 38.0673 58.5558 38.319C58.5499 38.3691 58.5395 38.4187 58.5246 38.467C58.7317 38.3634 58.9653 38.3254 59.1946 38.3579C59.4991 38.4014 59.7742 38.5636 59.9597 38.8091C60.1453 39.0545 60.2261 39.3633 60.1851 39.6683C60.1626 39.846 60.0957 40.0153 59.9904 40.1603C60.0838 40.1519 60.1777 40.1543 60.2708 40.1676C60.5742 40.2129 60.8477 40.3753 61.033 40.6201C61.2179 40.8649 61.2995 41.1725 61.2601 41.4768C61.2376 41.6408 61.1798 41.798 61.0912 41.9378C61.0027 42.0776 60.8846 42.1967 60.746 42.2869C61.0391 42.3366 61.3015 42.4984 61.4774 42.7381C61.6533 42.9777 61.7292 43.2765 61.6886 43.5711Z" stroke="black" stroke-width="0.564931" stroke-linecap="round" stroke-linejoin="round"/>
<path d="M29.8662 55.0625L31.6423 58.8796" stroke="black" stroke-width="0.564931" stroke-linecap="round" stroke-linejoin="round"/>
<path d="M33.5977 63.0791L37.1815 70.776" stroke="black" stroke-width="0.564931" stroke-linecap="round" stroke-linejoin="round"/>
<path d="M31.9375 54.0957L34.0564 58.6451" stroke="black" stroke-width="0.564931" stroke-linecap="round" stroke-linejoin="round"/>
<path d="M36.6201 64.1611L38.3183 67.8069" stroke="black" stroke-width="0.564931" stroke-linecap="round" stroke-linejoin="round"/>
<path d="M38.584 68.3604L39.2539 69.8097" stroke="black" stroke-width="0.564931" stroke-linecap="round" stroke-linejoin="round"/>
<path d="M90.3808 31.1299C89.6957 31.177 87.3878 31.4288 87.6879 32.0409C88.0016 32.6776 91.0499 32.7904 91.8223 32.7883C94.9055 32.7805 97.1282 31.9327 94.6657 31.3558" stroke="black" stroke-width="0.564931" stroke-linecap="round" stroke-linejoin="round"/>
<path d="M57.3018 58.7996C57.6098 58.1891 57.886 57.563 58.1291 56.9238V59.2063" stroke="black" stroke-width="0.564931" stroke-linecap="round" stroke-linejoin="round"/>
</svg>
