<svg width="119" height="90" viewBox="0 0 119 90" fill="none" xmlns="http://www.w3.org/2000/svg">
<rect x="1" y="1" width="117" height="88" rx="11" fill="#A4E4FF"/>
<rect x="1" y="1" width="117" height="88" rx="11" stroke="black" stroke-width="2"/>
<path d="M66.8103 45.798L62.7923 44.8399L45.371 26.8438C42.6773 28.1878 40.4574 30.3212 39.0073 32.9593L46.3382 40.9211L37.909 38.9121C36.2419 41.4984 35.5252 44.2175 35.9 47.0998L57.277 52.7947C59.0666 54.7352 59.926 55.8336 61.6316 56.8127C63.3843 57.8176 66.2363 58.9336 69.3912 58.1079C69.7869 58.0542 68.0878 49.4692 66.8103 45.798Z" fill="#09AFF4"/>
<path d="M76.9601 16.8875L74.7555 12.268C74.5981 11.9365 74.3767 11.6392 74.1045 11.3932C73.8318 11.1472 73.5137 10.9573 73.168 10.8344C72.822 10.7114 72.4554 10.6577 72.0889 10.6765C71.7224 10.6953 71.3632 10.7861 71.0315 10.9437L68.7568 12.0261L73.3607 21.6944L75.6358 20.6115C75.9679 20.4547 76.2656 20.2337 76.5124 19.9615C76.7588 19.6891 76.9491 19.3708 77.0721 19.0248C77.1951 18.6787 77.2483 18.3117 77.2295 17.945C77.2102 17.5782 77.1188 17.2188 76.9601 16.8875ZM74.1791 17.4718C74.1791 17.4924 74.1709 17.5122 74.1561 17.5268C74.1418 17.5415 74.1217 17.5497 74.1012 17.5497C74.0807 17.5497 74.0606 17.5415 74.0462 17.5268C74.0315 17.5122 74.0233 17.4924 74.0233 17.4718V15.726L72.8626 16.2401C72.8507 16.2444 72.838 16.2459 72.8257 16.2445C72.8134 16.243 72.8011 16.2388 72.7904 16.232C72.7802 16.2252 72.7711 16.2161 72.7646 16.2054C72.758 16.1946 72.7543 16.1825 72.7531 16.17V14.309C72.7531 14.2884 72.7613 14.2686 72.7761 14.2539C72.7904 14.2393 72.8105 14.2311 72.831 14.2311C72.8515 14.2311 72.8716 14.2393 72.8859 14.2539C72.9007 14.2686 72.9089 14.2884 72.9089 14.309V16.054L74.07 15.5398C74.0815 15.5351 74.0938 15.5334 74.1061 15.5348C74.1184 15.5361 74.1299 15.5405 74.1401 15.5476C74.1512 15.5541 74.1606 15.5632 74.1672 15.574C74.1742 15.5849 74.1783 15.5972 74.1791 15.61V17.4718Z" fill="#09AFF4"/>
<path d="M83.2568 37.8914C83.3023 38.0804 83.3073 38.2767 83.2724 38.4678C83.8112 38.2282 84.3019 37.893 84.7214 37.4785C84.2458 37.658 83.7558 37.7961 83.2568 37.8914Z" fill="#E9E9E9"/>
<path d="M67.9019 44.6612C67.0217 42.5268 65.214 38.9274 63.6326 39.3403C62.5965 39.6129 62.1447 41.5838 62.3005 44.3423L62.7835 44.8408L66.8035 45.799C66.6527 45.3058 66.4436 44.8326 66.1803 44.389C66.7244 44.4899 67.3394 44.5756 67.9019 44.6612Z" fill="#E9E9E9"/>
<path d="M38.4079 19.5596C37.738 20.7519 37.4731 25.0363 36.7876 27.3422C36.5217 28.1912 36.3493 29.0667 36.2734 29.9531C36.6415 30.5604 37.1104 31.1004 37.6601 31.55C38.3738 29.7746 39.4031 28.1432 40.6982 26.7346C39.9019 24.685 40.086 22.3566 38.4079 19.5596Z" fill="#E9E9E9"/>
<path d="M34.2787 40.9753C32.4669 39.6313 31.4804 37.6473 28.5137 36.1299C28.5838 37.4931 30.6481 41.2635 31.2947 43.5771C31.52 44.4364 31.8414 45.2676 32.2529 46.0548C32.8887 46.3713 33.5738 46.5767 34.2787 46.6624C33.9384 44.7819 33.9384 42.8557 34.2787 40.9753Z" fill="#E9E9E9"/>
<path d="M76.9227 37.875C76.6812 40.1497 77.8886 40.6093 79.1039 38.7007C78.3405 38.5336 77.6053 38.2554 76.9227 37.875Z" fill="#E9E9E9"/>
<path d="M78.5049 34.0731C78.8944 34.2601 79.5332 34.4159 79.689 34.3068L79.9227 33.7382C79.5487 33.2863 78.9801 33.561 78.5049 34.0731Z" fill="#E9E9E9"/>
<path d="M86.2817 32.7102C85.9393 31.4425 84.9963 29.9291 82.8307 28.0518C82.3428 29.913 81.9656 31.8015 81.7012 33.7073C82.7249 33.453 83.7778 33.3325 84.8328 33.349C84.9262 33.1464 85.1226 33.3613 85.3703 34.0734C85.3785 34.0968 85.4014 34.1591 85.4248 34.2374C85.4748 34.2207 85.5281 34.2154 85.5806 34.2218C85.5572 33.9025 85.5191 33.5519 85.4715 33.1702C85.2419 31.3313 85.7786 31.0759 86.2661 32.9209C86.2969 33.0378 86.3596 33.3572 86.4301 33.7467C86.4227 33.3964 86.3731 33.0484 86.2817 32.7102Z" fill="#E9E9E9"/>
<path d="M85.2352 45.9531L84.8457 48.6251C84.8457 48.6251 86.0064 47.145 86.4115 46.4521L85.2352 45.9531Z" fill="#E9E9E9"/>
<path d="M44.4142 65.5543L52.4539 67.1201L44.9205 60.4129L36.8809 58.8467L44.4142 65.5543Z" fill="#E9E9E9"/>
<path d="M52.4378 67.1204L59.9322 62.2049L51.1447 61.1377L48.0205 63.1865L52.4378 67.1204Z" fill="#E9E9E9"/>
<path d="M44.4122 65.5533L52.4519 67.1191L44.9186 60.4119L36.8789 58.8457L44.4122 65.5533Z" stroke="black" stroke-width="0.564931" stroke-linejoin="round"/>
<path d="M52.4369 67.1204L59.9313 62.2049L51.1437 61.1377L48.0195 63.1865L52.4369 67.1204Z" stroke="black" stroke-width="0.564931" stroke-linejoin="round"/>
<path d="M51.166 32.8271C54.083 31.6565 57.242 31.217 60.3676 31.5469C63.4935 31.8769 66.491 32.9662 69.0994 34.72" stroke="black" stroke-width="0.564931" stroke-linecap="round" stroke-linejoin="round"/>
<path d="M42.3789 39.9781C42.8078 39.339 43.2732 38.7251 43.7729 38.1396" stroke="black" stroke-width="0.564931" stroke-linecap="round" stroke-linejoin="round"/>
<path d="M39.3247 48.0117C39.2059 48.8871 39.146 49.7694 39.1455 50.6525C39.1392 53.8239 39.922 56.9469 41.4226 59.7394" stroke="black" stroke-width="0.564931" stroke-linecap="round" stroke-linejoin="round"/>
<path d="M77.1085 54.8662C76.4017 58.0126 74.9146 60.9301 72.7842 63.3508C70.6535 65.7714 67.9479 67.6168 64.9172 68.7172C61.886 69.8177 58.6266 70.1375 55.4394 69.6475C52.3339 69.1699 49.3942 67.9382 46.877 66.0621" stroke="black" stroke-width="0.564931" stroke-linecap="round" stroke-linejoin="round"/>
<path d="M77.3584 14.0598C78.5503 13.3119 80.1398 12.9372 81.4953 13.421C83.7392 14.2221 84.8712 16.9117 84.3153 19.1466C83.7958 21.2352 82.1423 23.0502 81.0197 24.8337C79.1275 27.8415 78.3547 30.0768 79.4695 33.5122" stroke="black" stroke-width="0.564931" stroke-linecap="round" stroke-linejoin="round"/>
<path d="M75.4883 13.7948L76.4464 15.7968L77.1242 15.4688C77.3079 15.3796 77.4489 15.2218 77.5174 15.0296C77.5858 14.8372 77.576 14.6257 77.4903 14.4406L77.2033 13.8329C77.1139 13.6493 76.9565 13.5081 76.7642 13.4397C76.5719 13.3712 76.3603 13.3809 76.175 13.4668L75.4883 13.7948Z" stroke="black" stroke-width="0.564931" stroke-linecap="round" stroke-linejoin="round"/>
<path d="M73.3685 21.6946L68.7646 12.0264L64.1992 14.2002L68.8035 23.868L73.3685 21.6946Z" stroke="black" stroke-width="0.564931" stroke-linecap="round" stroke-linejoin="round"/>
<path d="M76.9679 16.8875L74.7634 12.2602C74.6059 11.9287 74.3845 11.6314 74.1123 11.3855C73.8396 11.1395 73.5215 10.9495 73.1758 10.8265C72.8298 10.7035 72.4633 10.6499 72.0967 10.6687C71.7302 10.6875 71.3706 10.7783 71.0393 10.9359L68.7646 12.0261L73.3685 21.6943L75.6436 20.6115C75.9753 20.454 76.2722 20.2327 76.5182 19.9603C76.7642 19.6878 76.954 19.3696 77.077 19.0238C77.2 18.678 77.2537 18.3113 77.2348 17.9448C77.2164 17.5782 77.1254 17.219 76.9679 16.8875Z" stroke="black" stroke-width="0.564931" stroke-linecap="round" stroke-linejoin="round"/>
<path d="M72.8242 14.3145V16.1339L74.0928 15.6214V17.4792" stroke="black" stroke-width="0.564931" stroke-linecap="round" stroke-linejoin="round"/>
<path d="M68.8049 23.867L64.2006 14.1992L59.6357 16.3726L64.2396 26.0404L68.8049 23.867Z" stroke="black" stroke-width="0.564931" stroke-linecap="round" stroke-linejoin="round"/>
<path d="M56.175 21.1185C56.0174 20.7871 55.9267 20.4278 55.9079 20.0612C55.8892 19.6946 55.9429 19.3279 56.0659 18.9821C56.1889 18.6363 56.3789 18.3181 56.6249 18.0457C56.8709 17.7733 57.1681 17.552 57.4997 17.3945L59.6342 16.374L64.2381 26.0418L62.1036 27.0623C61.7723 27.22 61.4128 27.3108 61.0462 27.3295C60.6797 27.3483 60.3131 27.2947 59.9674 27.1717C59.6216 27.0487 59.3034 26.8588 59.0311 26.6128C58.7587 26.3668 58.5374 26.0695 58.38 25.738L56.175 21.1185Z" stroke="black" stroke-width="0.564931" stroke-linecap="round" stroke-linejoin="round"/>
<path d="M57.2744 52.7937L35.8908 47.0988C35.5169 44.2165 36.2336 41.4974 37.8998 38.9111L46.3368 40.9201" stroke="black" stroke-width="0.564931" stroke-linecap="round" stroke-linejoin="round"/>
<path d="M66.8023 45.797L62.79 44.8389" stroke="black" stroke-width="0.564931" stroke-linecap="round" stroke-linejoin="round"/>
<path d="M69.0067 55.2555C67.6574 55.5114 66.2638 55.39 64.9788 54.905C63.3114 54.3064 61.8218 53.297 60.6476 51.9702L41 30.1582" stroke="black" stroke-width="0.564931" stroke-linecap="round" stroke-linejoin="round"/>
<path d="M35.9131 44.0137L53.3012 48.4851" stroke="black" stroke-width="0.564931" stroke-linecap="round" stroke-linejoin="round"/>
<path d="M81.6974 33.7295C81.1828 37.8352 82.157 38.4974 84.7121 37.4769" stroke="black" stroke-width="0.564931" stroke-linecap="round" stroke-linejoin="round"/>
<path d="M65.9448 48.104L45.3661 26.8467C42.6747 28.1907 40.4568 30.323 39.0078 32.9594L59.1151 54.796C59.8421 55.5938 60.6882 56.2744 61.6234 56.8136C63.3799 57.8214 66.233 58.9345 69.3909 58.1088" stroke="black" stroke-width="0.564931" stroke-linecap="round" stroke-linejoin="round"/>
<path d="M80.8164 38.7242C83.5277 40.1182 83.294 38.0309 83.294 38.0309L83.2776 37.8857" stroke="black" stroke-width="0.564931" stroke-linecap="round" stroke-linejoin="round"/>
<path d="M83.1539 38.7783C82.7644 40.57 75.309 45.2055 64.3477 39.4171" stroke="black" stroke-width="0.564931" stroke-linecap="round" stroke-linejoin="round"/>
<path d="M62.2986 44.3415C62.1428 41.5835 62.5942 39.6118 63.6307 39.3395C65.2116 38.925 67.0197 42.5256 67.9 44.6605C67.3781 44.5515 66.7393 44.458 66.178 44.3879" stroke="black" stroke-width="0.564931" stroke-linecap="round" stroke-linejoin="round"/>
<path d="M38.4055 19.5599C38.1952 19.2016 38.016 18.9982 37.8836 19.0146C37.057 19.1179 36.8483 23.8063 36.1464 26.1584C35.8901 26.9539 35.7352 27.7785 35.6855 28.6127C35.7879 29.0946 35.9871 29.5507 36.271 29.9534C36.3414 29.0665 36.514 28.1907 36.7852 27.3433C37.4703 25.0367 37.7355 20.7522 38.4055 19.5599Z" stroke="black" stroke-width="0.564931" stroke-linecap="round" stroke-linejoin="round"/>
<path d="M40.6962 26.7346C40.1665 25.3713 40.091 24.1167 39.7458 22.824C39.4387 21.6837 38.9885 20.5868 38.4059 19.5596C37.736 20.7519 37.467 25.0351 36.7856 27.3422C36.5191 28.191 36.3467 29.0666 36.2715 29.9531C36.6395 30.5604 37.1085 31.1004 37.6581 31.55C38.3717 29.7746 39.401 28.1431 40.6962 26.7346Z" stroke="black" stroke-width="0.564931" stroke-linecap="round" stroke-linejoin="round"/>
<path d="M37.6582 31.5488L39.0059 32.9588" stroke="black" stroke-width="0.564931" stroke-linecap="round" stroke-linejoin="round"/>
<path d="M40.6963 26.7344L42.4806 28.7368" stroke="black" stroke-width="0.564931" stroke-linecap="round" stroke-linejoin="round"/>
<path d="M28.5113 36.13C28.1452 35.9426 27.8803 35.8651 27.7791 35.9508C27.1411 36.4891 29.4543 40.5567 30.1239 42.9151C30.3346 43.7235 30.6433 44.5033 31.0431 45.2369C31.3851 45.5915 31.796 45.8724 32.2505 46.0626C31.8389 45.2754 31.5175 44.4443 31.2924 43.585C30.6511 41.2623 28.5827 37.4932 28.5113 36.13Z" stroke="black" stroke-width="0.564931" stroke-linecap="round" stroke-linejoin="round"/>
<path d="M34.2767 40.9755C33.1004 40.103 32.3596 39.0834 31.3862 38.1789C30.5178 37.3777 29.5521 36.689 28.5117 36.1289C28.5818 37.4922 30.6437 41.2633 31.2927 43.5761C31.5177 44.4355 31.8391 45.2666 32.2509 46.0538C32.8867 46.3703 33.5718 46.5757 34.2767 46.6614C33.9366 44.7814 33.9366 42.8555 34.2767 40.9755Z" stroke="black" stroke-width="0.564931" stroke-linecap="round" stroke-linejoin="round"/>
<path d="M34.2852 46.6621L35.8899 47.0984" stroke="black" stroke-width="0.564931" stroke-linecap="round" stroke-linejoin="round"/>
<path d="M34.2773 40.9756L36.5287 41.6222" stroke="black" stroke-width="0.564931" stroke-linecap="round" stroke-linejoin="round"/>
<path d="M88.7945 55.9259C89.0241 56.422 89.1012 56.9751 89.0168 57.515C88.9319 58.055 88.6888 58.5577 88.3185 58.9599C87.9479 59.3617 87.4666 59.6446 86.9352 59.7729C86.4038 59.9012 85.8462 59.8692 85.3333 59.6806C84.8204 59.4925 84.3743 59.1558 84.0525 58.7143C83.7306 58.2723 83.547 57.745 83.5248 57.1989C83.5023 56.6528 83.6425 56.1124 83.9274 55.6458C84.2124 55.1793 84.6294 54.8078 85.1255 54.5782C85.4547 54.4253 85.811 54.3388 86.1738 54.3236C86.5367 54.3088 86.8987 54.3654 87.2398 54.4905C87.5805 54.6159 87.8934 54.807 88.1603 55.0534C88.4268 55.2998 88.6424 55.5962 88.7945 55.9259Z" stroke="black" stroke-width="0.564931" stroke-linecap="round" stroke-linejoin="round"/>
<path d="M85.499 55.3799L86.2858 57.0859L87.9607 56.3147" stroke="black" stroke-width="0.564931" stroke-linecap="round" stroke-linejoin="round"/>
<path d="M79.9204 33.7387C79.8487 33.6506 79.7544 33.5834 79.6478 33.544C78.9508 33.2902 77.8872 34.5177 77.2874 36.2631C76.6876 38.0085 76.7741 39.6177 77.4822 39.8621C77.9504 40.0236 78.565 39.5427 79.1103 38.7014" stroke="black" stroke-width="0.564931" stroke-linecap="round" stroke-linejoin="round"/>
<path d="M79.6487 33.543C77.6553 33.0781 75.6869 32.5112 73.7517 31.8448C71.5238 31.0732 67.7993 32.2421 69.5992 36.5114C70.4795 38.5991 73.0268 40.9906 75.0682 42.2293" stroke="black" stroke-width="0.564931" stroke-linecap="round" stroke-linejoin="round"/>
<path d="M77.4825 39.8611L71.9512 37.0645" stroke="black" stroke-width="0.564931" stroke-linecap="round" stroke-linejoin="round"/>
<path d="M82.164 37.6416C81.9926 37.8597 81.8224 38.0713 81.6576 38.2566C80.8995 39.1106 78.9151 38.9655 76.9131 37.8827" stroke="black" stroke-width="0.564931" stroke-linecap="round" stroke-linejoin="round"/>
<path d="M79.6714 34.2904C79.5156 34.4072 78.8924 34.2514 78.5029 34.0723" stroke="black" stroke-width="0.564931" stroke-linecap="round" stroke-linejoin="round"/>
<path d="M81.0114 33.271C81.0192 33.1853 81.0347 32.615 81.0425 32.5388C81.0815 31.1677 80.7662 31.4027 80.2791 32.8114C79.8654 33.9293 79.3923 35.0242 78.8613 36.0914" stroke="black" stroke-width="0.564931" stroke-linecap="round" stroke-linejoin="round"/>
<path d="M82.25 30.5205C82.1175 30.0375 81.7288 30.443 81.4086 31.6734C81.1446 32.6865 80.9408 33.5594 80.7383 34.2207" stroke="black" stroke-width="0.564931" stroke-linecap="round" stroke-linejoin="round"/>
<path d="M81.6667 34.0186C81.2202 34.029 80.786 34.1639 80.4121 34.4081" stroke="black" stroke-width="0.564931" stroke-linecap="round" stroke-linejoin="round"/>
<path d="M92.9384 47.1321L87.4444 44.2576C87.8807 41.8657 89.2595 39.4897 91.2164 38.2979C91.2164 38.2979 95.7186 41.2277 98.0487 43.5721C100.35 45.887 98.4997 50.7918 92.9614 49.3912C91.134 48.9263 88.7117 47.4974 86.41 46.4495C81.6987 53.9935 72.9181 56.8696 70.174 57.8672C69.9104 57.9627 69.648 58.0426 69.3876 58.1107C69.8472 58.0484 67.4163 46.1662 66.1777 44.39C69.247 44.9977 78.6499 46.135 84.8979 39.716" stroke="black" stroke-width="0.564931" stroke-linecap="round" stroke-linejoin="round"/>
<path d="M88.0234 36.262C88.0234 36.262 88.5064 35.0538 89.1304 34.827C89.8004 34.5851 88.6229 36.7827 88.6864 38.0058C88.7094 38.442 90.1124 39.1509 90.1124 39.1509" stroke="black" stroke-width="0.564931" stroke-linecap="round" stroke-linejoin="round"/>
<path d="M87.1969 33.1305C87.1424 32.4372 87.2564 30.2002 87.7812 32.3671C87.8812 32.9495 87.946 33.5374 87.9759 34.1276C88.0874 35.1097 88.069 36.1023 87.9214 37.0796" stroke="black" stroke-width="0.564931" stroke-linecap="round" stroke-linejoin="round"/>
<path d="M85.6236 34.8211C85.5925 34.7354 85.4055 34.2061 85.3821 34.1278C84.9147 32.8424 84.7023 33.1774 84.7745 34.6653C84.8352 35.9199 84.7064 37.7505 84.681 38.2413C84.5867 40.0724 85.4055 40.6017 87.9139 42.5102" stroke="black" stroke-width="0.564931" stroke-linecap="round" stroke-linejoin="round"/>
<path d="M86.6521 35.2725C86.5509 34.3922 86.3389 33.2225 86.2704 32.9666C85.7821 31.1237 85.243 31.3853 85.4758 33.2159C85.6087 34.2598 85.6238 35.0466 85.6862 35.7403" stroke="black" stroke-width="0.564931" stroke-linecap="round" stroke-linejoin="round"/>
<path d="M86.2852 33.021C86.2774 29.454 86.9822 30.9562 87.1733 32.9431C87.2602 33.8389 87.3602 34.5011 87.3758 35.0308" stroke="black" stroke-width="0.564931" stroke-linecap="round" stroke-linejoin="round"/>
<path d="M86.2864 32.7428C85.9584 31.4661 85.0113 29.9446 82.8268 28.0508C82.3389 29.912 81.9617 31.8005 81.6973 33.7063C82.721 33.452 83.7739 33.3315 84.8288 33.348" stroke="black" stroke-width="0.564931" stroke-linecap="round" stroke-linejoin="round"/>
<path d="M81.4717 40.5303C81.9469 40.9665 82.4065 41.3503 83.8009 40.7406" stroke="black" stroke-width="0.564931" stroke-linecap="round" stroke-linejoin="round"/>
<path d="M84.7204 37.4775C84.401 37.9449 83.2715 38.4669 83.2715 38.4669" stroke="black" stroke-width="0.564931" stroke-linecap="round" stroke-linejoin="round"/>
<path d="M96.2489 26.5868C96.1788 26.9841 94.0521 26.9148 91.497 26.431C88.9419 25.9472 86.9317 25.2392 87.0018 24.8419C87.0719 24.4446 89.1986 24.5139 91.7541 24.9977C94.3096 25.4815 96.319 26.1895 96.2489 26.5868Z" stroke="black" stroke-width="0.564931" stroke-linecap="round" stroke-linejoin="round"/>
<path d="M94.0141 29.8823C93.6792 30.0849 92.3364 28.3883 91.015 26.0804C89.6936 23.7725 88.8957 21.7414 89.2307 21.5388C89.5656 21.3363 90.9059 23.0345 92.2302 25.3404C93.5545 27.6462 94.3491 29.6798 94.0141 29.8823Z" stroke="black" stroke-width="0.564931" stroke-linecap="round" stroke-linejoin="round"/>
<path d="M21.0488 54.2892L25.0922 57.7791L26.1595 50.4795" stroke="black" stroke-width="0.564931" stroke-linecap="round" stroke-linejoin="round"/>
<path d="M48.2371 15.8514C48.2317 16.0202 48.1764 16.1836 48.0782 16.321C47.9799 16.4583 47.8432 16.5634 47.6852 16.623C47.5272 16.6826 47.3551 16.694 47.1906 16.6558C47.0261 16.6175 46.8767 16.5314 46.7612 16.4082C46.6457 16.285 46.5693 16.1303 46.5417 15.9637C46.5141 15.7971 46.5366 15.6261 46.6062 15.4723C46.6759 15.3184 46.7896 15.1887 46.933 15.0995C47.0764 15.0103 47.243 14.9657 47.4118 14.9712C47.5237 14.9748 47.6339 15.0004 47.736 15.0466C47.8381 15.0928 47.9301 15.1586 48.0068 15.2404C48.0834 15.3221 48.1432 15.4181 48.1827 15.523C48.2222 15.6278 48.2407 15.7395 48.2371 15.8514Z" stroke="black" stroke-width="0.564931" stroke-linecap="round" stroke-linejoin="round"/>
<path d="M62.5713 75.7676L65.9058 79.3354" stroke="black" stroke-width="0.564931" stroke-linecap="round" stroke-linejoin="round"/>
<path d="M66.0233 75.8838L62.4551 79.2179" stroke="black" stroke-width="0.564931" stroke-linecap="round" stroke-linejoin="round"/>
<path d="M86.41 46.4467C86.0127 46.2659 85.6195 46.0966 85.2332 45.9453L84.8438 48.6251" stroke="black" stroke-width="0.564931" stroke-linecap="round" stroke-linejoin="round"/>
</svg>
