<svg width="119" height="90" viewBox="0 0 119 90" fill="none" xmlns="http://www.w3.org/2000/svg">
<rect x="1" y="1" width="117" height="88" rx="11" fill="#4C5770"/>
<rect x="1" y="1" width="117" height="88" rx="11" stroke="black" stroke-width="2"/>
<path d="M77.7063 60.1209C74.6641 59.9569 69.3985 59.8434 68.3583 59.747C67.8233 57.2944 66.9614 53.4105 66.6199 51.588C66.6256 51.5843 66.6314 51.5806 66.6367 51.5765C68.7478 50.2133 70.6408 46.4819 67.6105 41.2236C63.5724 41.2577 59.868 42.1638 56.4552 44.2617C56.5409 45.0329 56.611 45.6873 56.6499 46.1158C46.9514 50.5028 45.0818 51.7947 44.7234 53.9681C44.3073 56.5064 46.5192 60.1304 52.9886 70.81C55.4486 71.384 59.1956 69.9777 60.062 67.7408C59.0722 65.7412 55.6381 58.8216 54.5544 56.8893C57.4749 55.8233 60.8684 54.5011 63.6679 53.1538C62.5232 54.2551 60.2481 56.5724 59.4232 57.5515C60.6228 61.2128 62.025 65.4645 63.5441 66.1672C65.3182 66.9872 66.1357 67.2267 77.6985 67.2267C79.0257 66.0364 78.7284 61.845 77.7063 60.1209Z" fill="#09AFF4"/>
<path d="M41.1714 15.4058C40.852 15.99 40.5638 16.5587 40.2989 17.0962C38.2034 21.4196 37.7906 24.2786 37.7979 26.413C37.8057 27.4647 37.907 28.3372 37.9619 29.1317V29.1395C38.11 29.2252 38.2489 29.3109 38.4216 29.4122C38.7332 28.9202 38.9902 29.0149 39.7536 29.3888C40.8053 29.903 40.9066 29.9497 40.9836 30.6897C40.9914 30.7832 40.9992 30.8689 41.0148 30.9546C41.7471 30.5417 42.5806 30.1289 43.531 29.5196C45.3305 28.3589 47.4961 26.4581 49.9655 22.3372C50.2771 21.8153 50.5965 21.2712 50.9159 20.678L41.1714 15.4058ZM44.3186 23.9358L43.82 26.304L42.7389 24.1384L40.3395 24.411L42.0615 22.705L41.0644 20.5004L43.2145 21.6074L44.9984 19.9871L44.6089 22.3786L46.7122 23.5705L44.3186 23.9358Z" fill="#09AFF4"/>
<path d="M81.4463 12.1961C81.4385 12.5856 81.4385 12.9595 81.4463 13.2867C81.9682 13.1309 82.2097 12.944 82.2486 12.757C82.32 12.4208 81.666 12.1522 81.4463 12.1961Z" fill="#E9E9E9"/>
<path d="M78.7741 60.7583C78.5273 60.7522 78.2809 60.7649 78.0361 60.7973C78.7217 62.4955 78.7606 65.1285 78.2001 66.4996C79.1021 67.707 81.7671 69.5299 83.8401 70.083C83.6896 66.8267 80.2075 62.0826 78.7741 60.7583Z" fill="#E9E9E9"/>
<path d="M76.866 12.3673C76.7327 12.3636 76.21 12.4673 76.21 12.8269C76.21 13.0216 76.4514 13.2398 77.0435 13.3878C77.1074 13.0373 77.0443 12.6756 76.866 12.3673Z" fill="#E9E9E9"/>
<path d="M67.9766 34.0934C68.0856 35.706 68.257 37.6301 68.257 38.9622C68.849 36.8823 69.5735 34.3661 69.9942 32.9717L67.9766 34.0934Z" fill="#E9E9E9"/>
<path d="M64.8841 18.5136C64.8841 17.9839 64.1986 17.8048 63.8325 18.3812C63.8013 17.8827 62.9911 17.7662 62.5938 18.4435C62.5082 17.906 61.5967 18.0229 61.2773 18.6305C61.1839 18.1553 60.4049 18.4202 60.2724 19.1291C60.1322 19.8769 60.0076 20.5546 59.9219 21.1622C60.9284 20.8663 61.9731 20.7193 63.0223 20.726C62.8042 21.5517 62.8993 22.6657 63.256 21.9101C63.6065 21.1545 64.5024 21.7231 63.871 22.7125C63.7693 22.9173 63.7275 23.1468 63.7509 23.3743C63.7746 23.6018 63.862 23.818 64.0034 23.9978C64.0969 22.3697 65.3589 20.2586 65.7484 19.4017C66.2785 18.241 65.4761 17.9294 64.8841 18.5136Z" fill="#E9E9E9"/>
<path d="M58.6836 55.3137C58.9173 56.007 59.1666 56.7626 59.4216 57.5494C60.3408 56.4588 62.9972 53.8803 63.9554 53.0156C62.2826 53.8336 60.4511 54.6204 58.6836 55.3137Z" fill="#E9E9E9"/>
<path d="M61.5993 25.4786C61.5932 25.8338 61.5591 26.188 61.498 26.538C62.0372 26.158 62.4562 25.6317 62.7055 25.021C62.3492 25.2021 61.9794 25.355 61.5993 25.4786Z" fill="#E9E9E9"/>
<path d="M59.696 68.4321C60.067 68.7199 60.4065 69.0463 60.7087 69.4059C58.9014 73.6904 55.0298 77.2971 53.5029 78.2553C53.6554 75.7396 54.175 73.2595 55.0454 70.8938C56.7981 70.6601 58.7698 69.772 59.696 68.4321Z" fill="#E9E9E9"/>
<path d="M55.576 36.7588C54.7737 37.7247 52.5457 40.1163 50.458 41.4951C52.3088 40.8972 54.1176 40.176 55.8721 39.3365C55.763 38.4172 55.6617 37.5292 55.576 36.7588Z" fill="#E9E9E9"/>
<path d="M42.0752 31.803C41.9038 31.7017 41.6078 31.8263 41.3896 32.1457C41.5691 32.4679 41.859 32.7141 42.206 32.839C42.3322 32.2314 42.247 31.9042 42.0752 31.803Z" fill="#E9E9E9"/>
<path d="M40.1822 36.782C39.8239 37.1871 39.5508 37.3048 39.3721 37.2494C39.1224 37.1724 39.0916 36.7041 39.2396 36.2134C39.559 36.4003 39.8784 36.5873 40.1822 36.782Z" fill="#E9E9E9"/>
<path d="M34.2852 65.7448C35.5802 65.7448 36.63 64.6948 36.63 63.4C36.63 62.1048 35.5802 61.0552 34.2852 61.0552C32.9902 61.0552 31.9404 62.1048 31.9404 63.4C31.9404 64.6948 32.9902 65.7448 34.2852 65.7448Z" fill="#E9E9E9"/>
<path d="M37.9622 35.4727C37.9778 34.7638 38.3128 34.0082 38.8642 32.9799C38.7496 32.5997 38.7205 32.1989 38.7791 31.8062C38.8377 31.4135 38.9826 31.0386 39.2033 30.7085C39.0635 30.9246 38.9008 31.1249 38.7179 31.3059C38.9516 31.7811 38.5698 32.5055 37.8921 32.1628L37.9856 32.3108C38.8113 32.7782 38.266 33.8376 37.3858 33.4178L37.5498 33.5658C38.3599 33.9942 37.8536 35.0303 36.9811 34.6486C36.5994 34.4772 36.2878 34.3526 36.0307 34.2435C35.3608 34.781 34.5272 34.9057 33.1406 34.7109L39.1545 37.9671C38.2972 36.9917 37.9389 36.2595 37.9622 35.4727Z" fill="#E9E9E9"/>
<path d="M32.9391 34.6045L31.4746 36.5208L38.5557 40.3613L39.3659 38.0866L32.9391 34.6045Z" fill="#E9E9E9"/>
<path d="M40.182 36.7813C39.444 36.2984 38.5929 35.8699 37.9541 35.457" stroke="white" stroke-width="0.564931" stroke-linecap="round" stroke-linejoin="round"/>
<path d="M59.8908 21.4112L58.4263 6.04932L47.0996 34.4517" stroke="white" stroke-width="0.564931" stroke-linecap="round" stroke-linejoin="round"/>
<path d="M60.5841 28.7491L60.2725 25.4072" stroke="white" stroke-width="0.564931" stroke-linecap="round" stroke-linejoin="round"/>
<path d="M76.967 60.0806L87.6159 33.3765L68.9121 36.6794" stroke="white" stroke-width="0.564931" stroke-linecap="round" stroke-linejoin="round"/>
<path d="M65.8262 66.8735L67.4543 83.9492L74.1303 67.2085" stroke="white" stroke-width="0.564931" stroke-linecap="round" stroke-linejoin="round"/>
<path d="M44.7313 40.3877L38.2578 56.6221L44.7391 55.4769" stroke="white" stroke-width="0.564931" stroke-linecap="round" stroke-linejoin="round"/>
<path d="M40.3061 17.1114L36.2553 14.9224C33.0163 20.9051 35.9748 25.4389 37.8055 26.4282" stroke="white" stroke-width="0.564931" stroke-linecap="round" stroke-linejoin="round"/>
<path d="M42.745 24.1457L40.3457 24.4106L42.0595 22.7123L41.0624 20.5078L43.2124 21.614L44.9963 19.9858L44.6068 22.3696L46.7101 23.5692L44.3186 23.9354L43.8356 26.3035L42.745 24.1457Z" stroke="white" stroke-width="0.564931" stroke-linecap="round" stroke-linejoin="round"/>
<path d="M49.9928 22.3467L54.0166 24.5348C50.7743 30.5175 45.3623 30.5175 43.5391 29.5282" stroke="white" stroke-width="0.564931" stroke-linecap="round" stroke-linejoin="round"/>
<path d="M37.5049 72.3198C40.043 72.3198 42.1006 70.2624 42.1006 67.7241C42.1006 65.1858 40.043 63.1284 37.5049 63.1284C34.9667 63.1284 32.9092 65.1858 32.9092 67.7241C32.9092 70.2624 34.9667 72.3198 37.5049 72.3198Z" stroke="white" stroke-width="0.564931" stroke-linecap="round" stroke-linejoin="round"/>
<path d="M87.6307 22.0895C88.4138 22.0895 89.0485 21.4547 89.0485 20.6717C89.0485 19.8887 88.4138 19.2539 87.6307 19.2539C86.8476 19.2539 86.2129 19.8887 86.2129 20.6717C86.2129 21.4547 86.8476 22.0895 87.6307 22.0895Z" stroke="white" stroke-width="0.564931" stroke-linecap="round" stroke-linejoin="round"/>
<path d="M32.5712 45.7004C32.9713 45.7004 33.2956 45.3761 33.2956 44.9759C33.2956 44.5758 32.9713 44.2515 32.5712 44.2515C32.171 44.2515 31.8467 44.5758 31.8467 44.9759C31.8467 45.3761 32.171 45.7004 32.5712 45.7004Z" stroke="white" stroke-width="0.564931" stroke-linecap="round" stroke-linejoin="round"/>
<path d="M69.621 10.1157L68.8965 13.0136L71.0933 12.6241L70.3688 15.522" stroke="white" stroke-width="0.564931" stroke-linecap="round" stroke-linejoin="round"/>
<path d="M37.3784 33.4082C38.2599 33.8264 38.8032 32.7707 37.9783 32.3012C37.3633 31.9515 36.9188 31.7322 36.4203 31.4755C36.2717 31.3897 36.0958 31.3646 35.9292 31.4052C35.7626 31.4459 35.618 31.5492 35.5257 31.6938C35.4334 31.8383 35.4003 32.0129 35.4334 32.1812C35.4666 32.3495 35.5633 32.4985 35.7036 32.5973C36.1005 32.8478 36.5695 33.0245 37.3784 33.4082Z" stroke="white" stroke-width="0.564931" stroke-linecap="round" stroke-linejoin="round"/>
<path d="M38.4295 29.4189C38.1179 29.2319 37.8928 29.1056 37.5881 28.9269C37.4444 28.833 37.2698 28.7987 37.1012 28.8314C36.9327 28.864 36.7835 28.9611 36.6853 29.1018C36.587 29.2426 36.5474 29.4161 36.5749 29.5856C36.6024 29.7551 36.6948 29.9071 36.8325 30.0097C37.1657 30.232 37.5145 30.4299 37.8764 30.6017" stroke="white" stroke-width="0.564931" stroke-linecap="round" stroke-linejoin="round"/>
<path d="M36.9885 34.6465C37.8532 35.0283 38.3591 33.9934 37.5493 33.5637C36.9491 33.2452 36.5043 33.0443 36.0225 32.8159C35.8772 32.7342 35.7058 32.7122 35.5444 32.7543C35.3831 32.7965 35.2444 32.8996 35.1577 33.0419C35.0708 33.1842 35.0426 33.3547 35.079 33.5175C35.1153 33.6802 35.2134 33.8224 35.3526 33.9143C35.7421 34.1398 36.1939 34.296 36.9885 34.6465Z" stroke="white" stroke-width="0.564931" stroke-linecap="round" stroke-linejoin="round"/>
<path d="M37.8595 30.6347C37.5401 30.4633 37.2581 30.3342 36.9481 30.1673C36.7993 30.075 36.6205 30.0441 36.4494 30.0813C36.2783 30.1184 36.1283 30.2206 36.0312 30.3663C35.9341 30.5119 35.8975 30.6897 35.929 30.8619C35.9605 31.0341 36.0578 31.1873 36.2003 31.2891C36.6049 31.5548 37.0666 31.7454 37.8813 32.1538C38.5602 32.4937 38.9407 31.7721 38.707 31.2969" stroke="white" stroke-width="0.564931" stroke-linecap="round" stroke-linejoin="round"/>
<path d="M41.3816 32.146C41.6075 31.8266 41.9019 31.7049 42.0749 31.8033C42.3837 31.9796 42.4095 32.8783 41.4517 34.7712C40.4308 36.7889 39.7142 37.3592 39.364 37.2485C39.1221 37.1718 39.0836 36.6954 39.2316 36.2124" stroke="white" stroke-width="0.564931" stroke-linecap="round" stroke-linejoin="round"/>
<path d="M42.2056 32.8397C41.6759 32.6216 41.1396 32.2325 40.9904 30.6897C40.9178 29.9517 40.8116 29.9021 39.7604 29.3888C38.5304 28.7881 38.5997 28.8967 37.6726 31.0792C37.4447 31.6158 38.2803 32.1698 39.2462 30.6118C38.4906 31.8036 38.6312 32.9898 39.3241 33.7433" stroke="white" stroke-width="0.564931" stroke-linecap="round" stroke-linejoin="round"/>
<path d="M79.9251 9.22032C79.848 10.1941 78.6668 10.2252 78.6709 9.28264C78.6738 8.58154 78.7037 8.08296 78.7332 7.52208C78.7824 6.58728 80.0292 6.59507 80.0575 7.36628C80.0756 7.83368 79.9969 8.32447 79.9251 9.22032Z" stroke="white" stroke-width="0.564931" stroke-linecap="round" stroke-linejoin="round"/>
<path d="M75.961 8.50398C75.9532 8.16122 75.9586 7.9111 75.9532 7.58392C75.9389 6.69586 77.2042 6.65568 77.262 7.39696C77.2886 7.77561 77.2886 8.15564 77.262 8.53432" stroke="white" stroke-width="0.564931" stroke-linecap="round" stroke-linejoin="round"/>
<path d="M81.2668 9.44595C81.1693 10.3967 80.0241 10.3963 80.0594 9.47711C80.0856 8.79938 80.1283 8.3164 80.1684 7.77889C80.2361 6.87689 81.446 6.9142 81.446 7.65589C81.446 8.10607 81.3558 8.58167 81.2668 9.44595Z" stroke="white" stroke-width="0.564931" stroke-linecap="round" stroke-linejoin="round"/>
<path d="M77.293 8.52692C77.3008 8.16079 77.3315 7.84917 77.3397 7.49862C77.3619 6.54824 78.6308 6.53266 78.6796 7.31166C78.7095 7.78685 78.6406 8.28543 78.5939 9.19768C78.5968 9.33372 78.5562 9.46713 78.4775 9.57812C78.3983 9.68911 78.286 9.77172 78.1564 9.8137C78.0273 9.85569 77.8875 9.85479 77.7587 9.8112C77.6296 9.76758 77.5185 9.68353 77.441 9.5716" stroke="white" stroke-width="0.564931" stroke-linecap="round" stroke-linejoin="round"/>
<path d="M76.8575 12.3671C76.468 12.4295 76.2188 12.6164 76.2188 12.8112C76.2188 13.1617 76.9744 13.5811 79.0855 13.5434C81.329 13.5024 82.1789 13.1072 82.256 12.7488C82.3114 12.4918 81.9834 12.2568 81.4926 12.1802" stroke="white" stroke-width="0.564931" stroke-linecap="round" stroke-linejoin="round"/>
<path d="M77.052 13.3792C77.1221 12.8106 77.0491 12.1681 75.7978 11.3616C75.1967 10.9742 75.2053 10.8553 75.2837 9.69458C75.3763 8.32354 75.4321 8.43916 77.7765 8.55724C78.3529 8.58635 78.4152 9.57773 76.5924 9.76469C77.9946 9.60889 78.9527 10.2477 79.2574 11.1903" stroke="white" stroke-width="0.564931" stroke-linecap="round" stroke-linejoin="round"/>
<path d="M81.4537 13.2782C81.4069 11.6735 81.5767 9.08722 81.4537 7.84082" stroke="white" stroke-width="0.564931" stroke-linecap="round" stroke-linejoin="round"/>
<path d="M76.2182 12.8193C76.2338 14.7668 76.2182 19.7524 76.0858 22.0816C75.4708 22.4867 70.6176 24.9106 68.5373 25.8754C66.6541 26.7491 65.0621 26.5683 64.3204 25.3809C63.2954 23.7409 65.0457 20.9828 65.7554 19.4019C66.2773 18.2412 65.4828 17.9296 64.8907 18.5138C64.8907 17.9919 64.2052 17.8049 63.8391 18.3814C63.8001 17.8828 62.99 17.7664 62.6005 18.4437C62.507 17.914 61.6033 18.0308 61.2839 18.6307C61.1905 18.1633 60.4168 18.4257 60.279 19.1292C59.0421 25.4272 59.787 26.4682 62.7173 25.0185C62.468 25.6291 62.049 26.1555 61.5099 26.5355" stroke="white" stroke-width="0.564931" stroke-linecap="round" stroke-linejoin="round"/>
<path d="M82.2556 12.7568C82.2556 23.7329 82.3749 24.2717 81.796 25.3533C81.0281 26.7883 79.5136 27.6825 67.9766 34.0936C68.0934 35.7062 68.257 37.6303 68.257 38.9624" stroke="white" stroke-width="0.564931" stroke-linecap="round" stroke-linejoin="round"/>
<path d="M42.0752 31.803C44.6459 33.3454 48.1358 34.9346 48.5721 35.1371C50.5196 34.3425 56.9611 31.4356 59.6011 29.6997C61.1431 28.6862 61.5875 26.5915 61.5953 25.4697" stroke="white" stroke-width="0.564931" stroke-linecap="round" stroke-linejoin="round"/>
<path d="M59.6025 29.7066C60.623 30.7816 64.5726 30.0346 65.593 26.3335" stroke="white" stroke-width="0.564931" stroke-linecap="round" stroke-linejoin="round"/>
<path d="M59.9219 21.162C60.9288 20.8675 61.9731 20.7206 63.0223 20.7257C62.8042 21.5592 62.8993 22.681 63.256 21.9098C63.6127 21.1386 64.5061 21.7331 63.871 22.7122C63.7677 22.9166 63.725 23.1464 63.7488 23.3742C63.7722 23.6021 63.8607 23.8184 64.0034 23.9975" stroke="white" stroke-width="0.564931" stroke-linecap="round" stroke-linejoin="round"/>
<path d="M53.3623 57.3149C56.8834 56.0529 62.6496 53.9209 66.4729 51.6827C68.6393 50.4146 70.7262 46.6192 67.618 41.2208C68.2023 39.1708 69.4019 34.9421 69.996 32.9712" stroke="white" stroke-width="0.564931" stroke-linecap="round" stroke-linejoin="round"/>
<path d="M60.4752 44.3921C47.4191 50.2035 45.1317 51.5282 44.7238 53.966C44.3757 56.0464 45.2613 58.1337 52.989 70.817C55.139 71.4013 59.1742 70.1004 60.0623 67.742C57.7409 63.027 55.326 58.271 54.5548 56.8906" stroke="white" stroke-width="0.564931" stroke-linecap="round" stroke-linejoin="round"/>
<path d="M58.6914 55.3134C60.0313 59.224 61.7061 65.308 63.5524 66.1649C65.3986 67.0218 66.1153 67.1931 77.6974 67.2243C78.8581 66.3362 78.897 62.0284 77.6974 60.112C74.6224 59.9407 69.4633 59.8394 68.3649 59.7381C67.8274 57.2453 66.9709 53.3421 66.6429 51.5664" stroke="white" stroke-width="0.564931" stroke-linecap="round" stroke-linejoin="round"/>
<path d="M59.6953 68.4321C60.2468 68.8893 60.7482 69.4038 61.191 69.9668C60.2562 72.5764 56.558 77.5153 53.5179 79.3927C53.3387 77.3751 54.0865 73.2931 55.0369 70.8938" stroke="white" stroke-width="0.564931" stroke-linecap="round" stroke-linejoin="round"/>
<path d="M75.2837 60.0112C76.312 61.1642 76.8184 65.0981 75.1279 67.217" stroke="white" stroke-width="0.564931" stroke-linecap="round" stroke-linejoin="round"/>
<path d="M51.5869 68.51C53.9551 69.0319 57.6959 68.0815 58.8939 65.3784" stroke="white" stroke-width="0.564931" stroke-linecap="round" stroke-linejoin="round"/>
<path d="M53.4873 78.2549C54.9986 77.3045 58.8936 73.69 60.7008 69.3989" stroke="white" stroke-width="0.564931" stroke-linecap="round" stroke-linejoin="round"/>
<path d="M78.0332 60.7899C78.5014 60.7354 78.975 60.7354 79.4432 60.7899C80.7597 61.8559 84.4366 66.2663 84.4833 70.2158C82.3644 69.9288 79.2095 67.8399 78.1968 66.4922" stroke="white" stroke-width="0.564931" stroke-linecap="round" stroke-linejoin="round"/>
<path d="M78.7734 60.7588C80.2084 62.0831 83.6811 66.8268 83.8369 70.0834" stroke="white" stroke-width="0.564931" stroke-linecap="round" stroke-linejoin="round"/>
<path d="M55.4121 35.1372C55.6146 37.5599 56.4781 44.1269 56.6421 46.1055" stroke="white" stroke-width="0.564931" stroke-linecap="round" stroke-linejoin="round"/>
<path d="M67.6181 41.2212C63.209 41.2524 59.5789 42.3429 56.4551 44.2593" stroke="white" stroke-width="0.564931" stroke-linecap="round" stroke-linejoin="round"/>
<path d="M56.2913 67.8942C54.5931 64.599 51.072 57.0816 50.3164 55.5081C53.8375 53.7319 62.7882 50.0083 64.3306 49.0501C65.873 48.092 66.4807 46.8612 64.8448 41.3926" stroke="white" stroke-width="0.564931" stroke-linecap="round" stroke-linejoin="round"/>
<path d="M39.3721 37.25C46.7492 41.7116 47.9337 42.1954 49.7795 41.6883C51.8693 41.067 53.9064 40.2803 55.8713 39.3357" stroke="white" stroke-width="0.564931" stroke-linecap="round" stroke-linejoin="round"/>
<path d="M50.457 41.4938C52.5378 40.115 54.7727 37.7157 55.5751 36.7583" stroke="white" stroke-width="0.564931" stroke-linecap="round" stroke-linejoin="round"/>
<path d="M59.4307 57.5489C60.3499 56.4583 63.0063 53.8876 63.9644 53.0151" stroke="white" stroke-width="0.564931" stroke-linecap="round" stroke-linejoin="round"/>
<path d="M29.7979 23.3276L30.068 24.8549" stroke="white" stroke-width="0.564931" stroke-linecap="round" stroke-linejoin="round"/>
<path d="M33.2948 25.7739L31.7676 26.0441" stroke="white" stroke-width="0.564931" stroke-linecap="round" stroke-linejoin="round"/>
<path d="M30.8493 29.2714L30.5791 27.7441" stroke="white" stroke-width="0.564931" stroke-linecap="round" stroke-linejoin="round"/>
<path d="M27.3516 26.8244L28.8796 26.5542" stroke="white" stroke-width="0.564931" stroke-linecap="round" stroke-linejoin="round"/>
<path d="M31.7681 26.0439C31.5785 26.0775 31.3841 26.0733 31.196 26.0317C31.0081 25.9901 30.8301 25.9118 30.6724 25.8013C30.5146 25.6909 30.3802 25.5503 30.2769 25.3879C30.1735 25.2254 30.1031 25.0442 30.0699 24.8545C30.1037 25.0442 30.0998 25.2387 30.0583 25.427C30.0168 25.6152 29.9387 25.7933 29.8282 25.9512C29.7178 26.1092 29.5772 26.2437 29.4146 26.3472C29.2521 26.4507 29.0707 26.5211 28.8809 26.5544C29.0705 26.5206 29.265 26.5245 29.4531 26.566C29.6412 26.6075 29.8193 26.6858 29.9772 26.7962C30.135 26.9067 30.2695 27.0472 30.3729 27.2097C30.4763 27.3723 30.5467 27.5536 30.5799 27.7434C30.5462 27.5537 30.5501 27.3593 30.5916 27.1712C30.633 26.9832 30.7112 26.8051 30.8216 26.6473C30.9319 26.4894 31.0723 26.3548 31.2348 26.2513C31.3972 26.1478 31.5784 26.0773 31.7681 26.0439Z" stroke="white" stroke-width="0.564931" stroke-linecap="round" stroke-linejoin="round"/>
<path d="M87.623 46.4482L88.0101 48.6385" stroke="white" stroke-width="0.564931" stroke-linecap="round" stroke-linejoin="round"/>
<path d="M92.6385 49.9561L90.4482 50.3431" stroke="white" stroke-width="0.564931" stroke-linecap="round" stroke-linejoin="round"/>
<path d="M89.1306 54.9715L88.7432 52.7812" stroke="white" stroke-width="0.564931" stroke-linecap="round" stroke-linejoin="round"/>
<path d="M84.1152 51.4627L86.3067 51.0757" stroke="white" stroke-width="0.564931" stroke-linecap="round" stroke-linejoin="round"/>
<path d="M90.4471 50.3444C90.1748 50.3927 89.896 50.387 89.6262 50.3275C89.3565 50.2681 89.101 50.1558 88.8747 49.9975C88.648 49.8392 88.4553 49.6375 88.3069 49.4046C88.1585 49.1713 88.0572 48.9114 88.0096 48.6392C88.058 48.911 88.0527 49.1898 87.9932 49.46C87.9338 49.7298 87.8218 49.9852 87.6636 50.2115C87.5053 50.4378 87.3036 50.6309 87.0707 50.7794C86.8378 50.9278 86.5779 51.0286 86.3057 51.0766C86.5775 51.0282 86.8567 51.034 87.1261 51.0934C87.3958 51.1529 87.6513 51.2652 87.8776 51.4235C88.1039 51.5817 88.297 51.7835 88.445 52.0163C88.5935 52.2496 88.6943 52.5096 88.7419 52.7818C88.6935 52.5096 88.6992 52.2308 88.7587 51.961C88.8181 51.6912 88.9305 51.4358 89.0887 51.2094C89.247 50.9827 89.4487 50.79 89.6816 50.6416C89.9149 50.4932 90.1748 50.3919 90.4471 50.3444Z" stroke="white" stroke-width="0.564931" stroke-linecap="round" stroke-linejoin="round"/>
<path d="M41.1714 15.4053C40.852 15.9895 40.5638 16.5582 40.2989 17.0957C38.2034 21.4192 37.7906 24.2781 37.7979 26.4125C37.8057 27.4642 37.907 28.3367 37.9619 29.1313V29.139C38.11 29.2247 38.2489 29.3104 38.4216 29.4117C38.7332 28.9197 38.9902 29.0144 39.7536 29.3883C40.8053 29.9025 40.9066 29.9492 40.9836 30.6893C40.9914 30.7827 40.9992 30.8684 41.0148 30.9541C41.7471 30.5412 42.5806 30.1284 43.531 29.5191C45.3305 28.3584 47.4961 26.4576 49.9655 22.3367C50.2771 21.8148 50.5965 21.2707 50.9159 20.6775L41.1714 15.4053ZM44.3186 23.9353L43.82 26.3035L42.7389 24.1379L40.3395 24.4105L42.0615 22.7045L41.0644 20.4999L43.2145 21.6069L44.9984 19.9866L44.6089 22.3781L46.7122 23.57L44.3186 23.9353Z" stroke="black" stroke-width="0.564931" stroke-linejoin="round"/>
<path d="M37.9622 35.4717C37.9778 34.7628 38.3128 34.0072 38.8642 32.9789C38.7496 32.5988 38.7205 32.198 38.7791 31.8052C38.8377 31.4125 38.9826 31.0376 39.2033 30.7075C39.0635 30.9236 38.9008 31.1239 38.7179 31.3049C38.9516 31.7801 38.5698 32.5046 37.8921 32.1618L37.9856 32.3098C38.8113 32.7772 38.266 33.8366 37.3858 33.4168L37.5498 33.5648C38.3599 33.9933 37.8536 35.0293 36.9811 34.6476C36.5994 34.4762 36.2878 34.3516 36.0307 34.2425C35.3608 34.78 34.5272 34.9047 33.1406 34.7099L39.1545 37.9662C38.2972 36.9908 37.9389 36.2585 37.9622 35.4717Z" stroke="black" stroke-width="0.564931" stroke-linejoin="round"/>
<path d="M32.945 34.604L31.4805 36.5203L38.5616 40.3608L39.3717 38.0861L32.945 34.604Z" stroke="black" stroke-width="0.564931" stroke-linejoin="round"/>
</svg>
