<svg width="296" height="90" viewBox="0 0 296 90" fill="none" xmlns="http://www.w3.org/2000/svg">
<rect x="1" y="1" width="294" height="88" rx="44" fill="#BAFFE6"/>
<rect x="1" y="1" width="294" height="88" rx="44" stroke="black" stroke-width="2"/>
<path d="M72.9634 32.2546C72.3636 32.9323 70.2984 35.2066 69.6527 36.0717C65.4981 30.0299 64.6802 29.3887 61.3953 29.3887C55.6204 29.419 49.6102 31.5129 44.7484 34.537C41.5234 36.546 41.2585 37.5518 40.8846 40.6678C40.6062 42.8356 40.4556 45.0179 40.4336 47.2036C40.5779 46.1655 47.094 46.3807 47.094 47.5775C47.1096 45.6066 47.2888 41.0105 47.3979 39.9667C47.8263 39.8109 48.4028 39.6005 49.0338 39.3824C50.1888 38.3637 51.279 37.2735 52.2978 36.1184C52.6917 38.0201 52.9313 39.9505 53.0144 41.8908C55.6872 40.6087 59.0103 40.4497 61.9496 41.0495C61.9885 40.9404 62.0353 40.8236 62.0726 40.7145C62.0898 39.2093 62.0012 37.7047 61.8077 36.2119C62.6728 37.5846 65.9032 42.0425 67.1377 43.2541C69.1467 45.2327 70.8687 45.0535 72.8088 42.7867C74.4845 40.8474 76.0474 38.8135 77.4898 36.6949C77.7555 33.7712 74.8248 31.7683 72.9634 32.2546Z" fill="#09AFF4"/>
<path d="M72.325 72.0844C71.9839 71.6305 71.8178 71.0692 71.8576 70.503C70.3988 70.1951 68.9068 70.0721 67.4173 70.1369C67.1434 71.8589 66.9778 73.487 66.8486 74.3599C67.207 73.207 77.9883 76.4009 78.222 77.8186C78.2803 75.7736 73.8834 74.1315 72.325 72.0844Z" fill="#09AFF4"/>
<path d="M91.6683 14.0882C89.8376 12.3432 91.5904 10.5983 90.8815 8.77539C92.977 9.60892 94.3948 11.7512 93.4522 13.7688L91.6683 14.0882Z" fill="#09AFF4"/>
<path d="M37.3712 68.0732C35.3979 68.4869 34.2142 68.842 33.3672 69.0314C34.7304 69.0314 35.4471 80.1711 34.0917 81.1526C36.0953 80.3097 35.9514 75.8009 36.7567 73.9235C36.8744 73.5906 37.0761 73.2938 37.3422 73.0617C37.6084 72.8297 37.9299 72.6706 38.2757 72.5992C38.2233 71.0515 37.9178 69.5226 37.3712 68.0732Z" fill="#09AFF4"/>
<path d="M82.1711 24.2692C80.2158 22.6879 77.4581 24.4095 77.5905 26.5206C78.0137 26.5299 78.431 26.6198 78.8205 26.7854C79.0514 27.1647 79.1826 27.5961 79.2022 28.0396C79.4671 28.5226 79.6774 28.9199 79.8488 29.2626C82.4437 30.0494 84.7418 26.3434 82.1711 24.2692Z" fill="#09AFF4"/>
<path d="M74.1404 27.4401L73.5254 26.7702L72.9957 25.1343C70.9781 24.2696 67.5837 25.9912 67.7219 29.4032C67.8449 32.3712 70.7366 33.5786 72.2319 33.0957C72.5513 32.7373 72.8161 32.4397 72.9797 32.2543C73.1548 32.2063 73.336 32.1853 73.5172 32.192C73.5951 30.7353 73.377 29.9485 73.377 29.2085C73.377 28.9124 73.7275 28.3671 74.1404 27.4401Z" fill="#09AFF4"/>
<path d="M88.6133 21.584L67.9387 16.6697C66.5832 16.4204 65.7964 16.9891 65.4069 18.0018L63.8874 21.9144C64.3257 25.4199 64.2839 27.0292 63.958 27.4277C63.6775 27.7705 63.031 27.934 62.252 27.8172C62.3314 28.3597 62.438 28.8979 62.5713 29.4297C62.8597 29.4542 63.1462 29.4984 63.4282 29.5622L67.6738 18.4991L87.5461 23.3211L81.2829 41.2226L75.495 39.4776C75.0509 40.0541 74.5679 40.6695 74.0382 41.316L81.3219 43.505C82.4358 43.84 83.5109 43.4817 84.0016 42.134L90.1635 24.4117C90.5842 23.1965 90.4595 22.0358 88.6133 21.584ZM86.3386 33.0976C86.3132 33.1896 86.2693 33.2754 86.2095 33.3498C86.1496 33.4242 86.075 33.4856 85.991 33.5303C85.9065 33.5749 85.8138 33.6018 85.7187 33.6093C85.6236 33.6168 85.5277 33.6049 85.4375 33.5741C85.3468 33.5433 85.264 33.4944 85.1931 33.4303C85.1222 33.3663 85.0656 33.2884 85.0258 33.2016C84.986 33.1148 84.9647 33.0207 84.9627 32.9253C84.9606 32.8299 84.9783 32.735 85.0143 32.6466C85.0398 32.5546 85.0836 32.4687 85.1435 32.3944C85.2033 32.3199 85.2776 32.2586 85.362 32.2139C85.4465 32.1693 85.5391 32.1424 85.6343 32.1349C85.7294 32.1273 85.8253 32.1393 85.9155 32.1701C86.0057 32.2009 86.0889 32.2498 86.1599 32.3138C86.2304 32.3779 86.2874 32.4557 86.3272 32.5426C86.3669 32.6294 86.3882 32.7235 86.3903 32.8189C86.3923 32.9144 86.3747 33.0092 86.3386 33.0976Z" fill="#E9E9E9"/>
<path d="M75.0432 28.4238L76.7726 30.3168C75.8768 30.7063 74.8952 29.9129 75.0432 28.4238Z" fill="#E9E9E9"/>
<path d="M77.5054 27.8314C77.2873 27.7768 76.8043 27.6912 76.2344 27.6055L77.5054 28.9921C77.5365 28.6058 77.5365 28.2176 77.5054 27.8314Z" fill="#E9E9E9"/>
<path d="M71.8654 70.4971C73.2053 70.8087 73.5636 71.2293 73.5636 71.5409C73.5636 71.9382 72.9076 72.0784 72.3336 72.0784C71.9946 71.6237 71.8285 71.0633 71.8654 70.4971Z" fill="#E9E9E9"/>
<path d="M67.4173 70.1387C67.3161 70.8242 67.2304 71.3929 67.1681 71.8836C66.2488 71.7045 65.6617 71.3145 65.6957 70.8865C65.7244 70.5278 66.2099 70.2244 67.4173 70.1387Z" fill="#E9E9E9"/>
<path d="M36.0544 66.7579C36.4135 66.6669 36.9113 66.9838 37.3709 68.0822C36.5509 68.2614 35.9297 68.4102 35.4234 68.5332C35.2987 67.5759 35.6423 66.8621 36.0544 66.7579Z" fill="#E9E9E9"/>
<path d="M38.2749 72.6006C37.9307 72.6756 37.611 72.8363 37.3455 73.068C37.08 73.2992 36.8772 73.594 36.7559 73.9249C36.9199 74.4378 37.3582 74.9802 37.7591 74.694C38.0515 74.4858 38.3028 73.8376 38.2749 72.6006Z" fill="#E9E9E9"/>
<path d="M59.9855 47.2676C59.8453 49.254 59.9465 53.9826 59.9855 55.6496C59.2065 55.4003 58.521 55.19 58.0068 55.0498C58.7703 51.9104 59.3779 49.441 59.9855 47.2676Z" fill="#E9E9E9"/>
<path d="M40.4399 47.1896C40.3932 47.5323 41.0319 47.8907 41.9569 47.9374C42.0403 47.8739 42.1071 47.7911 42.1517 47.6959C42.2233 47.3212 42.2494 46.9395 42.2296 46.5586C40.993 46.6443 40.4789 46.9169 40.4399 47.1896Z" fill="#E9E9E9"/>
<path d="M47.0918 47.4914C47.0234 47.2319 46.6142 46.9531 45.7314 46.7764C45.7548 47.1191 45.7704 47.6177 45.7938 48.1704C46.3095 48.1544 47.2148 47.958 47.0918 47.4914Z" fill="#E9E9E9"/>
<path d="M52.3041 36.1123C52.4443 36.7822 52.5767 37.5223 52.6858 38.2853C51.4557 38.5878 50.2415 38.9518 49.0479 39.3759C50.1967 38.3532 51.284 37.2635 52.3041 36.1123Z" fill="#E9E9E9"/>
<path d="M63.093 38.0905C62.7269 39.0098 62.3919 39.8744 62.0803 40.7145C62.0973 39.2093 62.0087 37.7048 61.8154 36.2119C62.0336 36.5637 62.5075 37.2648 63.093 38.0905Z" fill="#E9E9E9"/>
<path d="M73.3008 75.3493C70.3172 74.3915 67.0471 73.7351 66.8482 74.3612C66.585 75.1992 69.5735 76.4145 72.5526 77.2423C75.1356 77.9606 77.7136 78.3878 78.1552 78.0254C79.0051 77.3284 74.357 75.6884 73.3008 75.3493Z" fill="#E9E9E9"/>
<path d="M34.7436 74.5613C34.5525 71.7175 34.0355 69.041 33.359 69.041C32.5362 69.0373 32.252 71.772 32.3508 74.651C32.4611 77.849 33.0441 81.2246 33.8887 81.2246C35.079 80.9593 34.8248 75.7675 34.7436 74.5613Z" fill="#E9E9E9"/>
<path d="M93.1391 48.9112C91.085 48.5089 88.9588 48.7066 87.0145 49.4811C85.0699 50.256 83.3897 51.5741 82.1753 53.2785C80.9605 54.9833 80.2627 57.0017 80.1651 59.0923C80.0679 61.1829 80.5747 63.2575 81.6255 65.0676C87.429 61.4375 91.4331 55.6106 93.1391 48.9112Z" fill="#E9E9E9"/>
<path d="M62.1904 26.749C63.0006 27.3333 63.7484 27.715 63.9977 27.3489C63.7562 27.8318 63.2499 27.9721 62.2683 27.8163C62.2294 27.4579 62.206 27.0996 62.1904 26.749Z" fill="#E9E9E9"/>
<path d="M64.9166 18.538C64.4803 17.9849 63.7247 17.6499 62.564 17.7746C63.0781 13.529 57.0253 12.9214 56.7916 16.4736C53.699 14.0665 48.7289 17.7979 52.2267 20.3686C50.3259 20.4855 49.6949 23.0016 51.7281 23.0016C47.0385 26.2033 50.731 33.3312 60.8736 26.5686C61.4202 26.0989 61.9115 25.5683 62.3381 24.9873C61.4734 23.811 62.4393 23.0709 62.7977 23.9123C63.0002 24.3952 63.2261 23.6552 63.2261 23.0554C63.5115 23.0723 63.7903 23.1465 64.0461 23.2735C65.2142 22.5966 65.9932 19.8934 64.9166 18.538Z" fill="#E9E9E9"/>
<path d="M91.6683 14.0882C89.8376 12.3432 91.5904 10.5983 90.8815 8.77539C92.977 9.60892 94.3948 11.7512 93.4522 13.7688L91.6683 14.0882Z" stroke="black" stroke-width="0.564931" stroke-linecap="round" stroke-linejoin="round"/>
<path d="M62.5723 29.4287C62.8606 29.4532 63.1467 29.4975 63.4292 29.5612L67.6747 18.4981L87.547 23.3202L81.2838 41.2216L75.4959 39.4766C75.0518 40.0531 74.5689 40.6685 74.0391 41.3151L81.3228 43.504C82.4368 43.839 83.5118 43.4807 84.0026 42.133L90.1644 24.4108C90.5851 23.1955 90.4605 22.0348 88.6142 21.583L67.9396 16.6687C66.5841 16.4194 65.7973 16.9881 65.4078 18.0008L65.0929 18.8111L62.5723 29.4287ZM86.3396 33.0966C86.3141 33.1886 86.2703 33.2745 86.2104 33.3488C86.1505 33.4233 86.0759 33.4847 85.9919 33.5293C85.9074 33.5739 85.8148 33.6008 85.7196 33.6083C85.6245 33.6159 85.5286 33.6039 85.4384 33.5731C85.3478 33.5424 85.2649 33.4934 85.194 33.4294C85.1231 33.3653 85.0665 33.2875 85.0267 33.2006C84.987 33.1138 84.9656 33.0197 84.9636 32.9243C84.9615 32.8289 84.9792 32.734 85.0153 32.6456C85.0407 32.5536 85.0845 32.4678 85.1444 32.3934C85.2043 32.319 85.2785 32.2576 85.3629 32.2129C85.4474 32.1683 85.5401 32.1414 85.6352 32.1339C85.7303 32.1263 85.8262 32.1383 85.9164 32.1691C86.0066 32.1999 86.0899 32.2488 86.1608 32.3129C86.2313 32.3769 86.2883 32.4548 86.3281 32.5416C86.3678 32.6284 86.3892 32.7225 86.3912 32.8179C86.3933 32.9134 86.3756 33.0082 86.3396 33.0966Z" stroke="black" stroke-width="0.564931" stroke-linejoin="round"/>
<path d="M25.1572 66.048L30.3298 58.6631" stroke="black" stroke-width="0.564931" stroke-linecap="round" stroke-linejoin="round"/>
<path d="M24.0508 59.7686L31.4357 64.9411" stroke="black" stroke-width="0.564931" stroke-linecap="round" stroke-linejoin="round"/>
<path d="M74.3672 49.1039L79.3528 48.2236" stroke="black" stroke-width="0.564931" stroke-linecap="round" stroke-linejoin="round"/>
<path d="M76.4229 46.1758L77.2953 51.1614" stroke="black" stroke-width="0.564931" stroke-linecap="round" stroke-linejoin="round"/>
<path d="M91.0525 70.5035C97.0713 70.5035 101.951 65.624 101.951 59.6052C101.951 53.5864 97.0713 48.707 91.0525 48.707C85.0337 48.707 80.1543 53.5864 80.1543 59.6052C80.1543 65.624 85.0337 70.5035 91.0525 70.5035Z" stroke="black" stroke-width="0.564931" stroke-linecap="round" stroke-linejoin="round"/>
<path d="M35.4627 36.5934C37.9236 36.5934 39.9186 34.5984 39.9186 32.1375C39.9186 29.6766 37.9236 27.6816 35.4627 27.6816C33.0018 27.6816 31.0068 29.6766 31.0068 32.1375C31.0068 34.5984 33.0018 36.5934 35.4627 36.5934Z" stroke="black" stroke-width="0.564931" stroke-linecap="round" stroke-linejoin="round"/>
<path d="M54.7432 68.2051C58.3498 68.93 62.0262 69.2485 65.7037 69.1555" stroke="black" stroke-width="0.564931" stroke-linecap="round" stroke-linejoin="round"/>
<path d="M44.7484 64.8155C36.3435 60.6761 29.8888 53.4163 26.7613 44.5849C20.1709 26.5121 31.4127 18.5064 41.9907 21.6511C47.4978 23.2882 50.1702 21.8536 50.513 16.9771C50.8324 12.4355 54.0574 9.02926 63.6859 9.61556C72.0294 10.1242 81.5803 15.0235 86.8369 21.148M73.5636 68.3608C91.5724 64.3653 99.7081 43.1523 89.798 25.4822L73.5636 68.3608Z" stroke="black" stroke-width="0.564931" stroke-linecap="round" stroke-linejoin="round"/>
<path d="M37.722 12.2188L27.431 14.0338C27.0333 14.1106 26.6818 14.3407 26.4523 14.6744C26.2228 15.0081 26.1337 15.4187 26.2043 15.8175C26.2748 16.2163 26.4994 16.5714 26.8294 16.806C27.1595 17.0408 27.5686 17.1362 27.9685 17.0719L38.2595 15.2568L41.1885 13.1691L37.722 12.2188Z" stroke="black" stroke-width="0.564931" stroke-linecap="round" stroke-linejoin="round"/>
<path d="M27.915 13.9482L28.4525 16.9863" stroke="black" stroke-width="0.564931" stroke-linecap="round" stroke-linejoin="round"/>
<path d="M29.6602 13.6445L30.1899 16.6826" stroke="black" stroke-width="0.564931" stroke-linecap="round" stroke-linejoin="round"/>
<path d="M37.7217 12.2188L38.2592 15.2569" stroke="black" stroke-width="0.564931" stroke-linecap="round" stroke-linejoin="round"/>
<path d="M91.668 14.088C91.6991 15.4662 91.8266 16.8406 92.0497 18.2011C92.7573 22.2224 94.0673 26.4585 94.745 26.3416C95.4228 26.2248 95.2087 21.7906 94.4957 17.7726C94.2432 16.4174 93.8943 15.082 93.4519 13.7764L91.668 14.088Z" stroke="black" stroke-width="0.564931" stroke-linecap="round" stroke-linejoin="round"/>
<path d="M91.9639 17.7038L94.4099 17.2754" stroke="black" stroke-width="0.564931" stroke-linecap="round" stroke-linejoin="round"/>
<path d="M41.9599 47.9444C41.0329 47.8976 40.3957 47.5393 40.4429 47.1965C40.4913 46.8304 41.3699 46.4729 43.629 46.5405C46.1841 46.6192 47.13 47.1481 47.1111 47.5766C47.098 47.8804 46.5502 48.1375 45.8024 48.1608" stroke="black" stroke-width="0.564931" stroke-linecap="round" stroke-linejoin="round"/>
<path d="M69.6609 36.0643C70.3075 35.1996 72.3719 32.9327 72.9717 32.2472C74.4284 31.8499 77.747 33.3455 77.4899 36.6952C76.045 38.8116 74.4817 40.8449 72.8081 42.7854C70.8635 45.0478 69.1558 45.238 67.137 43.2528C65.8369 41.9744 62.5175 37.3488 61.8164 36.2106C62.0099 37.7035 62.0984 39.208 62.0813 40.7132" stroke="black" stroke-width="0.564931" stroke-linecap="round" stroke-linejoin="round"/>
<path d="M70.4562 37.2322C65.5095 29.9563 64.7851 29.3799 61.4042 29.3799C56.1304 29.3799 49.991 31.256 44.7582 34.5291C41.5327 36.5459 41.2822 37.5532 40.8944 40.6598C40.6204 42.8281 40.4698 45.0103 40.4434 47.1956" stroke="black" stroke-width="0.564931" stroke-linecap="round" stroke-linejoin="round"/>
<path d="M63.0944 38.082C60.1108 45.5214 59.3269 49.5964 55.3823 66.085C54.6369 69.2108 53.8169 70.7578 50.163 71.8135C46.3451 72.9164 38.7273 74.4543 37.6211 74.7503" stroke="black" stroke-width="0.564931" stroke-linecap="round" stroke-linejoin="round"/>
<path d="M35.4239 68.5251C35.3009 67.5821 35.642 66.865 36.0549 66.7568C36.592 66.6158 37.4423 67.4034 38.0024 70.309C38.5952 73.384 38.1254 74.637 37.6207 74.7571C37.3009 74.833 36.9351 74.4845 36.756 73.9236" stroke="black" stroke-width="0.564931" stroke-linecap="round" stroke-linejoin="round"/>
<path d="M36.0547 66.757C38.7812 66.1494 48.729 63.928 49.4067 63.7734" stroke="black" stroke-width="0.564931" stroke-linecap="round" stroke-linejoin="round"/>
<path d="M61.9567 41.0503C56.5972 39.9597 50.5775 41.4328 48.6505 46.5267C46.9609 50.9986 47.482 56.6381 47.9125 64.1009" stroke="black" stroke-width="0.564931" stroke-linecap="round" stroke-linejoin="round"/>
<path d="M51.8223 34.249C52.5174 36.7412 52.92 39.3058 53.0219 41.891" stroke="black" stroke-width="0.564931" stroke-linecap="round" stroke-linejoin="round"/>
<path d="M47.1016 47.5776C47.1171 45.6146 47.2963 41.0029 47.4054 39.959C49.1314 39.3048 50.892 38.7457 52.6792 38.2842" stroke="black" stroke-width="0.564931" stroke-linecap="round" stroke-linejoin="round"/>
<path d="M33.3679 69.0391C34.7934 69.0423 35.5179 81.2304 33.8976 81.2226C32.2773 81.2148 31.6307 69.035 33.3679 69.0391Z" stroke="black" stroke-width="0.564931" stroke-linecap="round" stroke-linejoin="round"/>
<path d="M33.3672 69.0392C34.2692 68.8367 35.0342 68.5882 37.3712 68.0732" stroke="black" stroke-width="0.564931" stroke-linecap="round" stroke-linejoin="round"/>
<path d="M38.2832 72.5996C37.1615 72.9276 36.6149 73.4651 36.1799 76.3855C35.8806 78.3945 35.323 80.857 33.8975 81.2235" stroke="black" stroke-width="0.564931" stroke-linecap="round" stroke-linejoin="round"/>
<path d="M67.1685 71.8824C66.2493 71.7033 65.6692 71.3134 65.6962 70.8931C65.7307 70.3552 66.7483 69.9448 69.6302 70.1764C72.8401 70.4347 73.5563 71.0957 73.5563 71.5397C73.5563 71.937 72.9003 72.0772 72.3263 72.0772" stroke="black" stroke-width="0.564931" stroke-linecap="round" stroke-linejoin="round"/>
<path d="M66.8482 74.3594C67.2221 73.1675 78.6562 76.6029 78.2138 77.9428C77.8706 78.9789 66.3423 75.9719 66.8482 74.3594Z" stroke="black" stroke-width="0.564931" stroke-linecap="round" stroke-linejoin="round"/>
<path d="M66.8486 74.3597C66.9811 73.4639 67.0745 72.4434 67.4173 70.1367" stroke="black" stroke-width="0.564931" stroke-linecap="round" stroke-linejoin="round"/>
<path d="M71.8663 70.4961C71.8586 71.649 72.1943 72.3509 74.6006 74.0631C76.4866 75.4038 78.3788 76.5169 78.2152 77.9425" stroke="black" stroke-width="0.564931" stroke-linecap="round" stroke-linejoin="round"/>
<path d="M60.7578 44.625C63.996 46.6881 67.1165 48.93 70.1058 51.34C73.2435 53.9517 73.5646 54.9234 73.5646 59.4494V71.5395" stroke="black" stroke-width="0.564931" stroke-linecap="round" stroke-linejoin="round"/>
<path d="M65.6956 70.8931C65.7501 67.7694 65.7735 58.7161 65.6956 57.5567C63.343 56.7465 59.6973 55.5235 58.0068 55.0557" stroke="black" stroke-width="0.564931" stroke-linecap="round" stroke-linejoin="round"/>
<path d="M59.5188 40.7383C56.3794 44.6255 54.4008 53.6151 52.6792 66.3673C47.8727 67.8786 40.5969 69.569 37.9639 70.1143" stroke="black" stroke-width="0.564931" stroke-linecap="round" stroke-linejoin="round"/>
<path d="M45.7403 46.7599C45.8026 47.9829 45.9272 51.1469 45.7636 51.7377C45.6 52.3285 43.8481 55.2125 42.8034 56.4429C42.1417 57.2219 41.3274 57.3994 42.1646 55.7807C42.6573 54.814 43.082 53.8136 43.4356 52.7877C44.4287 49.9608 42.3286 49.3532 41.4881 50.365C40.204 51.9083 39.2422 52.2961 39.751 51.0817C40.0613 50.3413 40.2262 49.8976 40.4443 49.3368C40.6624 48.7759 42.0646 48.0436 42.1581 47.7164C42.233 47.3421 42.2592 46.96 42.236 46.5791" stroke="black" stroke-width="0.564931" stroke-linecap="round" stroke-linejoin="round"/>
<path d="M42.9262 54.1129C42.2813 54.7709 41.5533 55.3416 40.7606 55.8111C39.7942 56.3773 39.4596 55.85 40.5966 54.7906C41.3915 54.0522 42.1082 53.2338 42.7355 52.3486" stroke="black" stroke-width="0.564931" stroke-linecap="round" stroke-linejoin="round"/>
<path d="M42.0693 51.7842C42.4718 52.1835 42.9328 52.5189 43.4363 52.7792" stroke="black" stroke-width="0.564931" stroke-linecap="round" stroke-linejoin="round"/>
<path d="M41.8123 53.5218C41.0733 53.8891 40.2906 54.1614 39.483 54.3319C38.4318 54.5521 38.5724 53.9367 39.6856 53.4672C40.58 53.0441 41.4284 52.5296 42.2173 51.9326" stroke="black" stroke-width="0.564931" stroke-linecap="round" stroke-linejoin="round"/>
<path d="M40.7757 52.8985C40.2095 52.992 39.6349 53.0232 39.0619 52.992C38.2985 52.8985 38.0799 52.4525 39.2411 52.2753C40.1544 52.1437 41.0424 51.8731 41.8741 51.473C41.9641 50.908 42.1738 50.3688 42.4891 49.8916" stroke="black" stroke-width="0.564931" stroke-linecap="round" stroke-linejoin="round"/>
<path d="M59.9938 55.6484C59.9548 53.958 59.8536 49.136 59.9938 47.1963" stroke="black" stroke-width="0.564931" stroke-linecap="round" stroke-linejoin="round"/>
<path d="M49.041 39.3744C50.1961 38.3556 51.2863 37.2655 52.305 36.1104" stroke="black" stroke-width="0.564931" stroke-linecap="round" stroke-linejoin="round"/>
<path d="M74.1408 27.4328L73.5258 26.7629L72.9961 25.1348L74.5775 25.797L81.9841 33.844C82.112 33.9824 82.1801 34.1661 82.1727 34.3545C82.1653 34.543 82.0837 34.7208 81.9452 34.8489C81.8066 34.977 81.6229 35.0449 81.4347 35.0376C81.2461 35.0303 81.0682 34.9484 80.9403 34.81L75.0588 28.4139" stroke="black" stroke-width="0.564931" stroke-linecap="round" stroke-linejoin="round"/>
<path d="M80.863 32.6289C80.6146 32.6746 80.3837 32.7894 80.1976 32.9603C80.0114 33.1312 79.8774 33.3511 79.8105 33.5949" stroke="black" stroke-width="0.564931" stroke-linecap="round" stroke-linejoin="round"/>
<path d="M81.2841 33.0879C81.0356 33.1337 80.8052 33.2487 80.619 33.4195C80.4333 33.5904 80.2993 33.8102 80.2324 34.0539" stroke="black" stroke-width="0.564931" stroke-linecap="round" stroke-linejoin="round"/>
<path d="M73.5094 32.1846C73.5873 30.7279 73.3691 29.9411 73.3691 29.2011C73.3691 28.8583 73.8447 28.165 74.3507 26.9186C74.6861 26.0929 75.347 26.6226 75.0751 28.1416C74.7783 29.8009 75.823 30.7279 76.7812 30.2995" stroke="black" stroke-width="0.564931" stroke-linecap="round" stroke-linejoin="round"/>
<path d="M76.2363 27.5967C76.805 27.6824 77.288 27.7681 77.5073 27.8226C77.5385 28.2089 77.5385 28.597 77.5073 28.9833" stroke="black" stroke-width="0.564931" stroke-linecap="round" stroke-linejoin="round"/>
<path d="M75.0752 26.3438C76.1346 26.3905 78.5651 26.5307 78.8222 26.7878C79.2117 27.1773 79.3052 29.078 79.3519 29.748" stroke="black" stroke-width="0.564931" stroke-linecap="round" stroke-linejoin="round"/>
<path d="M79.2041 28.04C80.5674 30.5095 80.5829 30.8444 79.9909 31.678" stroke="black" stroke-width="0.564931" stroke-linecap="round" stroke-linejoin="round"/>
<path d="M79.1257 32.8633C78.3857 33.8137 77.5267 34.6861 77.3418 35.1613" stroke="black" stroke-width="0.564931" stroke-linecap="round" stroke-linejoin="round"/>
<path d="M60.8843 26.5614C61.4297 26.0937 61.9202 25.5655 62.3464 24.987C61.4895 23.8107 62.4444 23.0723 62.806 23.912C63.0143 24.3958 63.2344 23.6549 63.2344 23.0551C63.5194 23.073 63.7982 23.1471 64.0544 23.2732C65.6981 22.315 66.5784 17.3528 62.5666 17.7657C63.0786 13.5201 57.018 12.9203 56.7921 16.4635C53.6995 14.0642 48.7295 17.8034 52.2272 20.3663C50.3264 20.4832 49.6954 22.9993 51.7286 22.9993C47.0296 26.2035 50.7339 33.3428 60.8843 26.5614Z" stroke="black" stroke-width="0.564931" stroke-linecap="round" stroke-linejoin="round"/>
<path d="M56.3398 29.895C58.7625 28.5084 61.6059 26.123 62.3459 24.9873" stroke="black" stroke-width="0.564931" stroke-linecap="round" stroke-linejoin="round"/>
<path d="M62.4941 29.411C62.3904 28.878 62.3125 28.345 62.2588 27.8075C64.5745 28.1765 64.2391 26.9346 64.0443 23.2725" stroke="black" stroke-width="0.564931" stroke-linecap="round" stroke-linejoin="round"/>
<path d="M62.2589 27.8077C62.2232 27.4547 62.1982 27.1025 62.1826 26.7471C62.9928 27.3391 63.7406 27.713 63.9899 27.3391" stroke="black" stroke-width="0.564931" stroke-linecap="round" stroke-linejoin="round"/>
<path d="M113.48 38H116.96V52H113.48V38ZM118.48 52H115.72V49H118.36C118.893 49 119.407 48.9333 119.9 48.8C120.407 48.6667 120.847 48.4467 121.22 48.14C121.607 47.8333 121.913 47.4267 122.14 46.92C122.367 46.4 122.48 45.76 122.48 45C122.48 44.24 122.367 43.6067 122.14 43.1C121.913 42.58 121.607 42.1667 121.22 41.86C120.847 41.5533 120.407 41.3333 119.9 41.2C119.407 41.0667 118.893 41 118.36 41H115.72V38H118.48C120.013 38 121.34 38.2867 122.46 38.86C123.58 39.4333 124.447 40.24 125.06 41.28C125.673 42.32 125.98 43.56 125.98 45C125.98 46.4267 125.673 47.6667 125.06 48.72C124.447 49.76 123.58 50.5667 122.46 51.14C121.34 51.7133 120.013 52 118.48 52ZM127.668 39.34C127.668 38.86 127.841 38.4733 128.188 38.18C128.535 37.8733 128.948 37.72 129.428 37.72C129.921 37.72 130.335 37.8733 130.668 38.18C131.015 38.4733 131.188 38.86 131.188 39.34C131.188 39.82 131.015 40.2133 130.668 40.52C130.335 40.8267 129.921 40.98 129.428 40.98C128.948 40.98 128.535 40.8267 128.188 40.52C127.841 40.2133 127.668 39.82 127.668 39.34ZM127.968 42.8H130.888V52H127.968V42.8ZM133.035 52.66H135.955C135.995 53.0333 136.102 53.3467 136.275 53.6C136.462 53.8533 136.709 54.04 137.015 54.16C137.322 54.2933 137.669 54.36 138.055 54.36C138.482 54.36 138.869 54.26 139.215 54.06C139.562 53.8733 139.835 53.5867 140.035 53.2C140.249 52.8267 140.355 52.36 140.355 51.8V42.8H143.255V51.8C143.255 52.9733 143.022 53.9267 142.555 54.66C142.102 55.3933 141.495 55.9267 140.735 56.26C139.975 56.6067 139.122 56.78 138.175 56.78C137.042 56.78 136.102 56.6067 135.355 56.26C134.622 55.9133 134.069 55.4267 133.695 54.8C133.322 54.1867 133.102 53.4733 133.035 52.66ZM132.835 47.28C132.835 46.24 133.042 45.3733 133.455 44.68C133.882 43.9867 134.429 43.4667 135.095 43.12C135.762 42.7733 136.469 42.6 137.215 42.6C137.989 42.6 138.669 42.7867 139.255 43.16C139.855 43.52 140.329 44.0467 140.675 44.74C141.022 45.4333 141.195 46.28 141.195 47.28C141.195 48.2667 141.022 49.1133 140.675 49.82C140.329 50.5133 139.855 51.0467 139.255 51.42C138.669 51.78 137.989 51.96 137.215 51.96C136.469 51.96 135.762 51.7867 135.095 51.44C134.429 51.08 133.882 50.5533 133.455 49.86C133.042 49.1667 132.835 48.3067 132.835 47.28ZM136.015 47.28C136.015 47.7467 136.115 48.1533 136.315 48.5C136.515 48.8333 136.782 49.0867 137.115 49.26C137.449 49.4333 137.815 49.52 138.215 49.52C138.562 49.52 138.895 49.44 139.215 49.28C139.549 49.1067 139.822 48.8533 140.035 48.52C140.249 48.1867 140.355 47.7733 140.355 47.28C140.355 46.9067 140.289 46.58 140.155 46.3C140.035 46.02 139.869 45.7867 139.655 45.6C139.455 45.4133 139.229 45.2733 138.975 45.18C138.722 45.0867 138.469 45.04 138.215 45.04C137.815 45.04 137.449 45.1267 137.115 45.3C136.782 45.4733 136.515 45.7267 136.315 46.06C136.115 46.3933 136.015 46.8 136.015 47.28ZM145.402 39.34C145.402 38.86 145.576 38.4733 145.922 38.18C146.269 37.8733 146.682 37.72 147.162 37.72C147.656 37.72 148.069 37.8733 148.402 38.18C148.749 38.4733 148.922 38.86 148.922 39.34C148.922 39.82 148.749 40.2133 148.402 40.52C148.069 40.8267 147.656 40.98 147.162 40.98C146.682 40.98 146.269 40.8267 145.922 40.52C145.576 40.2133 145.402 39.82 145.402 39.34ZM145.702 42.8H148.622V52H145.702V42.8ZM150.03 42.8H156.19V45.3H150.03V42.8ZM151.65 39.6H154.55V52H151.65V39.6ZM159.817 49.12C159.817 49.36 159.877 49.5667 159.997 49.74C160.117 49.9 160.277 50.0267 160.477 50.12C160.677 50.2 160.897 50.24 161.137 50.24C161.484 50.24 161.804 50.1667 162.097 50.02C162.39 49.8733 162.63 49.6533 162.817 49.36C163.004 49.0667 163.097 48.7067 163.097 48.28L163.417 49.48C163.417 50.0667 163.257 50.5667 162.937 50.98C162.617 51.38 162.204 51.6867 161.697 51.9C161.19 52.1 160.644 52.2 160.057 52.2C159.47 52.2 158.924 52.0933 158.417 51.88C157.924 51.6533 157.524 51.32 157.217 50.88C156.924 50.44 156.777 49.9067 156.777 49.28C156.777 48.4 157.09 47.7067 157.717 47.2C158.344 46.68 159.23 46.42 160.377 46.42C160.937 46.42 161.437 46.4733 161.877 46.58C162.33 46.6867 162.717 46.82 163.037 46.98C163.357 47.14 163.597 47.3067 163.757 47.48V48.82C163.437 48.58 163.064 48.4 162.637 48.28C162.224 48.1467 161.784 48.08 161.317 48.08C160.957 48.08 160.67 48.12 160.457 48.2C160.244 48.28 160.084 48.4 159.977 48.56C159.87 48.7067 159.817 48.8933 159.817 49.12ZM158.477 45.62L157.457 43.6C157.977 43.3467 158.604 43.1067 159.337 42.88C160.07 42.6533 160.87 42.54 161.737 42.54C162.55 42.54 163.277 42.66 163.917 42.9C164.557 43.1267 165.064 43.46 165.437 43.9C165.81 44.34 165.997 44.88 165.997 45.52V52H163.097V46.2C163.097 45.9733 163.057 45.78 162.977 45.62C162.91 45.4467 162.804 45.3 162.657 45.18C162.51 45.06 162.324 44.9733 162.097 44.92C161.884 44.8667 161.637 44.84 161.357 44.84C160.944 44.84 160.537 44.8867 160.137 44.98C159.75 45.0733 159.41 45.1867 159.117 45.32C158.824 45.44 158.61 45.54 158.477 45.62ZM168.258 36.4H171.298V52H168.258V36.4ZM183.545 44.86L182.705 52H179.145L181.405 37.3L187.365 45.84L193.345 37.3L195.605 52H192.045L191.205 44.86L187.365 50.7L183.545 44.86ZM199.797 49.12C199.797 49.36 199.857 49.5667 199.977 49.74C200.097 49.9 200.257 50.0267 200.457 50.12C200.657 50.2 200.877 50.24 201.117 50.24C201.464 50.24 201.784 50.1667 202.077 50.02C202.371 49.8733 202.611 49.6533 202.797 49.36C202.984 49.0667 203.077 48.7067 203.077 48.28L203.397 49.48C203.397 50.0667 203.237 50.5667 202.917 50.98C202.597 51.38 202.184 51.6867 201.677 51.9C201.171 52.1 200.624 52.2 200.037 52.2C199.451 52.2 198.904 52.0933 198.397 51.88C197.904 51.6533 197.504 51.32 197.197 50.88C196.904 50.44 196.757 49.9067 196.757 49.28C196.757 48.4 197.071 47.7067 197.697 47.2C198.324 46.68 199.211 46.42 200.357 46.42C200.917 46.42 201.417 46.4733 201.857 46.58C202.311 46.6867 202.697 46.82 203.017 46.98C203.337 47.14 203.577 47.3067 203.737 47.48V48.82C203.417 48.58 203.044 48.4 202.617 48.28C202.204 48.1467 201.764 48.08 201.297 48.08C200.937 48.08 200.651 48.12 200.437 48.2C200.224 48.28 200.064 48.4 199.957 48.56C199.851 48.7067 199.797 48.8933 199.797 49.12ZM198.457 45.62L197.437 43.6C197.957 43.3467 198.584 43.1067 199.317 42.88C200.051 42.6533 200.851 42.54 201.717 42.54C202.531 42.54 203.257 42.66 203.897 42.9C204.537 43.1267 205.044 43.46 205.417 43.9C205.791 44.34 205.977 44.88 205.977 45.52V52H203.077V46.2C203.077 45.9733 203.037 45.78 202.957 45.62C202.891 45.4467 202.784 45.3 202.637 45.18C202.491 45.06 202.304 44.9733 202.077 44.92C201.864 44.8667 201.617 44.84 201.337 44.84C200.924 44.84 200.517 44.8867 200.117 44.98C199.731 45.0733 199.391 45.1867 199.097 45.32C198.804 45.44 198.591 45.54 198.457 45.62ZM211.219 42.8V52H208.239V42.8H211.219ZM213.879 45.92C213.719 45.76 213.545 45.6333 213.359 45.54C213.185 45.4467 212.965 45.4 212.699 45.4C212.405 45.4 212.145 45.48 211.919 45.64C211.692 45.8 211.519 46.0333 211.399 46.34C211.279 46.6467 211.219 47.02 211.219 47.46L210.499 46.4C210.499 45.6667 210.639 45.0133 210.919 44.44C211.212 43.8667 211.592 43.4133 212.059 43.08C212.525 42.7467 213.012 42.58 213.519 42.58C213.852 42.58 214.172 42.6467 214.479 42.78C214.785 42.9133 215.019 43.1 215.179 43.34L213.879 45.92ZM216.441 36.4H219.341V52H216.441V36.4ZM222.681 42.8H226.301L222.361 46.6L226.701 52H223.141L218.741 46.6L222.681 42.8ZM232.391 52.2C231.325 52.2 230.398 52.0067 229.611 51.62C228.838 51.22 228.238 50.66 227.811 49.94C227.385 49.22 227.171 48.3733 227.171 47.4C227.171 46.4133 227.378 45.56 227.791 44.84C228.205 44.12 228.798 43.5667 229.571 43.18C230.358 42.7933 231.285 42.6 232.351 42.6C233.418 42.6 234.318 42.7867 235.051 43.16C235.785 43.52 236.345 44.0467 236.731 44.74C237.118 45.4333 237.311 46.2733 237.311 47.26C237.311 47.4067 237.311 47.5533 237.311 47.7C237.311 47.8333 237.298 47.9467 237.271 48.04H228.871V46.36H234.551L233.831 47.28C233.898 47.1867 233.951 47.0733 233.991 46.94C234.045 46.7933 234.071 46.6733 234.071 46.58C234.071 46.18 233.998 45.8333 233.851 45.54C233.705 45.2467 233.498 45.02 233.231 44.86C232.965 44.7 232.651 44.62 232.291 44.62C231.838 44.62 231.458 44.72 231.151 44.92C230.845 45.12 230.611 45.4267 230.451 45.84C230.305 46.24 230.225 46.7467 230.211 47.36C230.211 47.92 230.291 48.4 230.451 48.8C230.611 49.2 230.851 49.5067 231.171 49.72C231.491 49.92 231.885 50.02 232.351 50.02C232.885 50.02 233.338 49.92 233.711 49.72C234.098 49.52 234.405 49.22 234.631 48.82L237.331 49.48C236.851 50.3867 236.198 51.0667 235.371 51.52C234.558 51.9733 233.565 52.2 232.391 52.2ZM238.096 42.8H244.256V45.3H238.096V42.8ZM239.716 39.6H242.616V52H239.716V39.6ZM245.363 39.34C245.363 38.86 245.537 38.4733 245.883 38.18C246.23 37.8733 246.643 37.72 247.123 37.72C247.617 37.72 248.03 37.8733 248.363 38.18C248.71 38.4733 248.883 38.86 248.883 39.34C248.883 39.82 248.71 40.2133 248.363 40.52C248.03 40.8267 247.617 40.98 247.123 40.98C246.643 40.98 246.23 40.8267 245.883 40.52C245.537 40.2133 245.363 39.82 245.363 39.34ZM245.663 42.8H248.583V52H245.663V42.8ZM257.051 46.4C257.051 45.8533 256.944 45.4333 256.731 45.14C256.531 44.8467 256.191 44.7 255.711 44.7C255.391 44.7 255.111 44.7667 254.871 44.9C254.631 45.0333 254.444 45.2267 254.311 45.48C254.177 45.7333 254.111 46.04 254.111 46.4V52H251.071V42.8H254.111V44.18C254.377 43.6733 254.737 43.28 255.191 43C255.657 42.72 256.231 42.58 256.911 42.58C258.057 42.58 258.891 42.8867 259.411 43.5C259.931 44.1133 260.191 44.9733 260.191 46.08V52H257.051V46.4ZM262.235 52.66H265.155C265.195 53.0333 265.301 53.3467 265.475 53.6C265.661 53.8533 265.908 54.04 266.215 54.16C266.521 54.2933 266.868 54.36 267.255 54.36C267.681 54.36 268.068 54.26 268.415 54.06C268.761 53.8733 269.035 53.5867 269.235 53.2C269.448 52.8267 269.555 52.36 269.555 51.8V42.8H272.455V51.8C272.455 52.9733 272.221 53.9267 271.755 54.66C271.301 55.3933 270.695 55.9267 269.935 56.26C269.175 56.6067 268.321 56.78 267.375 56.78C266.241 56.78 265.301 56.6067 264.555 56.26C263.821 55.9133 263.268 55.4267 262.895 54.8C262.521 54.1867 262.301 53.4733 262.235 52.66ZM262.035 47.28C262.035 46.24 262.241 45.3733 262.655 44.68C263.081 43.9867 263.628 43.4667 264.295 43.12C264.961 42.7733 265.668 42.6 266.415 42.6C267.188 42.6 267.868 42.7867 268.455 43.16C269.055 43.52 269.528 44.0467 269.875 44.74C270.221 45.4333 270.395 46.28 270.395 47.28C270.395 48.2667 270.221 49.1133 269.875 49.82C269.528 50.5133 269.055 51.0467 268.455 51.42C267.868 51.78 267.188 51.96 266.415 51.96C265.668 51.96 264.961 51.7867 264.295 51.44C263.628 51.08 263.081 50.5533 262.655 49.86C262.241 49.1667 262.035 48.3067 262.035 47.28ZM265.215 47.28C265.215 47.7467 265.315 48.1533 265.515 48.5C265.715 48.8333 265.981 49.0867 266.315 49.26C266.648 49.4333 267.015 49.52 267.415 49.52C267.761 49.52 268.095 49.44 268.415 49.28C268.748 49.1067 269.021 48.8533 269.235 48.52C269.448 48.1867 269.555 47.7733 269.555 47.28C269.555 46.9067 269.488 46.58 269.355 46.3C269.235 46.02 269.068 45.7867 268.855 45.6C268.655 45.4133 268.428 45.2733 268.175 45.18C267.921 45.0867 267.668 45.04 267.415 45.04C267.015 45.04 266.648 45.1267 266.315 45.3C265.981 45.4733 265.715 45.7267 265.515 46.06C265.315 46.3933 265.215 46.8 265.215 47.28Z" fill="black"/>
</svg>
