<svg width="180" height="136" viewBox="0 0 180 136" fill="none" xmlns="http://www.w3.org/2000/svg">
<rect x="1" y="1" width="178" height="134" rx="27" fill="#09AFF4"/>
<rect x="1" y="1" width="178" height="134" rx="27" stroke="black" stroke-width="2"/>
<path d="M110.73 85.7018C107.168 85.5098 101.003 85.3768 99.7856 85.264C99.1592 82.3927 98.1503 77.8456 97.7504 75.712C97.7571 75.7077 97.7639 75.7034 97.7701 75.6986C100.242 74.1026 102.458 69.7341 98.9101 63.5781C94.1826 63.618 89.8458 64.6788 85.8503 67.1349C85.9506 68.0378 86.0327 68.8039 86.0783 69.3055C74.7239 74.4415 72.5351 75.954 72.1155 78.4984C71.6283 81.4701 74.2179 85.7128 81.7919 98.2159C84.6719 98.8879 89.0586 97.2415 90.0728 94.6226C88.9141 92.2816 84.8936 84.1807 83.625 81.9184C87.044 80.6704 91.017 79.1224 94.2944 77.5452C92.9543 78.8344 90.2907 81.5474 89.325 82.6936C90.7295 86.98 92.3711 91.9576 94.1495 92.7804C96.2264 93.7404 97.1835 94.0207 110.72 94.0207C112.274 92.6272 111.926 87.7202 110.73 85.7018Z" fill="#09AFF4"/>
<path d="M67.9574 33.3525C67.5834 34.0365 67.246 34.7023 66.9359 35.3316C64.4826 40.3932 63.9993 43.7402 64.0079 46.2391C64.017 47.4703 64.1356 48.4917 64.1999 49.422V49.4311C64.3732 49.5314 64.5359 49.6317 64.738 49.7503C65.1028 49.1743 65.4038 49.2852 66.2975 49.7229C67.5287 50.3249 67.6473 50.3796 67.7375 51.246C67.7466 51.3554 67.7558 51.4557 67.774 51.5561C68.6313 51.0727 69.6071 50.5893 70.7198 49.8761C72.8265 48.5172 75.3618 46.2919 78.2529 41.4674C78.6177 40.8564 78.9916 40.2194 79.3655 39.5249L67.9574 33.3525ZM71.6418 43.3389L71.0582 46.1114L69.7924 43.5761L66.9834 43.8953L68.9994 41.898L67.8321 39.317L70.3492 40.613L72.4377 38.7161L71.9817 41.5159L74.4441 42.9113L71.6418 43.3389Z" fill="#09AFF4"/>
<path d="M115.107 29.5954C115.098 30.0514 115.098 30.4891 115.107 30.8722C115.718 30.6898 116.001 30.4709 116.047 30.252C116.13 29.8584 115.365 29.544 115.107 29.5954Z" fill="#E9E9E9"/>
<path d="M111.979 86.449C111.69 86.4418 111.402 86.4567 111.115 86.4946C111.918 88.4828 111.963 91.5653 111.307 93.1705C112.363 94.5841 115.483 96.7181 117.91 97.3657C117.734 93.5535 113.657 87.9994 111.979 86.449Z" fill="#E9E9E9"/>
<path d="M109.746 29.796C109.59 29.7917 108.978 29.9131 108.978 30.3341C108.978 30.5621 109.26 30.8174 109.953 30.9907C110.028 30.5805 109.954 30.157 109.746 29.796Z" fill="#E9E9E9"/>
<path d="M99.3389 55.2312C99.4665 57.1191 99.6672 59.3717 99.6672 60.9312C100.36 58.4962 101.208 55.5504 101.701 53.918L99.3389 55.2312Z" fill="#E9E9E9"/>
<path d="M95.7186 36.9915C95.7186 36.3714 94.9161 36.1616 94.4874 36.8365C94.4509 36.2528 93.5025 36.1165 93.0373 36.9094C92.937 36.2802 91.87 36.417 91.4961 37.1283C91.3866 36.572 90.4746 36.8821 90.3196 37.712C90.1554 38.5875 90.0095 39.381 89.9092 40.0923C91.0876 39.7459 92.3106 39.5738 93.5389 39.5816C93.2836 40.5483 93.3949 41.8525 93.8125 40.9678C94.2229 40.0832 95.2717 40.749 94.5325 41.9072C94.4135 42.147 94.3645 42.4157 94.3919 42.6821C94.4197 42.9484 94.522 43.2015 94.6876 43.412C94.797 41.5059 96.2745 39.0344 96.7305 38.0312C97.3511 36.6723 96.4117 36.3075 95.7186 36.9915Z" fill="#E9E9E9"/>
<path d="M88.459 80.0742C88.7326 80.8859 89.0244 81.7705 89.323 82.6916C90.3991 81.4148 93.5091 78.3961 94.6308 77.3838C92.6724 78.3414 90.5283 79.2625 88.459 80.0742Z" fill="#E9E9E9"/>
<path d="M91.8725 45.1451C91.8653 45.5609 91.8254 45.9756 91.7539 46.3854C92.3851 45.9406 92.8757 45.3243 93.1675 44.6094C92.7504 44.8213 92.3174 45.0004 91.8725 45.1451Z" fill="#E9E9E9"/>
<path d="M89.644 95.4326C90.0784 95.7696 90.4758 96.1517 90.8296 96.5726C88.7137 101.589 84.1811 105.811 82.3936 106.933C82.5721 103.988 83.1804 101.084 84.1993 98.3145C86.2513 98.0409 88.5596 97.0013 89.644 95.4326Z" fill="#E9E9E9"/>
<path d="M84.82 58.3516C83.8806 59.4824 81.2723 62.2823 78.8281 63.8965C80.9949 63.1965 83.1125 62.3522 85.1665 61.3693C85.0388 60.2932 84.9203 59.2535 84.82 58.3516Z" fill="#E9E9E9"/>
<path d="M69.0145 52.55C68.8138 52.4315 68.4673 52.5774 68.2119 52.9513C68.422 53.3285 68.7614 53.6168 69.1676 53.763C69.3154 53.0516 69.2156 52.6686 69.0145 52.55Z" fill="#E9E9E9"/>
<path d="M66.7988 58.3787C66.3793 58.8529 66.0596 58.9906 65.8503 58.9258C65.558 58.8356 65.522 58.2874 65.6953 57.7129C66.0692 57.9318 66.4431 58.1507 66.7988 58.3787Z" fill="#E9E9E9"/>
<path d="M59.8955 92.2861C61.4116 92.2861 62.6406 91.0569 62.6406 89.541C62.6406 88.0247 61.4116 86.7959 59.8955 86.7959C58.3794 86.7959 57.1504 88.0247 57.1504 89.541C57.1504 91.0569 58.3794 92.2861 59.8955 92.2861Z" fill="#E9E9E9"/>
<path d="M64.1995 56.8462C64.2177 56.0162 64.6099 55.1316 65.2555 53.9278C65.1212 53.4827 65.0872 53.0135 65.1558 52.5537C65.2245 52.0939 65.3941 51.655 65.6525 51.2686C65.4888 51.5216 65.2983 51.756 65.0841 51.9679C65.3577 52.5242 64.9108 53.3724 64.1174 52.9711L64.2268 53.1444C65.1936 53.6916 64.5552 54.9319 63.5246 54.4404L63.7166 54.6137C64.6651 55.1153 64.0723 56.3282 63.0508 55.8814C62.604 55.6807 62.2392 55.5348 61.9382 55.4071C61.1539 56.0364 60.178 56.1823 58.5547 55.9543L65.5953 59.7665C64.5917 58.6246 64.1721 57.7673 64.1995 56.8462Z" fill="#E9E9E9"/>
<path d="M58.3191 55.8301L56.6045 58.0736L64.8946 62.5698L65.8431 59.9067L58.3191 55.8301Z" fill="#E9E9E9"/>
<path d="M66.7987 58.3785C65.9348 57.8131 64.9383 57.3115 64.1904 56.8281" stroke="black" stroke-width="0.564931" stroke-linecap="round" stroke-linejoin="round"/>
<path d="M89.8725 40.3841L88.1579 22.3994L74.8975 55.6509" stroke="black" stroke-width="0.564931" stroke-linecap="round" stroke-linejoin="round"/>
<path d="M90.6841 48.975L90.3193 45.0625" stroke="black" stroke-width="0.564931" stroke-linecap="round" stroke-linejoin="round"/>
<path d="M109.865 85.6559L122.332 54.3926L100.435 58.2595" stroke="black" stroke-width="0.564931" stroke-linecap="round" stroke-linejoin="round"/>
<path d="M96.8223 93.6084L98.7283 113.599L106.544 94.0006" stroke="black" stroke-width="0.564931" stroke-linecap="round" stroke-linejoin="round"/>
<path d="M72.1256 62.6006L64.5469 81.6067L72.1347 80.266" stroke="black" stroke-width="0.564931" stroke-linecap="round" stroke-linejoin="round"/>
<path d="M66.9447 35.3498L62.2023 32.7871C58.4103 39.7913 61.874 45.0991 64.0172 46.2573" stroke="black" stroke-width="0.564931" stroke-linecap="round" stroke-linejoin="round"/>
<path d="M69.8002 43.5859L66.9912 43.896L68.9976 41.9078L67.8303 39.3269L70.3474 40.6219L72.4358 38.7158L71.9799 41.5065L74.4422 42.911L71.6424 43.3397L71.077 46.1121L69.8002 43.5859Z" stroke="black" stroke-width="0.564931" stroke-linecap="round" stroke-linejoin="round"/>
<path d="M78.2851 41.4795L82.9959 44.0412C79.2 51.0454 72.8641 51.0454 70.7295 49.8871" stroke="black" stroke-width="0.564931" stroke-linecap="round" stroke-linejoin="round"/>
<path d="M63.6655 99.9843C66.6369 99.9843 69.0458 97.5756 69.0458 94.604C69.0458 91.6323 66.6369 89.2236 63.6655 89.2236C60.694 89.2236 58.2852 91.6323 58.2852 94.604C58.2852 97.5756 60.694 99.9843 63.6655 99.9843Z" stroke="black" stroke-width="0.564931" stroke-linecap="round" stroke-linejoin="round"/>
<path d="M122.349 41.1781C123.266 41.1781 124.009 40.4349 124.009 39.5182C124.009 38.6015 123.266 37.8584 122.349 37.8584C121.432 37.8584 120.689 38.6015 120.689 39.5182C120.689 40.4349 121.432 41.1781 122.349 41.1781Z" stroke="black" stroke-width="0.564931" stroke-linecap="round" stroke-linejoin="round"/>
<path d="M57.8892 68.8203C58.3576 68.8203 58.7373 68.4407 58.7373 67.9722C58.7373 67.5038 58.3576 67.124 57.8892 67.124C57.4207 67.124 57.041 67.5038 57.041 67.9722C57.041 68.4407 57.4207 68.8203 57.8892 68.8203Z" stroke="black" stroke-width="0.564931" stroke-linecap="round" stroke-linejoin="round"/>
<path d="M101.264 27.1602L100.416 30.5528L102.988 30.0968L102.14 33.4894" stroke="black" stroke-width="0.564931" stroke-linecap="round" stroke-linejoin="round"/>
<path d="M63.5173 54.4288C64.5493 54.9184 65.1853 53.6824 64.2196 53.1328C63.4996 52.7233 62.9793 52.4665 62.3956 52.166C62.2217 52.0656 62.0158 52.0362 61.8207 52.0838C61.6256 52.1314 61.4564 52.2523 61.3483 52.4216C61.2402 52.5908 61.2015 52.7952 61.2403 52.9922C61.2791 53.1893 61.3923 53.3637 61.5565 53.4793C62.0212 53.7726 62.5703 53.9795 63.5173 54.4288Z" stroke="black" stroke-width="0.564931" stroke-linecap="round" stroke-linejoin="round"/>
<path d="M64.7475 49.7585C64.3827 49.5396 64.1192 49.3918 63.7626 49.1825C63.5943 49.0726 63.3899 49.0325 63.1925 49.0708C62.9952 49.109 62.8206 49.2226 62.7056 49.3874C62.5906 49.5522 62.5442 49.7553 62.5764 49.9537C62.6086 50.1521 62.7167 50.3302 62.8779 50.4502C63.268 50.7105 63.6764 50.9422 64.1 51.1433" stroke="black" stroke-width="0.564931" stroke-linecap="round" stroke-linejoin="round"/>
<path d="M63.0603 55.8794C64.0726 56.3263 64.6649 55.1148 63.7169 54.6118C63.0142 54.2388 62.4934 54.0036 61.9294 53.7362C61.7592 53.6406 61.5586 53.6148 61.3697 53.6641C61.1808 53.7135 61.0185 53.8342 60.9169 54.0008C60.8152 54.1675 60.7822 54.367 60.8248 54.5576C60.8674 54.7481 60.9822 54.9146 61.1451 55.0222C61.6011 55.2862 62.13 55.469 63.0603 55.8794Z" stroke="black" stroke-width="0.564931" stroke-linecap="round" stroke-linejoin="round"/>
<path d="M64.0807 51.1825C63.7067 50.9819 63.3765 50.8307 63.0136 50.6353C62.8395 50.5272 62.6301 50.4911 62.4298 50.5346C62.2295 50.578 62.0539 50.6977 61.9402 50.8682C61.8265 51.0388 61.7836 51.2468 61.8205 51.4484C61.8574 51.6501 61.9713 51.8294 62.1381 51.9486C62.6119 52.2596 63.1523 52.4828 64.1061 52.9609C64.901 53.3588 65.3464 52.514 65.0728 51.9577" stroke="black" stroke-width="0.564931" stroke-linecap="round" stroke-linejoin="round"/>
<path d="M68.204 52.9519C68.4685 52.578 68.8131 52.4354 69.0157 52.5506C69.3771 52.757 69.4074 53.8092 68.2861 56.0254C67.0909 58.3874 66.2518 59.0551 65.8419 58.9255C65.5587 58.8358 65.5136 58.278 65.6869 57.7126" stroke="black" stroke-width="0.564931" stroke-linecap="round" stroke-linejoin="round"/>
<path d="M69.1686 53.7633C68.5485 53.5079 67.9206 53.0524 67.7459 51.2462C67.6609 50.3822 67.5366 50.3241 66.3059 49.7231C64.8659 49.0199 64.947 49.1471 63.8617 51.7021C63.5949 52.3305 64.5731 52.9789 65.704 51.1549C64.8193 52.5503 64.984 53.9389 65.7952 54.8212" stroke="black" stroke-width="0.564931" stroke-linecap="round" stroke-linejoin="round"/>
<path d="M113.328 26.112C113.237 27.252 111.855 27.2885 111.859 26.185C111.863 25.3642 111.898 24.7805 111.932 24.1238C111.99 23.0294 113.45 23.0385 113.483 23.9414C113.504 24.4886 113.412 25.0632 113.328 26.112Z" stroke="black" stroke-width="0.564931" stroke-linecap="round" stroke-linejoin="round"/>
<path d="M108.688 25.2726C108.679 24.8713 108.685 24.5785 108.679 24.1954C108.662 23.1557 110.143 23.1087 110.211 23.9765C110.242 24.4198 110.242 24.8648 110.211 25.3081" stroke="black" stroke-width="0.564931" stroke-linecap="round" stroke-linejoin="round"/>
<path d="M114.898 26.3757C114.784 27.4888 113.443 27.4883 113.484 26.4122C113.515 25.6187 113.565 25.0533 113.612 24.424C113.691 23.368 115.108 23.4117 115.108 24.28C115.108 24.807 115.002 25.3638 114.898 26.3757Z" stroke="black" stroke-width="0.564931" stroke-linecap="round" stroke-linejoin="round"/>
<path d="M110.246 25.2998C110.255 24.8711 110.291 24.5063 110.301 24.0959C110.327 22.9833 111.812 22.965 111.869 23.877C111.904 24.4333 111.824 25.017 111.769 26.085C111.772 26.2443 111.725 26.4005 111.633 26.5304C111.54 26.6604 111.409 26.7571 111.257 26.8062C111.106 26.8554 110.942 26.8543 110.791 26.8033C110.64 26.7522 110.51 26.6538 110.419 26.5228" stroke="black" stroke-width="0.564931" stroke-linecap="round" stroke-linejoin="round"/>
<path d="M109.737 29.796C109.281 29.869 108.989 30.0879 108.989 30.3159C108.989 30.7263 109.874 31.2173 112.345 31.1731C114.972 31.1251 115.967 30.6624 116.057 30.2429C116.122 29.9419 115.738 29.6669 115.164 29.5771" stroke="black" stroke-width="0.564931" stroke-linecap="round" stroke-linejoin="round"/>
<path d="M109.965 30.9814C110.047 30.3156 109.961 29.5635 108.496 28.6193C107.793 28.1657 107.803 28.0265 107.895 26.6676C108.003 25.0625 108.068 25.1978 110.813 25.3361C111.488 25.3702 111.561 26.5308 109.427 26.7497C111.068 26.5673 112.19 27.3151 112.547 28.4187" stroke="black" stroke-width="0.564931" stroke-linecap="round" stroke-linejoin="round"/>
<path d="M115.117 30.8628C115.063 28.9841 115.261 25.9563 115.117 24.4971" stroke="black" stroke-width="0.564931" stroke-linecap="round" stroke-linejoin="round"/>
<path d="M108.988 30.3252C109.006 32.6052 108.988 38.442 108.832 41.1689C108.112 41.6431 102.431 44.4809 99.9952 45.6103C97.7906 46.6332 95.9267 46.4215 95.0584 45.0314C93.8584 43.1114 95.9075 39.8825 96.7384 38.0316C97.3495 36.6727 96.4192 36.3079 95.7261 36.9919C95.7261 36.3809 94.9235 36.162 94.4949 36.8369C94.4493 36.2532 93.5008 36.1169 93.0448 36.9098C92.9354 36.2897 91.8775 36.4265 91.5035 37.1287C91.3941 36.5815 90.4883 36.8887 90.3271 37.7124C88.8789 45.0857 89.7511 46.3044 93.1816 44.6071C92.8898 45.322 92.3992 45.9383 91.768 46.3831" stroke="black" stroke-width="0.564931" stroke-linecap="round" stroke-linejoin="round"/>
<path d="M116.057 30.252C116.057 43.102 116.196 43.7328 115.519 44.999C114.62 46.679 112.847 47.7259 99.3398 55.2316C99.4766 57.1195 99.6682 59.3721 99.6682 60.9316" stroke="black" stroke-width="0.564931" stroke-linecap="round" stroke-linejoin="round"/>
<path d="M69.0156 52.5503C72.0252 54.3561 76.111 56.2165 76.6217 56.4537C78.9017 55.5234 86.443 52.1202 89.5337 50.0879C91.339 48.9013 91.8593 46.449 91.8684 45.1357" stroke="black" stroke-width="0.564931" stroke-linecap="round" stroke-linejoin="round"/>
<path d="M89.5352 50.0954C90.7299 51.354 95.3537 50.4794 96.5484 46.1465" stroke="black" stroke-width="0.564931" stroke-linecap="round" stroke-linejoin="round"/>
<path d="M89.9092 40.0919C91.0881 39.7472 92.3106 39.5752 93.5389 39.5812C93.2836 40.557 93.3949 41.8703 93.8125 40.9674C94.2301 40.0646 95.2761 40.7606 94.5325 41.9068C94.4116 42.1461 94.3617 42.4152 94.3895 42.6819C94.4169 42.9487 94.5205 43.2019 94.6876 43.4116" stroke="black" stroke-width="0.564931" stroke-linecap="round" stroke-linejoin="round"/>
<path d="M82.2295 82.4179C86.3517 80.9405 93.1025 78.4445 97.5785 75.8242C100.115 74.3395 102.558 69.8962 98.9191 63.5761C99.6031 61.1761 101.008 56.2253 101.703 53.918" stroke="black" stroke-width="0.564931" stroke-linecap="round" stroke-linejoin="round"/>
<path d="M90.557 67.2881C75.2718 74.0917 72.5939 75.6425 72.1163 78.4966C71.7088 80.9321 72.7456 83.3758 81.7926 98.2246C84.3098 98.9086 89.0339 97.3856 90.0736 94.6246C87.3558 89.1046 84.5286 83.5366 83.6258 81.9205" stroke="black" stroke-width="0.564931" stroke-linecap="round" stroke-linejoin="round"/>
<path d="M88.4688 80.0742C90.0374 84.6525 91.9982 91.7752 94.1596 92.7784C96.3211 93.7816 97.1601 93.9822 110.72 94.0187C112.079 92.979 112.124 87.9357 110.72 85.6921C107.12 85.4915 101.08 85.3729 99.7939 85.2544C99.1646 82.336 98.1619 77.7664 97.7779 75.6875" stroke="black" stroke-width="0.564931" stroke-linecap="round" stroke-linejoin="round"/>
<path d="M89.6442 95.4326C90.2898 95.9678 90.8769 96.5702 91.3953 97.2293C90.3009 100.284 85.9713 106.067 82.4121 108.264C82.2023 105.902 83.0778 101.124 84.1905 98.3145" stroke="black" stroke-width="0.564931" stroke-linecap="round" stroke-linejoin="round"/>
<path d="M107.894 85.5742C109.098 86.924 109.691 91.5296 107.712 94.0102" stroke="black" stroke-width="0.564931" stroke-linecap="round" stroke-linejoin="round"/>
<path d="M80.1514 95.5237C82.9238 96.1347 87.3034 95.0221 88.7059 91.8574" stroke="black" stroke-width="0.564931" stroke-linecap="round" stroke-linejoin="round"/>
<path d="M82.377 106.933C84.1462 105.821 88.7062 101.589 90.8221 96.5654" stroke="black" stroke-width="0.564931" stroke-linecap="round" stroke-linejoin="round"/>
<path d="M111.113 86.4854C111.661 86.4215 112.216 86.4215 112.764 86.4854C114.305 87.7334 118.61 92.8967 118.665 97.5206C116.184 97.1846 112.49 94.739 111.305 93.1612" stroke="black" stroke-width="0.564931" stroke-linecap="round" stroke-linejoin="round"/>
<path d="M111.979 86.4502C113.659 88.0006 117.725 93.5542 117.907 97.3668" stroke="black" stroke-width="0.564931" stroke-linecap="round" stroke-linejoin="round"/>
<path d="M84.6289 56.4531C84.866 59.2894 85.8769 66.9776 86.0689 69.2941" stroke="black" stroke-width="0.564931" stroke-linecap="round" stroke-linejoin="round"/>
<path d="M98.9205 63.5762C93.7586 63.6127 89.5087 64.8894 85.8516 67.133" stroke="black" stroke-width="0.564931" stroke-linecap="round" stroke-linejoin="round"/>
<path d="M85.6591 94.8026C83.6709 90.9448 79.5487 82.144 78.6641 80.3018C82.7863 78.2224 93.2652 73.8631 95.0709 72.7413C96.8767 71.6196 97.5881 70.1786 95.6729 63.7764" stroke="black" stroke-width="0.564931" stroke-linecap="round" stroke-linejoin="round"/>
<path d="M65.8516 58.9277C74.4882 64.1511 75.8749 64.7175 78.0359 64.1237C80.4825 63.3964 82.8673 62.4755 85.1677 61.3695" stroke="black" stroke-width="0.564931" stroke-linecap="round" stroke-linejoin="round"/>
<path d="M78.8291 63.8956C81.2651 62.2813 83.8816 59.4724 84.8209 58.3516" stroke="black" stroke-width="0.564931" stroke-linecap="round" stroke-linejoin="round"/>
<path d="M89.335 82.6916C90.4111 81.4148 93.521 78.4052 94.6428 77.3838" stroke="black" stroke-width="0.564931" stroke-linecap="round" stroke-linejoin="round"/>
<path d="M54.6426 42.627L54.9589 44.415" stroke="black" stroke-width="0.564931" stroke-linecap="round" stroke-linejoin="round"/>
<path d="M58.7362 45.4912L56.9482 45.8075" stroke="black" stroke-width="0.564931" stroke-linecap="round" stroke-linejoin="round"/>
<path d="M55.873 49.5858L55.5566 47.7979" stroke="black" stroke-width="0.564931" stroke-linecap="round" stroke-linejoin="round"/>
<path d="M51.7783 46.7216L53.5673 46.4053" stroke="black" stroke-width="0.564931" stroke-linecap="round" stroke-linejoin="round"/>
<path d="M56.9495 45.8075C56.7275 45.8468 56.4999 45.842 56.2798 45.7932C56.0597 45.7445 55.8514 45.6529 55.6667 45.5235C55.482 45.3942 55.3247 45.2297 55.2037 45.0395C55.0826 44.8493 55.0003 44.6371 54.9613 44.415C55.001 44.6372 54.9964 44.8649 54.9478 45.0853C54.8993 45.3056 54.8077 45.5141 54.6784 45.699C54.5491 45.8839 54.3846 46.0415 54.1942 46.1626C54.0039 46.2838 53.7916 46.3662 53.5693 46.4051C53.7914 46.3656 54.019 46.3702 54.2393 46.4188C54.4595 46.4674 54.668 46.559 54.8528 46.6883C55.0376 46.8176 55.195 46.9821 55.3162 47.1724C55.4372 47.3627 55.5196 47.575 55.5585 47.7971C55.519 47.5751 55.5236 47.3476 55.5721 47.1273C55.6207 46.9072 55.7122 46.6987 55.8414 46.5139C55.9706 46.3291 56.1349 46.1715 56.3251 46.0504C56.5152 45.9292 56.7274 45.8466 56.9495 45.8075Z" stroke="black" stroke-width="0.564931" stroke-linecap="round" stroke-linejoin="round"/>
<path d="M122.34 69.6963L122.793 72.2604" stroke="black" stroke-width="0.564931" stroke-linecap="round" stroke-linejoin="round"/>
<path d="M128.212 73.8027L125.647 74.2559" stroke="black" stroke-width="0.564931" stroke-linecap="round" stroke-linejoin="round"/>
<path d="M124.105 79.6735L123.651 77.1094" stroke="black" stroke-width="0.564931" stroke-linecap="round" stroke-linejoin="round"/>
<path d="M118.233 75.5664L120.799 75.1133" stroke="black" stroke-width="0.564931" stroke-linecap="round" stroke-linejoin="round"/>
<path d="M125.646 74.2571C125.328 74.3137 125.001 74.307 124.685 74.2374C124.37 74.1678 124.07 74.0363 123.806 73.851C123.54 73.6657 123.314 73.4295 123.141 73.1569C122.967 72.8838 122.848 72.5795 122.793 72.2607C122.849 72.579 122.843 72.9054 122.774 73.2217C122.704 73.5375 122.573 73.8366 122.388 74.1015C122.202 74.3665 121.966 74.5926 121.694 74.7663C121.421 74.9401 121.117 75.0582 120.798 75.1143C121.116 75.0577 121.443 75.0644 121.758 75.134C122.074 75.2036 122.373 75.3351 122.638 75.5204C122.903 75.7057 123.129 75.9419 123.302 76.2145C123.476 76.4876 123.594 76.7919 123.65 77.1107C123.593 76.7919 123.6 76.4655 123.67 76.1497C123.739 75.8339 123.871 75.5348 124.056 75.2699C124.241 75.0044 124.478 74.7788 124.75 74.6051C125.023 74.4313 125.328 74.3127 125.646 74.2571Z" stroke="black" stroke-width="0.564931" stroke-linecap="round" stroke-linejoin="round"/>
<path d="M67.9583 33.3525C67.5844 34.0365 67.247 34.7023 66.9369 35.3316C64.4836 40.3932 64.0003 43.7402 64.0089 46.2391C64.018 47.4703 64.1366 48.4917 64.2009 49.422V49.4311C64.3742 49.5314 64.5369 49.6317 64.739 49.7503C65.1038 49.1743 65.4047 49.2852 66.2985 49.7229C67.5297 50.3249 67.6483 50.3796 67.7385 51.246C67.7476 51.3554 67.7567 51.4557 67.775 51.5561C68.6323 51.0727 69.6081 50.5893 70.7207 49.8761C72.8275 48.5172 75.3628 46.2919 78.2539 41.4674C78.6187 40.8564 78.9926 40.2194 79.3665 39.5249L67.9583 33.3525ZM71.6428 43.3389L71.0591 46.1114L69.7934 43.5761L66.9844 43.8953L69.0004 41.898L67.8331 39.317L70.3502 40.613L72.4387 38.7161L71.9827 41.5159L74.4451 42.9113L71.6428 43.3389Z" stroke="black" stroke-width="0.564931" stroke-linejoin="round"/>
<path d="M64.2005 56.8452C64.2187 56.0153 64.6109 55.1306 65.2565 53.9268C65.1222 53.4817 65.0882 53.0125 65.1568 52.5527C65.2255 52.0929 65.395 51.654 65.6534 51.2676C65.4898 51.5206 65.2992 51.7551 65.0851 51.9669C65.3587 52.5233 64.9118 53.3714 64.1184 52.9701L64.2278 53.1434C65.1945 53.6906 64.5561 54.9309 63.5256 54.4394L63.7176 54.6127C64.6661 55.1143 64.0733 56.3273 63.0518 55.8804C62.6049 55.6797 62.2401 55.5338 61.9392 55.4061C61.1549 56.0354 60.179 56.1813 58.5557 55.9533L65.5963 59.7655C64.5926 58.6236 64.1731 57.7663 64.2005 56.8452Z" stroke="black" stroke-width="0.564931" stroke-linejoin="round"/>
<path d="M58.3269 55.8291L56.6123 58.0726L64.9024 62.5688L65.8509 59.9057L58.3269 55.8291Z" stroke="black" stroke-width="0.564931" stroke-linejoin="round"/>
</svg>
