<svg width="40" height="90" viewBox="0 0 40 90" fill="none" xmlns="http://www.w3.org/2000/svg">
<rect x="1" y="1" width="117" height="88" rx="11" fill="#FFC4D2"/>
<rect x="1" y="1" width="117" height="88" rx="11" stroke="black" stroke-width="2"/>
<path d="M66.8103 45.798L62.7923 44.8399L45.371 26.8438C42.6773 28.1878 40.4574 30.3212 39.0073 32.9593L46.3382 40.9211L37.909 38.9121C36.2419 41.4984 35.5252 44.2175 35.9 47.0998L57.277 52.7947C59.0666 54.7352 59.926 55.8336 61.6316 56.8127C63.3843 57.8176 66.2363 58.9336 69.3912 58.1079C69.7869 58.0542 68.0878 49.4692 66.8103 45.798Z" fill="#09AFF4"/>
<path d="M38.4079 19.5596C37.738 20.7519 37.4731 25.0363 36.7876 27.3422C36.5217 28.1912 36.3493 29.0667 36.2734 29.9531C36.6415 30.5604 37.1104 31.1004 37.6601 31.55C38.3738 29.7746 39.4031 28.1432 40.6982 26.7346C39.9019 24.685 40.086 22.3566 38.4079 19.5596Z" fill="#E9E9E9"/>
<path d="M34.2787 40.9753C32.4669 39.6313 31.4804 37.6473 28.5137 36.1299C28.5838 37.4931 30.6481 41.2635 31.2947 43.5771C31.52 44.4364 31.8414 45.2676 32.2529 46.0548C32.8887 46.3713 33.5738 46.5767 34.2787 46.6624C33.9384 44.7819 33.9384 42.8557 34.2787 40.9753Z" fill="#E9E9E9"/>
<path d="M44.4142 65.5543L52.4539 67.1201L44.9205 60.4129L36.8809 58.8467L44.4142 65.5543Z" fill="#E9E9E9"/>
<path d="M44.4122 65.5533L52.4519 67.1191L44.9186 60.4119L36.8789 58.8457L44.4122 65.5533Z" stroke="black" stroke-width="0.564931" stroke-linejoin="round"/>
<path d="M39.3247 48.0117C39.2059 48.8871 39.146 49.7694 39.1455 50.6525C39.1392 53.8239 39.922 56.9469 41.4226 59.7394" stroke="black" stroke-width="0.564931" stroke-linecap="round" stroke-linejoin="round"/>
<path d="M57.2744 52.7937L35.8908 47.0988C35.5169 44.2165 36.2336 41.4974 37.8998 38.9111L46.3368 40.9201" stroke="black" stroke-width="0.564931" stroke-linecap="round" stroke-linejoin="round"/>
<path d="M35.9131 44.0137L53.3012 48.4851" stroke="black" stroke-width="0.564931" stroke-linecap="round" stroke-linejoin="round"/>
<path d="M65.9448 48.104L45.3661 26.8467C42.6747 28.1907 40.4568 30.323 39.0078 32.9594L59.1151 54.796C59.8421 55.5938 60.6882 56.2744 61.6234 56.8136C63.3799 57.8214 66.233 58.9345 69.3909 58.1088" stroke="black" stroke-width="0.564931" stroke-linecap="round" stroke-linejoin="round"/>
<path d="M38.4055 19.5599C38.1952 19.2016 38.016 18.9982 37.8836 19.0146C37.057 19.1179 36.8483 23.8063 36.1464 26.1584C35.8901 26.9539 35.7352 27.7785 35.6855 28.6127C35.7879 29.0946 35.9871 29.5507 36.271 29.9534C36.3414 29.0665 36.514 28.1907 36.7852 27.3433C37.4703 25.0367 37.7355 20.7522 38.4055 19.5599Z" stroke="black" stroke-width="0.564931" stroke-linecap="round" stroke-linejoin="round"/>
<path d="M40.6962 26.7346C40.1665 25.3713 40.091 24.1167 39.7458 22.824C39.4387 21.6837 38.9885 20.5868 38.4059 19.5596C37.736 20.7519 37.467 25.0351 36.7856 27.3422C36.5191 28.191 36.3467 29.0666 36.2715 29.9531C36.6395 30.5604 37.1085 31.1004 37.6581 31.55C38.3717 29.7746 39.401 28.1431 40.6962 26.7346Z" stroke="black" stroke-width="0.564931" stroke-linecap="round" stroke-linejoin="round"/>
<path d="M37.6582 31.5488L39.0059 32.9588" stroke="black" stroke-width="0.564931" stroke-linecap="round" stroke-linejoin="round"/>
<path d="M28.5113 36.13C28.1452 35.9426 27.8803 35.8651 27.7791 35.9508C27.1411 36.4891 29.4543 40.5567 30.1239 42.9151C30.3346 43.7235 30.6433 44.5033 31.0431 45.2369C31.3851 45.5915 31.796 45.8724 32.2505 46.0626C31.8389 45.2754 31.5175 44.4443 31.2924 43.585C30.6511 41.2623 28.5827 37.4932 28.5113 36.13Z" stroke="black" stroke-width="0.564931" stroke-linecap="round" stroke-linejoin="round"/>
<path d="M34.2767 40.9755C33.1004 40.103 32.3596 39.0834 31.3862 38.1789C30.5178 37.3777 29.5521 36.689 28.5117 36.1289C28.5818 37.4922 30.6437 41.2633 31.2927 43.5761C31.5177 44.4355 31.8391 45.2666 32.2509 46.0538C32.8867 46.3703 33.5718 46.5757 34.2767 46.6614C33.9366 44.7814 33.9366 42.8555 34.2767 40.9755Z" stroke="black" stroke-width="0.564931" stroke-linecap="round" stroke-linejoin="round"/>
<path d="M34.2852 46.6621L35.8899 47.0984" stroke="black" stroke-width="0.564931" stroke-linecap="round" stroke-linejoin="round"/>
<path d="M34.2773 40.9756L36.5287 41.6222" stroke="black" stroke-width="0.564931" stroke-linecap="round" stroke-linejoin="round"/>
<path d="M21.0488 54.2892L25.0922 57.7791L26.1595 50.4795" stroke="black" stroke-width="0.564931" stroke-linecap="round" stroke-linejoin="round"/>
</svg>
