<svg width="40" height="40" viewBox="0 0 40 40" fill="none" xmlns="http://www.w3.org/2000/svg">
<rect width="40" height="40" rx="20" fill="black"/>
<path d="M12.287 26.0925L12.286 26.0922C11.6043 25.9086 11.0704 25.3792 10.8803 24.7002C10.6069 23.1498 10.4749 21.5777 10.486 20.0035L10.486 20.0035L10.486 19.9977C10.4789 18.4211 10.6144 16.8471 10.8909 15.2949C11.0868 14.6132 11.6193 14.0794 12.3014 13.8822C12.6323 13.7962 13.2484 13.7237 14.0312 13.6675C14.8046 13.6119 15.7014 13.5747 16.5632 13.5498C18.2861 13.5 19.8524 13.5 19.979 13.5H20L20.0002 13.5L20.0006 13.5L20.0019 13.5L20.0065 13.5L20.0223 13.5L20.0794 13.5002C20.1283 13.5004 20.1987 13.5008 20.2878 13.5013C20.466 13.5025 20.7191 13.5046 21.026 13.5085C21.64 13.5162 22.4683 13.5309 23.3423 13.5589C24.217 13.5868 25.1335 13.6279 25.9249 13.688C26.7307 13.7492 27.3642 13.8274 27.6987 13.9192L27.7001 13.9196C28.381 14.1043 28.9142 14.6332 29.1051 15.3114C29.387 16.8663 29.5193 18.4447 29.5 20.0249L29.5 20.0249L29.5 20.0332C29.5068 21.6081 29.371 23.1803 29.094 24.7308C28.9015 25.409 28.3673 25.9374 27.6858 26.122C27.3567 26.209 26.7393 26.2827 25.9533 26.3399C25.1801 26.3962 24.2835 26.4343 23.4217 26.4598C21.6987 26.511 20.1322 26.512 20.006 26.512H19.986H19.9859H19.9855L19.9841 26.512L19.9796 26.512L19.9638 26.512L19.907 26.5118C19.8582 26.5116 19.788 26.5112 19.6992 26.5107C19.5215 26.5095 19.269 26.5074 18.9628 26.5035C18.3502 26.4958 17.5235 26.4811 16.6506 26.4531C15.7769 26.4252 14.861 26.3841 14.0688 26.324C13.2627 26.2629 12.6264 26.1846 12.287 26.0925ZM18.2556 16.5718L17.5067 16.1403L17.506 17.0046L17.501 23.0046L17.5003 23.8701L18.2504 23.4383L23.4624 20.4383L24.2149 20.0052L23.4626 19.5718L18.2556 16.5718Z" fill="black" stroke="white"/>
</svg>
